<svg xmlns="http://www.w3.org/2000/svg" xmlns:xlink="http://www.w3.org/1999/xlink" xmlns:lucid="lucid" width="1167.42" height="896.37"><g transform="translate(-292.58024691358025 -230)" lucid:page-tab-id="0_0"><path d="M0 0h1760v1360H0z" fill="#fff"/><path d="M820 380h120v120H820V380z" stroke="#000" stroke-opacity="0" fill="url(#a)"/><path d="M914.6 457.1c.57.32.94.9.94 1.55 0 .66-.3 1.24-.88 1.65l-33.7 20.6c-.35.18-.64.26-1 .26-.3 0-.67-.08-.96-.25l-33.76-20.6c-.5-.33-.88-1-.88-1.65v-39.32c0-.66.37-1.24.88-1.57l29.96-18.8c.58-.32 1.32-.32 1.9 0 .58.34 1.02.9 1.02 1.66v16.8c0 .67-.36 1.25-.95 1.66l-14.1 8.74v22.26l16.95 10.22 19.66-10.8c.6-.24 1.24-.24 1.83.1zm-34.65 20.02L910 458.74l-9.44-5.44-19.73 10.8c-.6.32-1.25.24-1.83-.1l-18.7-11.2c-.6-.33-.96-1-.96-1.65v-24.32c0-.66.37-1.23.88-1.56l14.1-8.83V404l-26.23 16.4v37.26zm36.54-59.44c.57.33.94 1 .94 1.65v31.82c0 .66-.37 1.32-.88 1.65-.3.17-.65.25-1.02.25-.3 0-.5-.08-.8-.17l-15-7.5c-.64-.33-1-1-1-1.73V427.9l-15.94-8.82c-.58-.33-.95-.9-.95-1.65v-16.8c0-.67.37-1.33.95-1.66.58-.33 1.32-.33 1.83 0zm-2.8 30.5V420.4l-28.12-16.57v12.53l15.93 8.82c.6.33.96 1 .96 1.65v15.67zm-23-21.35l-9.5 11.87 9.93 12.53h-4.16l-8.85-11.3v11.22h-3.8v-24.32h3.8v9.8l8.33-9.8z" stroke="#000" stroke-opacity="0" fill="#fff"/><use xlink:href="#b" transform="matrix(1,0,0,1,790,509) translate(72 14.4)"/><path d="M700 266a6 6 0 0 1 6-6h368a6 6 0 0 1 6 6v308a6 6 0 0 1-6 6H706a6 6 0 0 1-6-6z" stroke="#dd3522" stroke-width="3" fill="#fff" fill-opacity="0"/><use xlink:href="#c" transform="matrix(1,0,0,1,700,280) translate(99.15 14.4)"/><use xlink:href="#d" transform="matrix(1,0,0,1,700,280) translate(161 14.4)"/><use xlink:href="#e" transform="matrix(1,0,0,1,700,280) translate(230.9 14.4)"/><path d="M460 709a6 6 0 0 1 6-6h828a6 6 0 0 1 6 6v248a6 6 0 0 1-6 6H466a6 6 0 0 1-6-6z" stroke="#dd3522" stroke-width="3" fill="#fff" fill-opacity="0"/><use xlink:href="#f" transform="matrix(1,0,0,1,460,723) translate(336.1 14.4)"/><use xlink:href="#d" transform="matrix(1,0,0,1,460,723) translate(384.05 14.4)"/><use xlink:href="#e" transform="matrix(1,0,0,1,460,723) translate(453.95000000000005 14.4)"/><path d="M740 326a6 6 0 0 1 6-6h288a6 6 0 0 1 6 6v208a6 6 0 0 1-6 6H746a6 6 0 0 1-6-6z" stroke="#dd3522" stroke-width="3" fill="#fff" fill-opacity="0"/><use xlink:href="#g" transform="matrix(1,0,0,1,740,340) translate(22.24999999999997 14.4)"/><use xlink:href="#h" transform="matrix(1,0,0,1,740,340) translate(91.09999999999998 14.4)"/><use xlink:href="#d" transform="matrix(1,0,0,1,740,340) translate(157.9 14.4)"/><use xlink:href="#e" transform="matrix(1,0,0,1,740,340) translate(227.8 14.4)"/><path d="M798.37 804H658.5v-2h139.87zm303.13 0H961.63v-2h139.87z" stroke="#5e5e5e" stroke-width=".05" fill="#5e5e5e"/><path d="M657.5 807.64L643.25 803l14.27-4.64z" fill="#5e5e5e"/><path d="M658.5 809l-18.5-6 18.5-6zm-12.02-6l10.03 3.26v-6.52z" stroke="#5e5e5e" stroke-width=".05" fill="#5e5e5e"/><path d="M1116.76 803l-14.26 4.64v-9.28z" fill="#5e5e5e"/><path d="M1120 803l-18.5 6v-12zm-16.5 3.26l10.03-3.26-10.03-3.26z" stroke="#5e5e5e" stroke-width=".05" fill="#5e5e5e"/><use xlink:href="#i" transform="matrix(1,0,0,1,798.3739703343706,792.3333333333335) translate(0 14.222222222222223)"/><use xlink:href="#j" transform="matrix(1,0,0,1,798.3739703343706,792.3333333333335) translate(43.35802469135803 14.222222222222223)"/><use xlink:href="#k" transform="matrix(1,0,0,1,798.3739703343706,792.3333333333335) translate(83.40740740740742 14.222222222222223)"/><use xlink:href="#l" transform="matrix(1,0,0,1,798.3739703343706,792.3333333333335) translate(101.13580246913583 14.222222222222223)"/><path d="M767.14 843.2l-108.62.68-.02-2 108.64-.67zm334.36-2.08l-108.63.67v-2l108.62-.68z" stroke="#5e5e5e" stroke-width=".05" fill="#5e5e5e"/><path d="M657.54 847.53l-14.3-4.55 14.24-4.72z" fill="#5e5e5e"/><path d="M658.55 848.9L640 843l18.47-6.13zm-12.07-5.94l10.05 3.2-.04-6.52z" stroke="#5e5e5e" stroke-width=".05" fill="#5e5e5e"/><path d="M1116.76 840.02l-14.23 4.72-.06-9.27z" fill="#5e5e5e"/><path d="M1120 840l-18.46 6.13-.08-12.03zm-16.48 3.36l10-3.32-10.04-3.2z" stroke="#5e5e5e" stroke-width=".05" fill="#5e5e5e"/><use xlink:href="#i" transform="matrix(1,0,0,1,767.1394024331361,830.8333108335584) translate(0 14.222222222222223)"/><use xlink:href="#m" transform="matrix(1,0,0,1,767.1394024331361,830.8333108335584) translate(43.35802469135803 14.222222222222223)"/><use xlink:href="#n" transform="matrix(1,0,0,1,767.1394024331361,830.8333108335584) translate(183.4567901234568 14.222222222222223)"/><path d="M600 726a6 6 0 0 1 6-6h528a6 6 0 0 1 6 6v66.27a6 6 0 0 1-6 6H606a6 6 0 0 1-6-6z" stroke="#000" stroke-opacity="0" stroke-width="3" fill="#fff" fill-opacity="0"/><use xlink:href="#o" transform="matrix(1,0,0,1,605,725) translate(50.15493827160495 39.34027777777778)"/><use xlink:href="#p" transform="matrix(1,0,0,1,605,725) translate(92.06851851851853 39.34027777777778)"/><use xlink:href="#q" transform="matrix(1,0,0,1,605,725) translate(105.58703703703705 39.34027777777778)"/><use xlink:href="#r" transform="matrix(1,0,0,1,605,725) translate(119.1672839506173 39.34027777777778)"/><use xlink:href="#s" transform="matrix(1,0,0,1,605,725) translate(408.633950617284 39.34027777777778)"/><use xlink:href="#t" transform="matrix(1,0,0,1,605,725) translate(418.26358024691353 39.34027777777778)"/><use xlink:href="#u" transform="matrix(1,0,0,1,605,725) translate(474.06728395061725 39.34027777777778)"/><a xlink:href="http://kubernetes.io/cluster/&lt;cluster-name&gt;" target="_blank" transform="matrix(1,0,0,1,605,725)"><path class="lucid-link lucid-hotspot lucid-overlay-hotspot" fill-opacity="0" d="M119.17 21.56h284.65v26.67H119.17z"/></a><path d="M880.55 983.2h-2v-50.13h2zm0-71.47h-2V880h2z" stroke="#5e5e5e" stroke-width=".05" fill="#5e5e5e"/><path d="M894.55 882h-30v-2h30z" stroke="#5e5e5e" stroke-width=".05" fill="#5e5e5e"/><path d="M879.55 998.48l-4.64-14.27h9.28z" fill="#5e5e5e"/><path d="M879.55 1001.7l-6-18.5h12zm-3.26-16.5l3.25 10.04 3.26-10.03z" stroke="#5e5e5e" stroke-width=".05" fill="#5e5e5e"/><use xlink:href="#v" transform="matrix(1,0,0,1,804.6345034421599,911.7333333333333) translate(0 14.222222222222223)"/><use xlink:href="#w" transform="matrix(1,0,0,1,804.6345034421599,911.7333333333333) translate(33.48148148148149 14.222222222222223)"/><use xlink:href="#x" transform="matrix(1,0,0,1,804.6345034421599,911.7333333333333) translate(107.55555555555557 14.222222222222223)"/><path d="M904.4 1050.7h-8.48v-3.4h8.48c8.16 0 12.08-3.6 12.08-11 0-6.34-3.68-10.34-11.04-11.8-.8-.16-1.36-.82-1.36-1.58-.4-6.14-3.92-8.37-6.8-8.37-2.08.05-3.84.96-5.12 2.64-.56.7-1.6.85-2.4.3-.24-.2-.4-.46-.56-.77-1.04-3.14-2.56-5.53-4.96-7.86-5.36-5.42-12.96-6.9-20-3.85-6.32 2.9-10.24 8.72-10.48 15.72 0 .7.08 1.3.16 2.08.08.86-.48 1.62-1.28 1.82-3.44.86-9.28 3.45-9.28 11.46v.8c.4 6.04 5.44 10.35 12.08 10.35h8.48v3.4h-8.48c-8.48 0-14.96-5.68-15.44-13.5v-1.05c-.24-6.7 3.92-12.52 10.4-14.35v-1.06c.24-11.68 9.92-20.95 21.6-20.7 5.68.15 10.56 2.23 14.64 6.4 2.08 2.02 3.52 4.1 4.72 6.78 1.76-1.37 3.68-1.98 5.92-2.03 4.48 0 9.2 3.2 10.16 10.25 8.08 2.07 12.56 7.3 12.56 14.85-.08 9.33-5.6 14.45-15.6 14.45zm-18.08 0H873.6v-3.4h12.72z" stroke="#fff" stroke-opacity="0" fill="#232f3e"/><path d="M891.1 1049.1c-.47 0-.86-.16-1.18-.5l-9.58-9.57 2.4-2.42 8.36 8.33 8.37-8.38 2.4 2.42-9.57 9.56c-.32.37-.73.56-1.2.57z" stroke="#fff" stroke-opacity="0" fill="#232f3e"/><path d="M889.4 1021.85h3.4v23.95h-3.4v-23.95zM877.17 1032.65l-8.38-8.38-8.38 8.38-2.4-2.42 9.57-9.56c.66-.67 1.7-.67 2.38 0l9.58 9.56z" stroke="#fff" stroke-opacity="0" fill="#232f3e"/><path d="M867.1 1021.85h3.4v28.75h-3.4v-28.75z" stroke="#fff" stroke-opacity="0" fill="#232f3e"/><path d="M904.4 1050.7h-48.95c-8.48 0-14.95-5.68-15.43-13.48v-1.07c-.24-6.74 3.92-12.5 10.4-14.4v-1.05-.8c.55-8.12 5.2-14.7 12.55-18.06 8.23-3.54 17.27-1.82 23.6 4.57 2.15 2.08 3.6 4.16 4.8 6.8 1.74-1.32 3.66-1.98 5.9-1.98 4.48 0 9.2 3.2 10.16 10.24 8.15 2.02 12.55 7.3 12.55 14.85-.08 9.28-5.6 14.4-15.6 14.4zm-32.96-47.18c-2.63 0-4.87.45-7.27 1.47-6.32 2.93-10.16 8.75-10.4 15.7 0 .76 0 1.42.16 2.13.08.86-.48 1.67-1.28 1.87-3.44.86-9.27 3.4-9.27 11.45v.92c.32 5.93 5.43 10.18 12.07 10.18h48.94c8.15 0 12.06-3.6 12.06-11 0-6.33-3.67-10.33-11.03-11.8-.8-.15-1.28-.8-1.36-1.57-.32-6.2-3.92-8.37-6.8-8.37-2.08.07-3.84.98-5.12 2.65-.55.7-1.6.86-2.4.3-.23-.2-.4-.45-.55-.76-1.04-3.1-2.56-5.53-4.96-7.86-3.52-3.55-7.76-5.32-12.8-5.32z" stroke="#fff" stroke-opacity="0" fill="#fff" fill-opacity="0"/><use xlink:href="#y" transform="matrix(1,0,0,1,810,1059.7) translate(39.81481481481482 17.77777777777778)"/><use xlink:href="#z" transform="matrix(1,0,0,1,810,1059.7) translate(32.376543209876544 44.44444444444444)"/><path d="M1100 334.33a6 6 0 0 1 6-6h328a6 6 0 0 1 6 6v211.34a6 6 0 0 1-6 6h-328a6 6 0 0 1-6-6z" stroke="#000" stroke-opacity="0" stroke-width="3" fill="#fff" fill-opacity="0"/><use xlink:href="#A" transform="matrix(1,0,0,1,1105,333.3333333333333) translate(0 49.4375)"/><use xlink:href="#B" transform="matrix(1,0,0,1,1105,333.3333333333333) translate(76.5 49.4375)"/><use xlink:href="#C" transform="matrix(1,0,0,1,1105,333.3333333333333) translate(150.7222222222222 49.4375)"/><use xlink:href="#D" transform="matrix(1,0,0,1,1105,333.3333333333333) translate(228.38888888888886 49.4375)"/><use xlink:href="#E" transform="matrix(1,0,0,1,1105,333.3333333333333) translate(289.4444444444444 49.4375)"/><use xlink:href="#F" transform="matrix(1,0,0,1,1105,333.3333333333333) translate(309.38888888888886 49.4375)"/><use xlink:href="#G" transform="matrix(1,0,0,1,1105,333.3333333333333) translate(0 73.4375)"/><use xlink:href="#H" transform="matrix(1,0,0,1,1105,333.3333333333333) translate(74.33333333333331 73.4375)"/><use xlink:href="#I" transform="matrix(1,0,0,1,1105,333.3333333333333) translate(130.9444444444444 73.4375)"/><use xlink:href="#J" transform="matrix(1,0,0,1,1105,333.3333333333333) translate(252.9444444444444 73.4375)"/><use xlink:href="#K" transform="matrix(1,0,0,1,1105,333.3333333333333) translate(0 97.4375)"/><use xlink:href="#L" transform="matrix(1,0,0,1,1105,333.3333333333333) translate(28.83333333333333 97.4375)"/><use xlink:href="#M" transform="matrix(1,0,0,1,1105,333.3333333333333) translate(62.16666666666666 97.4375)"/><use xlink:href="#N" transform="matrix(1,0,0,1,1105,333.3333333333333) translate(126.49999999999997 97.4375)"/><use xlink:href="#O" transform="matrix(1,0,0,1,1105,333.3333333333333) translate(153.16666666666663 97.4375)"/><use xlink:href="#P" transform="matrix(1,0,0,1,1105,333.3333333333333) translate(204.27777777777774 97.4375)"/><use xlink:href="#Q" transform="matrix(1,0,0,1,1105,333.3333333333333) translate(247.49999999999994 97.4375)"/><use xlink:href="#H" transform="matrix(1,0,0,1,1105,333.3333333333333) translate(0 121.4375)"/><use xlink:href="#R" transform="matrix(1,0,0,1,1105,333.3333333333333) translate(56.6111111111111 121.4375)"/><use xlink:href="#E" transform="matrix(1,0,0,1,1105,333.3333333333333) translate(82.11111111111109 121.4375)"/><use xlink:href="#S" transform="matrix(1,0,0,1,1105,333.3333333333333) translate(102.05555555555553 121.4375)"/><use xlink:href="#T" transform="matrix(1,0,0,1,1105,333.3333333333333) translate(165.3333333333333 121.4375)"/><use xlink:href="#L" transform="matrix(1,0,0,1,1105,333.3333333333333) translate(186.38888888888883 121.4375)"/><use xlink:href="#U" transform="matrix(1,0,0,1,1105,333.3333333333333) translate(219.72222222222217 121.4375)"/><use xlink:href="#V" transform="matrix(1,0,0,1,1105,333.3333333333333) translate(0 147.21527777777777)"/><use xlink:href="#W" transform="matrix(1,0,0,1,1105,333.3333333333333) translate(0 170.95572916666666)"/><path d="M340 666a6 6 0 0 1 6-6h68a6 6 0 0 1 6 6v328a6 6 0 0 1-6 6h-68a6 6 0 0 1-6-6z" fill="none"/><path d="M420 1000c-5.52 0-10-4.48-10-10V840c0-5.52-4.48-10-10-10 5.52 0 10-4.48 10-10V670c0-5.52 4.48-10 10-10" stroke="#008a0e" stroke-width="3" fill="none"/><g><use xlink:href="#X" transform="matrix(1,0,0,1,345,665) translate(-6.851851851851848 156.11111111111111)"/><use xlink:href="#Y" transform="matrix(1,0,0,1,345,665) translate(-16.728395061728385 182.77777777777777)"/></g><path d="M340 256a6 6 0 0 1 6-6h68a6 6 0 0 1 6 6v328a6 6 0 0 1-6 6h-68a6 6 0 0 1-6-6z" fill="none"/><path d="M420 590c-5.52 0-10-4.48-10-10V430c0-5.52-4.48-10-10-10 5.52 0 10-4.48 10-10V260c0-5.52 4.48-10 10-10" stroke="#1071e5" stroke-width="3" fill="none"/><g><use xlink:href="#Z" transform="matrix(1,0,0,1,345,255) translate(-31.41975308641976 156.11111111111111)"/><use xlink:href="#aa" transform="matrix(1,0,0,1,345,255) translate(-16.728395061728385 182.77777777777777)"/></g><path d="M1022.5 683.02h-2v-26.5h2zm0-69.16h-2v-32.42h2z" stroke="#5e5e5e" stroke-width=".05" fill="#5e5e5e"/><path d="M1036.5 583.44h-30v-2h30z" stroke="#5e5e5e" stroke-width=".05" fill="#5e5e5e"/><path d="M1021.5 698.3l-4.65-14.28h9.27z" fill="#5e5e5e"/><path d="M1021.5 701.52l-6.03-18.5h12.03zm-3.27-16.5l3.26 10.03 3.24-10.03z" stroke="#5e5e5e" stroke-width=".05" fill="#5e5e5e"/><g><use xlink:href="#ab" transform="matrix(1,0,0,1,976.5967152972673,613.8625717815738) translate(0.005000000000002558 14.222222222222223)"/><use xlink:href="#ac" transform="matrix(1,0,0,1,976.5967152972673,613.8625717815738) translate(6.523518518518522 35.55555555555556)"/></g><path d="M891 683.03h-2v-30.86h2zm0-52.2h-2v-30.86h2z" stroke="#5e5e5e" stroke-width=".05" fill="#5e5e5e"/><path d="M894.64 598.97h-9.28L890 584.7z" fill="#5e5e5e"/><path d="M896 599.97h-12l6-18.5zm-9.26-2h6.52L890 587.94z" stroke="#5e5e5e" stroke-width=".05" fill="#5e5e5e"/><path d="M890 698.3l-4.64-14.27h9.28z" fill="#5e5e5e"/><path d="M890 701.54l-6-18.5h12zm-3.26-16.5l3.26 10.02 3.26-10.03z" stroke="#5e5e5e" stroke-width=".05" fill="#5e5e5e"/><g><use xlink:href="#ad" transform="matrix(1,0,0,1,854.9876543209876,630.8329133647177) translate(0 14.222222222222223)"/></g><path d="M572.7 431H553.7v-2h18.97zm165.84 0H675.3v-2h63.24z" stroke="#5e5e5e" stroke-width=".05" fill="#5e5e5e"/><path d="M738.54 445h-2v-30h2z" stroke="#5e5e5e" stroke-width=".05" fill="#5e5e5e"/><path d="M552.72 434.64L538.46 430l14.26-4.64z" fill="#5e5e5e"/><path d="M553.72 436l-18.5-6 18.5-6zm-12.03-6l10.02 3.26v-6.52z" stroke="#5e5e5e" stroke-width=".05" fill="#5e5e5e"/><g><use xlink:href="#v" transform="matrix(1,0,0,1,572.6913580246913,419.3333333333333) translate(0 14.222222222222223)"/><use xlink:href="#ae" transform="matrix(1,0,0,1,572.6913580246913,419.3333333333333) translate(33.48148148148149 14.222222222222223)"/></g><path d="M524.4 455.35h-8.48v-3.4h8.48c8.16 0 12.08-3.6 12.08-11 0-6.34-3.68-10.34-11.04-11.8-.8-.16-1.36-.82-1.36-1.58-.4-6.14-3.92-8.37-6.8-8.37-2.08.05-3.84.96-5.12 2.64-.56.7-1.6.86-2.4.3-.24-.2-.4-.45-.56-.76-1.04-3.14-2.56-5.53-4.96-7.86-5.36-5.42-12.96-6.9-20-3.85-6.32 2.9-10.24 8.72-10.48 15.72 0 .7.08 1.3.16 2.06.08.87-.48 1.63-1.28 1.83-3.44.85-9.28 3.44-9.28 11.45v.8c.4 6.04 5.44 10.35 12.08 10.35h8.48v3.4h-8.48c-8.48 0-14.96-5.68-15.44-13.5v-1.05c-.24-6.7 3.92-12.52 10.4-14.35v-1.06c.24-11.67 9.92-20.94 21.6-20.7 5.68.16 10.56 2.24 14.64 6.4 2.08 2.03 3.52 4.1 4.72 6.8 1.76-1.38 3.68-2 5.92-2.04 4.48 0 9.2 3.2 10.16 10.25 8.08 2.07 12.56 7.3 12.56 14.85-.08 9.33-5.6 14.45-15.6 14.45zm-18.08 0H493.6v-3.4h12.72z" stroke="#fff" stroke-opacity="0" fill="#232f3e"/><path d="M511.1 453.75c-.47 0-.86-.16-1.18-.5l-9.58-9.57 2.4-2.42 8.36 8.32 8.37-8.38 2.4 2.42-9.57 9.56c-.32.37-.73.56-1.2.57z" stroke="#fff" stroke-opacity="0" fill="#232f3e"/><path d="M509.4 426.5h3.4v23.95h-3.4V426.5zM497.17 437.3l-8.38-8.38-8.38 8.38-2.4-2.42 9.57-9.56c.66-.67 1.7-.67 2.38 0l9.58 9.56z" stroke="#fff" stroke-opacity="0" fill="#232f3e"/><path d="M487.1 426.5h3.4v28.75h-3.4V426.5z" stroke="#fff" stroke-opacity="0" fill="#232f3e"/><path d="M524.4 455.35h-48.95c-8.48 0-14.95-5.68-15.43-13.48v-1.07c-.24-6.74 3.92-12.5 10.4-14.4v-1.05-.8c.55-8.12 5.2-14.7 12.55-18.06 8.23-3.55 17.27-1.83 23.6 4.56 2.15 2.07 3.6 4.15 4.8 6.8 1.74-1.33 3.66-2 5.9-2 4.48 0 9.2 3.2 10.16 10.25 8.15 2.03 12.55 7.3 12.55 14.86-.08 9.27-5.6 14.4-15.6 14.4zm-32.96-47.18c-2.63 0-4.87.45-7.27 1.47-6.32 2.94-10.16 8.76-10.4 15.7 0 .77 0 1.43.16 2.14.08.86-.48 1.67-1.28 1.87-3.44.86-9.27 3.4-9.27 11.45v.92c.32 5.93 5.43 10.18 12.07 10.18h48.94c8.15 0 12.06-3.6 12.06-11 0-6.33-3.67-10.33-11.03-11.8-.8-.15-1.28-.8-1.36-1.57-.32-6.2-3.92-8.37-6.8-8.37-2.08.06-3.84.97-5.12 2.64-.55.7-1.6.86-2.4.3-.23-.2-.4-.45-.55-.76-1.04-3.1-2.56-5.52-4.96-7.85-3.52-3.56-7.76-5.33-12.8-5.33z" stroke="#fff" stroke-opacity="0" fill="#fff" fill-opacity="0"/><g><use xlink:href="#af" transform="matrix(1,0,0,1,430,464.34999999999997) translate(39.81481481481482 17.77777777777778)"/><use xlink:href="#ag" transform="matrix(1,0,0,1,430,464.34999999999997) translate(32.376543209876544 44.44444444444444)"/></g><path d="M761.05 683.05h-2v-17.07h2zm0-81.07h-2v-20.5h2z" stroke="#5e5e5e" stroke-width=".05" fill="#5e5e5e"/><path d="M775.05 583.5h-30v-2h30z" stroke="#5e5e5e" stroke-width=".05" fill="#5e5e5e"/><path d="M760.05 698.3l-4.63-14.25h9.27z" fill="#5e5e5e"/><path d="M760.05 701.55l-6-18.5h12zm-3.26-16.5l3.25 10.03 3.26-10.03z" stroke="#5e5e5e" stroke-width=".05" fill="#5e5e5e"/><g><use xlink:href="#ah" transform="matrix(1,0,0,1,720.1025860778699,601.9836991891153) translate(0.005000000000002558 14.222222222222223)"/><use xlink:href="#ai" transform="matrix(1,0,0,1,720.1025860778699,601.9836991891153) translate(0.005000000000002558 35.55555555555556)"/><use xlink:href="#aj" transform="matrix(1,0,0,1,720.1025860778699,601.9836991891153) translate(18.81981481481482 56.88888888888889)"/></g><path d="M1274.12 827.24c3.24 0 5.88 2.64 5.88 5.88v51.24c0 3.12-2.52 5.64-5.64 5.64h-51.48c-3.12 0-5.64-2.52-5.64-5.64v-51.24c0-3.24 2.64-5.88 5.88-5.88zm.24 57.24l.12-51.36c0-.24-.12-.36-.36-.36h-51c-.24 0-.36.12-.36.36v51.24zm-82.32-28.56h20.64v5.4h-20.64c-3.12 0-5.76-2.52-5.76-5.76v-51.12c0-3.24 2.64-5.76 5.76-5.76h51.12c3.24 0 5.88 2.52 5.88 5.76v18.36h-5.52v-18.36c0-.24-.12-.36-.36-.36h-51.12c-.12 0-.36.12-.36.36v51.12c0 .24.24.36.36.36zm-26.16-28.68h15.96v5.52h-15.96c-3.24 0-5.88-2.64-5.88-5.88v-51c0-3.24 2.64-5.88 5.88-5.88h51c3.24 0 5.88 2.64 5.88 5.88v18.36h-5.52v-18.36c0-.24-.12-.36-.36-.36h-51c-.24 0-.36.12-.36.36v51c0 .24.12.36.36.36z" stroke="#000" stroke-opacity="0" fill="#d45b07"/><path d="M1163.54 773.5v56.58H1189v28.58h31.46v28.23h56.24v-56.6h-31.35v-28.23h-25.57V773.5z" stroke="#000" stroke-opacity="0" fill-opacity="0"/><g><use xlink:href="#ak" transform="matrix(1,0,0,1,1130,899) translate(41.05 14.4)"/><use xlink:href="#al" transform="matrix(1,0,0,1,1130,899) translate(89 14.4)"/></g><path d="M594.12 830.24c3.24 0 5.88 2.64 5.88 5.88v51.24c0 3.12-2.52 5.64-5.64 5.64h-51.48c-3.12 0-5.64-2.52-5.64-5.64v-51.24c0-3.24 2.64-5.88 5.88-5.88zm.24 57.24l.12-51.36c0-.24-.12-.36-.36-.36h-51c-.24 0-.36.12-.36.36v51.24zm-82.32-28.56h20.64v5.4h-20.64c-3.12 0-5.76-2.52-5.76-5.76v-51.12c0-3.24 2.64-5.76 5.76-5.76h51.12c3.24 0 5.88 2.52 5.88 5.76v18.36h-5.52v-18.36c0-.24-.12-.36-.36-.36h-51.12c-.12 0-.36.12-.36.36v51.12c0 .24.24.36.36.36zm-26.16-28.68h15.96v5.52h-15.96c-3.24 0-5.88-2.64-5.88-5.88v-51c0-3.24 2.64-5.88 5.88-5.88h51c3.24 0 5.88 2.64 5.88 5.88v18.36h-5.52v-18.36c0-.24-.12-.36-.36-.36h-51c-.24 0-.36.12-.36.36v51c0 .24.12.36.36.36z" stroke="#000" stroke-opacity="0" fill="#d45b07"/><path d="M483.54 776.5v56.58H509v28.58h31.46v28.23h56.24v-56.6h-31.35v-28.23h-25.57V776.5z" stroke="#000" stroke-opacity="0" fill-opacity="0"/><g><use xlink:href="#ak" transform="matrix(1,0,0,1,450,902) translate(41.05 14.4)"/><use xlink:href="#al" transform="matrix(1,0,0,1,450,902) translate(89 14.4)"/></g><defs><linearGradient gradientUnits="userSpaceOnUse" id="a" x1="820" y1="500" x2="940" y2="380"><stop offset="0%" stop-color="#c8511b"/><stop offset="100%" stop-color="#f90"/></linearGradient><path d="M30 0v-248h187v28H63v79h144v27H63v87h162V0H30" id="am"/><path d="M194 0L95-120 63-95V0H30v-248h33v124l119-124h40L117-140 236 0h-42" id="an"/><path d="M185-189c-5-48-123-54-124 2 14 75 158 14 163 119 3 78-121 87-175 55-17-10-28-26-33-46l33-7c5 56 141 63 141-1 0-78-155-14-162-118-5-82 145-84 179-34 5 7 8 16 11 25" id="ao"/><g id="b"><use transform="matrix(0.05,0,0,0.05,0,0)" xlink:href="#am"/><use transform="matrix(0.05,0,0,0.05,12,0)" xlink:href="#an"/><use transform="matrix(0.05,0,0,0.05,24,0)" xlink:href="#ao"/></g><path fill="#dd3522" d="M212-179c-10-28-35-45-73-45-59 0-87 40-87 99 0 60 29 101 89 101 43 0 62-24 78-52l27 14C228-24 195 4 139 4 59 4 22-46 18-125c-6-104 99-153 187-111 19 9 31 26 39 46" id="ap"/><path fill="#dd3522" d="M24 0v-261h32V0H24" id="aq"/><path fill="#dd3522" d="M84 4C-5 8 30-112 23-190h32v120c0 31 7 50 39 49 72-2 45-101 50-169h31l1 190h-30c-1-10 1-25-2-33-11 22-28 36-60 37" id="ar"/><path fill="#dd3522" d="M135-143c-3-34-86-38-87 0 15 53 115 12 119 90S17 21 10-45l28-5c4 36 97 45 98 0-10-56-113-15-118-90-4-57 82-63 122-42 12 7 21 19 24 35" id="as"/><path fill="#dd3522" d="M59-47c-2 24 18 29 38 22v24C64 9 27 4 27-40v-127H5v-23h24l9-43h21v43h35v23H59v120" id="at"/><path fill="#dd3522" d="M100-194c63 0 86 42 84 106H49c0 40 14 67 53 68 26 1 43-12 49-29l28 8c-11 28-37 45-77 45C44 4 14-33 15-96c1-61 26-98 85-98zm52 81c6-60-76-77-97-28-3 7-6 17-6 28h103" id="au"/><path fill="#dd3522" d="M114-163C36-179 61-72 57 0H25l-1-190h30c1 12-1 29 2 39 6-27 23-49 58-41v29" id="av"/><g id="c"><use transform="matrix(0.05,0,0,0.05,0,0)" xlink:href="#ap"/><use transform="matrix(0.05,0,0,0.05,12.950000000000001,0)" xlink:href="#aq"/><use transform="matrix(0.05,0,0,0.05,16.900000000000002,0)" xlink:href="#ar"/><use transform="matrix(0.05,0,0,0.05,26.900000000000002,0)" xlink:href="#as"/><use transform="matrix(0.05,0,0,0.05,35.900000000000006,0)" xlink:href="#at"/><use transform="matrix(0.05,0,0,0.05,40.900000000000006,0)" xlink:href="#au"/><use transform="matrix(0.05,0,0,0.05,50.900000000000006,0)" xlink:href="#av"/></g><path fill="#dd3522" d="M185-189c-5-48-123-54-124 2 14 75 158 14 163 119 3 78-121 87-175 55-17-10-28-26-33-46l33-7c5 56 141 63 141-1 0-78-155-14-162-118-5-82 145-84 179-34 5 7 8 16 11 25" id="aw"/><path fill="#dd3522" d="M96-169c-40 0-48 33-48 73s9 75 48 75c24 0 41-14 43-38l32 2c-6 37-31 61-74 61-59 0-76-41-82-99-10-93 101-131 147-64 4 7 5 14 7 22l-32 3c-4-21-16-35-41-35" id="ax"/><path fill="#dd3522" d="M24-231v-30h32v30H24zM24 0v-190h32V0H24" id="ay"/><path fill="#dd3522" d="M179-190L93 31C79 59 56 82 12 73V49c39 6 53-20 64-50L1-190h34L92-34l54-156h33" id="az"/><g id="d"><use transform="matrix(0.05,0,0,0.05,0,0)" xlink:href="#aw"/><use transform="matrix(0.05,0,0,0.05,12,0)" xlink:href="#au"/><use transform="matrix(0.05,0,0,0.05,22,0)" xlink:href="#ax"/><use transform="matrix(0.05,0,0,0.05,31,0)" xlink:href="#ar"/><use transform="matrix(0.05,0,0,0.05,41,0)" xlink:href="#av"/><use transform="matrix(0.05,0,0,0.05,46.95,0)" xlink:href="#ay"/><use transform="matrix(0.05,0,0,0.05,50.900000000000006,0)" xlink:href="#at"/><use transform="matrix(0.05,0,0,0.05,55.900000000000006,0)" xlink:href="#az"/></g><path fill="#dd3522" d="M143 4C61 4 22-44 18-125c-5-107 100-154 193-111 17 8 29 25 37 43l-32 9c-13-25-37-40-76-40-61 0-88 39-88 99 0 61 29 100 91 101 35 0 62-11 79-27v-45h-74v-28h105v86C228-13 192 4 143 4" id="aA"/><path fill="#dd3522" d="M100-194c62-1 85 37 85 99 1 63-27 99-86 99S16-35 15-95c0-66 28-99 85-99zM99-20c44 1 53-31 53-75 0-43-8-75-51-75s-53 32-53 75 10 74 51 75" id="aB"/><path fill="#dd3522" d="M115-194c55 1 70 41 70 98S169 2 115 4C84 4 66-9 55-30l1 105H24l-1-265h31l2 30c10-21 28-34 59-34zm-8 174c40 0 45-34 45-75s-6-73-45-74c-42 0-51 32-51 76 0 43 10 73 51 73" id="aC"/><g id="e"><use transform="matrix(0.05,0,0,0.05,0,0)" xlink:href="#aA"/><use transform="matrix(0.05,0,0,0.05,14,0)" xlink:href="#av"/><use transform="matrix(0.05,0,0,0.05,19.95,0)" xlink:href="#aB"/><use transform="matrix(0.05,0,0,0.05,29.950000000000003,0)" xlink:href="#ar"/><use transform="matrix(0.05,0,0,0.05,39.95,0)" xlink:href="#aC"/></g><path fill="#dd3522" d="M190 0L58-211 59 0H30v-248h39L202-35l-2-213h31V0h-41" id="aD"/><path fill="#dd3522" d="M85-194c31 0 48 13 60 33l-1-100h32l1 261h-30c-2-10 0-23-3-31C134-8 116 4 85 4 32 4 16-35 15-94c0-66 23-100 70-100zm9 24c-40 0-46 34-46 75 0 40 6 74 45 74 42 0 51-32 51-76 0-42-9-74-50-73" id="aE"/><g id="f"><use transform="matrix(0.05,0,0,0.05,0,0)" xlink:href="#aD"/><use transform="matrix(0.05,0,0,0.05,12.950000000000001,0)" xlink:href="#aB"/><use transform="matrix(0.05,0,0,0.05,22.950000000000003,0)" xlink:href="#aE"/><use transform="matrix(0.05,0,0,0.05,32.95,0)" xlink:href="#au"/></g><path fill="#dd3522" d="M80-196l47-18 7 23-49 13 32 44-20 13-27-46-27 45-21-12 33-44-49-13 8-23 47 19-2-53h23" id="aF"/><g id="g"><use transform="matrix(0.05,0,0,0.05,0,0)" xlink:href="#aF"/><use transform="matrix(0.05,0,0,0.05,7,0)" xlink:href="#ap"/><use transform="matrix(0.05,0,0,0.05,19.950000000000003,0)" xlink:href="#aq"/><use transform="matrix(0.05,0,0,0.05,23.900000000000002,0)" xlink:href="#ar"/><use transform="matrix(0.05,0,0,0.05,33.900000000000006,0)" xlink:href="#as"/><use transform="matrix(0.05,0,0,0.05,42.900000000000006,0)" xlink:href="#at"/><use transform="matrix(0.05,0,0,0.05,47.900000000000006,0)" xlink:href="#au"/><use transform="matrix(0.05,0,0,0.05,57.900000000000006,0)" xlink:href="#av"/></g><path fill="#dd3522" d="M30-248c87 1 191-15 191 75 0 78-77 80-158 76V0H30v-248zm33 125c57 0 124 11 124-50 0-59-68-47-124-48v98" id="aG"/><path fill="#dd3522" d="M210-169c-67 3-38 105-44 169h-31v-121c0-29-5-50-35-48C34-165 62-65 56 0H25l-1-190h30c1 10-1 24 2 32 10-44 99-50 107 0 11-21 27-35 58-36 85-2 47 119 55 194h-31v-121c0-29-5-49-35-48" id="aH"/><path fill="#dd3522" d="M141-36C126-15 110 5 73 4 37 3 15-17 15-53c-1-64 63-63 125-63 3-35-9-54-41-54-24 1-41 7-42 31l-33-3c5-37 33-52 76-52 45 0 72 20 72 64v82c-1 20 7 32 28 27v20c-31 9-61-2-59-35zM48-53c0 20 12 33 32 33 41-3 63-29 60-74-43 2-92-5-92 41" id="aI"/><g id="h"><use transform="matrix(0.05,0,0,0.05,0,0)" xlink:href="#aG"/><use transform="matrix(0.05,0,0,0.05,12,0)" xlink:href="#av"/><use transform="matrix(0.05,0,0,0.05,17.95,0)" xlink:href="#ay"/><use transform="matrix(0.05,0,0,0.05,21.9,0)" xlink:href="#aH"/><use transform="matrix(0.05,0,0,0.05,36.85,0)" xlink:href="#aI"/><use transform="matrix(0.05,0,0,0.05,46.85,0)" xlink:href="#av"/><use transform="matrix(0.05,0,0,0.05,52.800000000000004,0)" xlink:href="#az"/></g><path fill="#333" d="M169-182c-1-43-94-46-97-3 18 66 151 10 154 114 3 95-165 93-204 36-6-8-10-19-12-30l50-8c3 46 112 56 116 5-17-69-150-10-154-114-4-87 153-88 188-35 5 8 8 18 10 28" id="aJ"/><path fill="#333" d="M185-48c-13 30-37 53-82 52C43 2 14-33 14-96s30-98 90-98c62 0 83 45 84 108H66c0 31 8 55 39 56 18 0 30-7 34-22zm-45-69c5-46-57-63-70-21-2 6-4 13-4 21h74" id="aK"/><path fill="#333" d="M25 0v-261h50V0H25" id="aL"/><path fill="#333" d="M121-226c-27-7-43 5-38 36h38v33H83V0H34v-157H6v-33h28c-9-59 32-81 87-68v32" id="aM"/><path fill="#333" d="M35-132v-50h50v50H35zM35 0v-49h50V0H35" id="aN"/><g id="i"><use transform="matrix(0.04938271604938272,0,0,0.04938271604938272,0,0)" xlink:href="#aJ"/><use transform="matrix(0.04938271604938272,0,0,0.04938271604938272,11.851851851851853,0)" xlink:href="#aK"/><use transform="matrix(0.04938271604938272,0,0,0.04938271604938272,21.7283950617284,0)" xlink:href="#aL"/><use transform="matrix(0.04938271604938272,0,0,0.04938271604938272,26.666666666666668,0)" xlink:href="#aM"/><use transform="matrix(0.04938271604938272,0,0,0.04938271604938272,32.543209876543216,0)" xlink:href="#aN"/></g><path fill="#333" d="M136-208V0H84v-208H4v-40h212v40h-80" id="aO"/><path fill="#333" d="M67-125c0 53 21 87 73 88 37 1 54-22 65-47l45 17C233-25 199 4 140 4 58 4 20-42 15-125 8-235 124-281 211-232c18 10 29 29 36 50l-46 12c-8-25-30-41-62-41-52 0-71 34-72 86" id="aP"/><path fill="#333" d="M24-248c93 1 206-16 204 79-1 75-69 88-152 82V0H24v-248zm52 121c47 0 100 7 100-41 0-47-54-39-100-39v80" id="aQ"/><g id="j"><use transform="matrix(0.04938271604938272,0,0,0.04938271604938272,0,0)" xlink:href="#aO"/><use transform="matrix(0.04938271604938272,0,0,0.04938271604938272,10.814814814814815,0)" xlink:href="#aP"/><use transform="matrix(0.04938271604938272,0,0,0.04938271604938272,23.60493827160494,0)" xlink:href="#aQ"/></g><path fill="#333" d="M168-19C124 19 11 11 16-68c3-43 29-60 59-75-25-44-12-111 53-106 37 3 64 15 64 52 0 43-40 52-69 68 12 22 27 41 43 59 14-19 21-38 28-64l37 13c-8 29-19 52-34 74 12 10 32 16 52 10v35c-28 11-65-2-81-17zm-58-139c19-9 43-14 43-39 0-14-10-22-25-22-34 0-33 41-18 61zM60-68c-3 40 55 47 79 25-18-20-34-42-48-67-18 8-30 20-31 42" id="aR"/><use transform="matrix(0.04938271604938272,0,0,0.04938271604938272,0,0)" xlink:href="#aR" id="k"/><path fill="#333" d="M238-95c0 69-44 99-111 99C63 4 22-25 22-93v-155h51v151c-1 38 19 59 55 60 90 1 49-130 58-211h52v153" id="aS"/><path fill="#333" d="M24-248c120-7 223 5 221 122C244-46 201 0 124 0H24v-248zM76-40c74 7 117-18 117-86 0-67-45-88-117-82v168" id="aT"/><path fill="#333" d="M4 7l51-268h42L46 7H4" id="aU"/><path fill="#333" d="M139-81c0-46-55-55-73-27H18l9-140h149v37H72l-4 63c44-38 133-4 122 66C201 21 21 35 11-62l49-4c5 18 15 30 39 30 26 0 40-18 40-45" id="aV"/><path fill="#333" d="M128-127c34 4 56 21 59 58 7 91-148 94-172 28-4-9-6-17-7-26l51-5c1 24 16 35 40 36 23 0 39-12 38-36-1-31-31-36-65-34v-40c32 2 59-3 59-33 0-20-13-33-34-33s-33 13-35 32l-50-3c6-44 37-68 86-68 50 0 83 20 83 66 0 35-22 52-53 58" id="aW"/><g id="l"><use transform="matrix(0.04938271604938272,0,0,0.04938271604938272,0,0)" xlink:href="#aS"/><use transform="matrix(0.04938271604938272,0,0,0.04938271604938272,12.790123456790125,0)" xlink:href="#aT"/><use transform="matrix(0.04938271604938272,0,0,0.04938271604938272,25.58024691358025,0)" xlink:href="#aQ"/><use transform="matrix(0.04938271604938272,0,0,0.04938271604938272,37.4320987654321,0)" xlink:href="#aU"/><use transform="matrix(0.04938271604938272,0,0,0.04938271604938272,42.370370370370374,0)" xlink:href="#aV"/><use transform="matrix(0.04938271604938272,0,0,0.04938271604938272,52.24691358024692,0)" xlink:href="#aW"/></g><path fill="#333" d="M23 0v-37h61v-169l-59 37v-38l62-41h46v211h57V0H23" id="aX"/><path fill="#333" d="M101-251c68 0 84 54 84 127C185-50 166 4 99 4S15-52 14-124c-1-75 17-127 87-127zm-1 216c37-5 36-46 36-89s4-89-36-89c-39 0-36 45-36 89 0 43-3 85 36 89" id="aY"/><path fill="#333" d="M182-182c0 78-84 86-111 141h115V0H12c-6-101 99-100 120-180 1-22-12-31-33-32-23 0-32 14-35 34l-49-3c5-45 32-70 84-70 51 0 83 22 83 69" id="aZ"/><path fill="#333" d="M14-72v-43h91v43H14" id="ba"/><path fill="#333" d="M115-159c48 0 72 30 72 78 0 54-30 85-83 85-64 0-91-50-91-122 0-98 58-163 141-120 15 8 21 24 27 44l-47 6c-5-31-48-31-61-4-7 14-11 33-11 60 9-17 28-27 53-27zM102-35c24 0 36-20 36-45s-11-43-37-43c-23 0-36 14-36 38 0 27 11 50 37 50" id="bb"/><g id="m"><use transform="matrix(0.04938271604938272,0,0,0.04938271604938272,0,0)" xlink:href="#aO"/><use transform="matrix(0.04938271604938272,0,0,0.04938271604938272,10.814814814814815,0)" xlink:href="#aP"/><use transform="matrix(0.04938271604938272,0,0,0.04938271604938272,23.60493827160494,0)" xlink:href="#aQ"/><use transform="matrix(0.04938271604938272,0,0,0.04938271604938272,35.45679012345679,0)" xlink:href="#aU"/><use transform="matrix(0.04938271604938272,0,0,0.04938271604938272,40.39506172839506,0)" xlink:href="#aX"/><use transform="matrix(0.04938271604938272,0,0,0.04938271604938272,50.27160493827161,0)" xlink:href="#aY"/><use transform="matrix(0.04938271604938272,0,0,0.04938271604938272,60.14814814814815,0)" xlink:href="#aZ"/><use transform="matrix(0.04938271604938272,0,0,0.04938271604938272,70.0246913580247,0)" xlink:href="#aV"/><use transform="matrix(0.04938271604938272,0,0,0.04938271604938272,79.90123456790124,0)" xlink:href="#ba"/><use transform="matrix(0.04938271604938272,0,0,0.04938271604938272,85.77777777777779,0)" xlink:href="#bb"/><use transform="matrix(0.04938271604938272,0,0,0.04938271604938272,95.65432098765433,0)" xlink:href="#aV"/><use transform="matrix(0.04938271604938272,0,0,0.04938271604938272,105.53086419753087,0)" xlink:href="#aV"/><use transform="matrix(0.04938271604938272,0,0,0.04938271604938272,115.40740740740742,0)" xlink:href="#aW"/><use transform="matrix(0.04938271604938272,0,0,0.04938271604938272,125.28395061728396,0)" xlink:href="#aV"/></g><path fill="#333" d="M20 75v-336h95v34H67V41h48v34H20" id="bc"/><path fill="#333" d="M140-251c80 0 125 45 125 126S219 4 139 4C58 4 15-44 15-125s44-126 125-126zm-1 214c52 0 73-35 73-88 0-50-21-86-72-86-52 0-73 35-73 86s22 88 72 88" id="bd"/><path fill="#333" d="M135-194c53 0 70 44 70 98 0 56-19 98-73 100-31 1-45-17-59-34 3 33 2 69 2 105H25l-1-265h48c2 10 0 23 3 31 11-24 29-35 60-35zM114-30c33 0 39-31 40-66 0-38-9-64-40-64-56 0-55 130 0 130" id="be"/><path fill="#333" d="M115-3C79 11 28 4 28-45v-112H4v-33h27l15-45h31v45h36v33H77v99c-1 23 16 31 38 25v30" id="bf"/><path fill="#333" d="M4 75V41h49v-268H4v-34h96V75H4" id="bg"/><g id="n"><use transform="matrix(0.04938271604938272,0,0,0.04938271604938272,0,0)" xlink:href="#bc"/><use transform="matrix(0.04938271604938272,0,0,0.04938271604938272,5.8765432098765435,0)" xlink:href="#bd"/><use transform="matrix(0.04938271604938272,0,0,0.04938271604938272,19.703703703703706,0)" xlink:href="#be"/><use transform="matrix(0.04938271604938272,0,0,0.04938271604938272,30.518518518518523,0)" xlink:href="#bf"/><use transform="matrix(0.04938271604938272,0,0,0.04938271604938272,36.39506172839506,0)" xlink:href="#bg"/></g><path fill="#333" d="M127-220V0H93v-220H8v-28h204v28h-85" id="bh"/><path fill="#333" d="M141-36C126-15 110 5 73 4 37 3 15-17 15-53c-1-64 63-63 125-63 3-35-9-54-41-54-24 1-41 7-42 31l-33-3c5-37 33-52 76-52 45 0 72 20 72 64v82c-1 20 7 32 28 27v20c-31 9-61-2-59-35zM48-53c0 20 12 33 32 33 41-3 63-29 60-74-43 2-92-5-92 41" id="bi"/><path fill="#333" d="M177-190C167-65 218 103 67 71c-23-6-38-20-44-43l32-5c15 47 100 32 89-28v-30C133-14 115 1 83 1 29 1 15-40 15-95c0-56 16-97 71-98 29-1 48 16 59 35 1-10 0-23 2-32h30zM94-22c36 0 50-32 50-73 0-42-14-75-50-75-39 0-46 34-46 75s6 73 46 73" id="bj"/><g id="o"><use transform="matrix(0.06172839506172839,0,0,0.06172839506172839,0,0)" xlink:href="#bh"/><use transform="matrix(0.06172839506172839,0,0,0.06172839506172839,11.049382716049381,0)" xlink:href="#bi"/><use transform="matrix(0.06172839506172839,0,0,0.06172839506172839,23.39506172839506,0)" xlink:href="#bj"/></g><path fill="#333" d="M16-82v-28h88v28H16" id="bk"/><use transform="matrix(0.06172839506172839,0,0,0.06172839506172839,0,0)" xlink:href="#bk" id="p"/><path fill="#333" d="M39-94c74 12-11 154 75 146v23c-44 4-70-10-70-52C44-23 55-84 6-82v-22c81 4-7-162 84-157h24v23c-82-15-2 131-75 144" id="bl"/><use transform="matrix(0.06172839506172839,0,0,0.06172839506172839,0,0)" xlink:href="#bl" id="q"/><path d="M143 0L79-87 56-68V0H24v-261h32v163l83-92h37l-77 82L181 0h-38" id="bm"/><path d="M84 4C-5 8 30-112 23-190h32v120c0 31 7 50 39 49 72-2 45-101 50-169h31l1 190h-30c-1-10 1-25-2-33-11 22-28 36-60 37" id="bn"/><path d="M115-194c53 0 69 39 70 98 0 66-23 100-70 100C84 3 66-7 56-30L54 0H23l1-261h32v101c10-23 28-34 59-34zm-8 174c40 0 45-34 45-75 0-40-5-75-45-74-42 0-51 32-51 76 0 43 10 73 51 73" id="bo"/><path d="M100-194c63 0 86 42 84 106H49c0 40 14 67 53 68 26 1 43-12 49-29l28 8c-11 28-37 45-77 45C44 4 14-33 15-96c1-61 26-98 85-98zm52 81c6-60-76-77-97-28-3 7-6 17-6 28h103" id="bp"/><path d="M114-163C36-179 61-72 57 0H25l-1-190h30c1 12-1 29 2 39 6-27 23-49 58-41v29" id="bq"/><path d="M117-194c89-4 53 116 60 194h-32v-121c0-31-8-49-39-48C34-167 62-67 57 0H25l-1-190h30c1 10-1 24 2 32 11-22 29-35 61-36" id="br"/><path d="M59-47c-2 24 18 29 38 22v24C64 9 27 4 27-40v-127H5v-23h24l9-43h21v43h35v23H59v120" id="bs"/><path d="M135-143c-3-34-86-38-87 0 15 53 115 12 119 90S17 21 10-45l28-5c4 36 97 45 98 0-10-56-113-15-118-90-4-57 82-63 122-42 12 7 21 19 24 35" id="bt"/><path d="M33 0v-38h34V0H33" id="bu"/><path d="M24-231v-30h32v30H24zM24 0v-190h32V0H24" id="bv"/><path d="M100-194c62-1 85 37 85 99 1 63-27 99-86 99S16-35 15-95c0-66 28-99 85-99zM99-20c44 1 53-31 53-75 0-43-8-75-51-75s-53 32-53 75 10 74 51 75" id="bw"/><path d="M0 4l72-265h28L28 4H0" id="bx"/><path d="M96-169c-40 0-48 33-48 73s9 75 48 75c24 0 41-14 43-38l32 2c-6 37-31 61-74 61-59 0-76-41-82-99-10-93 101-131 147-64 4 7 5 14 7 22l-32 3c-4-21-16-35-41-35" id="by"/><path d="M24 0v-261h32V0H24" id="bz"/><path d="M18-100v-36l175-74v27L42-118l151 64v27" id="bA"/><path d="M16-82v-28h88v28H16" id="bB"/><path d="M141-36C126-15 110 5 73 4 37 3 15-17 15-53c-1-64 63-63 125-63 3-35-9-54-41-54-24 1-41 7-42 31l-33-3c5-37 33-52 76-52 45 0 72 20 72 64v82c-1 20 7 32 28 27v20c-31 9-61-2-59-35zM48-53c0 20 12 33 32 33 41-3 63-29 60-74-43 2-92-5-92 41" id="bC"/><path d="M210-169c-67 3-38 105-44 169h-31v-121c0-29-5-50-35-48C34-165 62-65 56 0H25l-1-190h30c1 10-1 24 2 32 10-44 99-50 107 0 11-21 27-35 58-36 85-2 47 119 55 194h-31v-121c0-29-5-49-35-48" id="bD"/><path d="M18-27v-27l151-64-151-65v-27l175 74v36" id="bE"/><g id="r"><use transform="matrix(0.048148148148148155,0,0,0.048148148148148155,0,0)" xlink:href="#bm"/><use transform="matrix(0.048148148148148155,0,0,0.048148148148148155,8.666666666666668,0)" xlink:href="#bn"/><use transform="matrix(0.048148148148148155,0,0,0.048148148148148155,18.296296296296298,0)" xlink:href="#bo"/><use transform="matrix(0.048148148148148155,0,0,0.048148148148148155,27.92592592592593,0)" xlink:href="#bp"/><use transform="matrix(0.048148148148148155,0,0,0.048148148148148155,37.555555555555564,0)" xlink:href="#bq"/><use transform="matrix(0.048148148148148155,0,0,0.048148148148148155,43.28518518518519,0)" xlink:href="#br"/><use transform="matrix(0.048148148148148155,0,0,0.048148148148148155,52.914814814814825,0)" xlink:href="#bp"/><use transform="matrix(0.048148148148148155,0,0,0.048148148148148155,62.54444444444445,0)" xlink:href="#bs"/><use transform="matrix(0.048148148148148155,0,0,0.048148148148148155,67.35925925925928,0)" xlink:href="#bp"/><use transform="matrix(0.048148148148148155,0,0,0.048148148148148155,76.98888888888891,0)" xlink:href="#bt"/><use transform="matrix(0.048148148148148155,0,0,0.048148148148148155,85.65555555555558,0)" xlink:href="#bu"/><use transform="matrix(0.048148148148148155,0,0,0.048148148148148155,90.47037037037039,0)" xlink:href="#bv"/><use transform="matrix(0.048148148148148155,0,0,0.048148148148148155,94.2740740740741,0)" xlink:href="#bw"/><use transform="matrix(0.048148148148148155,0,0,0.048148148148148155,103.90370370370371,0)" xlink:href="#bx"/><use transform="matrix(0.048148148148148155,0,0,0.048148148148148155,108.71851851851854,0)" xlink:href="#by"/><use transform="matrix(0.048148148148148155,0,0,0.048148148148148155,117.38518518518521,0)" xlink:href="#bz"/><use transform="matrix(0.048148148148148155,0,0,0.048148148148148155,121.18888888888891,0)" xlink:href="#bn"/><use transform="matrix(0.048148148148148155,0,0,0.048148148148148155,130.81851851851854,0)" xlink:href="#bt"/><use transform="matrix(0.048148148148148155,0,0,0.048148148148148155,139.4851851851852,0)" xlink:href="#bs"/><use transform="matrix(0.048148148148148155,0,0,0.048148148148148155,144.3,0)" xlink:href="#bp"/><use transform="matrix(0.048148148148148155,0,0,0.048148148148148155,153.92962962962963,0)" xlink:href="#bq"/><use transform="matrix(0.048148148148148155,0,0,0.048148148148148155,159.65925925925927,0)" xlink:href="#bx"/><use transform="matrix(0.048148148148148155,0,0,0.048148148148148155,164.47407407407408,0)" xlink:href="#bA"/><use transform="matrix(0.048148148148148155,0,0,0.048148148148148155,174.5851851851852,0)" xlink:href="#by"/><use transform="matrix(0.048148148148148155,0,0,0.048148148148148155,183.25185185185185,0)" xlink:href="#bz"/><use transform="matrix(0.048148148148148155,0,0,0.048148148148148155,187.05555555555557,0)" xlink:href="#bn"/><use transform="matrix(0.048148148148148155,0,0,0.048148148148148155,196.6851851851852,0)" xlink:href="#bt"/><use transform="matrix(0.048148148148148155,0,0,0.048148148148148155,205.35185185185185,0)" xlink:href="#bs"/><use transform="matrix(0.048148148148148155,0,0,0.048148148148148155,210.16666666666666,0)" xlink:href="#bp"/><use transform="matrix(0.048148148148148155,0,0,0.048148148148148155,219.79629629629628,0)" xlink:href="#bq"/><use transform="matrix(0.048148148148148155,0,0,0.048148148148148155,225.52592592592592,0)" xlink:href="#bB"/><use transform="matrix(0.048148148148148155,0,0,0.048148148148148155,231.25555555555553,0)" xlink:href="#br"/><use transform="matrix(0.048148148148148155,0,0,0.048148148148148155,240.88518518518518,0)" xlink:href="#bC"/><use transform="matrix(0.048148148148148155,0,0,0.048148148148148155,250.5148148148148,0)" xlink:href="#bD"/><use transform="matrix(0.048148148148148155,0,0,0.048148148148148155,264.9111111111111,0)" xlink:href="#bp"/><use transform="matrix(0.048148148148148155,0,0,0.048148148148148155,274.5407407407407,0)" xlink:href="#bE"/><path fill="#8080ff" d="M-.87 1.2h286.4v1.27H-.88z"/></g><path d="M33-154v-36h34v36H33zM33 0v-36h34V0H33" id="bF"/><use transform="matrix(0.048148148148148155,0,0,0.048148148148148155,0,0)" xlink:href="#bF" id="s"/><path d="M206 0h-36l-40-164L89 0H53L-1-190h32L70-26l43-164h34l41 164 42-164h31" id="bG"/><path d="M85-194c31 0 48 13 60 33l-1-100h32l1 261h-30c-2-10 0-23-3-31C134-8 116 4 85 4 32 4 16-35 15-94c0-66 23-100 70-100zm9 24c-40 0-46 34-46 75 0 40 6 74 45 74 42 0 51-32 51-76 0-42-9-74-50-73" id="bH"/><g id="t"><use transform="matrix(0.048148148148148155,0,0,0.048148148148148155,0,0)" xlink:href="#bw"/><use transform="matrix(0.048148148148148155,0,0,0.048148148148148155,9.629629629629632,0)" xlink:href="#bG"/><use transform="matrix(0.048148148148148155,0,0,0.048148148148148155,22.1,0)" xlink:href="#br"/><use transform="matrix(0.048148148148148155,0,0,0.048148148148148155,31.729629629629635,0)" xlink:href="#bp"/><use transform="matrix(0.048148148148148155,0,0,0.048148148148148155,41.35925925925927,0)" xlink:href="#bH"/></g><path d="M76-40C78 24 84 88 6 75V52C86 64 9-79 80-94c-40-6-34-59-34-106 1-29-11-41-40-38v-23c44-4 70 10 70 52 0 47-12 108 38 105v22c-26 1-39 14-38 42" id="bI"/><use transform="matrix(0.048148148148148155,0,0,0.048148148148148155,0,0)" xlink:href="#bI" id="u"/><path fill="#333" d="M199 0l-22-63H83L61 0H9l90-248h61L250 0h-51zm-33-102l-36-108c-10 38-24 72-36 108h72" id="bJ"/><g id="v"><use transform="matrix(0.04938271604938272,0,0,0.04938271604938272,0,0)" xlink:href="#bJ"/><use transform="matrix(0.04938271604938272,0,0,0.04938271604938272,12.790123456790125,0)" xlink:href="#aL"/><use transform="matrix(0.04938271604938272,0,0,0.04938271604938272,17.7283950617284,0)" xlink:href="#aL"/><use transform="matrix(0.04938271604938272,0,0,0.04938271604938272,22.66666666666667,0)" xlink:href="#aN"/></g><path fill="#333" d="M24 0v-54h51V0H24" id="bK"/><g id="w"><use transform="matrix(0.04938271604938272,0,0,0.04938271604938272,0,0)" xlink:href="#aY"/><use transform="matrix(0.04938271604938272,0,0,0.04938271604938272,9.876543209876544,0)" xlink:href="#bK"/><use transform="matrix(0.04938271604938272,0,0,0.04938271604938272,14.814814814814817,0)" xlink:href="#aY"/><use transform="matrix(0.04938271604938272,0,0,0.04938271604938272,24.69135802469136,0)" xlink:href="#bK"/><use transform="matrix(0.04938271604938272,0,0,0.04938271604938272,29.629629629629633,0)" xlink:href="#aY"/><use transform="matrix(0.04938271604938272,0,0,0.04938271604938272,39.50617283950618,0)" xlink:href="#bK"/><use transform="matrix(0.04938271604938272,0,0,0.04938271604938272,44.44444444444445,0)" xlink:href="#aY"/><use transform="matrix(0.04938271604938272,0,0,0.04938271604938272,54.320987654320994,0)" xlink:href="#aU"/><use transform="matrix(0.04938271604938272,0,0,0.04938271604938272,59.25925925925927,0)" xlink:href="#aY"/></g><g id="x"><use transform="matrix(0.04938271604938272,0,0,0.04938271604938272,0,0)" xlink:href="#bc"/><use transform="matrix(0.04938271604938272,0,0,0.04938271604938272,5.8765432098765435,0)" xlink:href="#bd"/><use transform="matrix(0.04938271604938272,0,0,0.04938271604938272,19.703703703703706,0)" xlink:href="#be"/><use transform="matrix(0.04938271604938272,0,0,0.04938271604938272,30.518518518518523,0)" xlink:href="#bf"/><use transform="matrix(0.04938271604938272,0,0,0.04938271604938272,36.39506172839506,0)" xlink:href="#bg"/></g><path fill="#333" d="M30-248c87 1 191-15 191 75 0 78-77 80-158 76V0H30v-248zm33 125c57 0 124 11 124-50 0-59-68-47-124-48v98" id="bL"/><path fill="#333" d="M84 4C-5 8 30-112 23-190h32v120c0 31 7 50 39 49 72-2 45-101 50-169h31l1 190h-30c-1-10 1-25-2-33-11 22-28 36-60 37" id="bM"/><path fill="#333" d="M115-194c53 0 69 39 70 98 0 66-23 100-70 100C84 3 66-7 56-30L54 0H23l1-261h32v101c10-23 28-34 59-34zm-8 174c40 0 45-34 45-75 0-40-5-75-45-74-42 0-51 32-51 76 0 43 10 73 51 73" id="bN"/><path fill="#333" d="M24 0v-261h32V0H24" id="bO"/><path fill="#333" d="M24-231v-30h32v30H24zM24 0v-190h32V0H24" id="bP"/><path fill="#333" d="M96-169c-40 0-48 33-48 73s9 75 48 75c24 0 41-14 43-38l32 2c-6 37-31 61-74 61-59 0-76-41-82-99-10-93 101-131 147-64 4 7 5 14 7 22l-32 3c-4-21-16-35-41-35" id="bQ"/><g id="y"><use transform="matrix(0.06172839506172839,0,0,0.06172839506172839,0,0)" xlink:href="#bL"/><use transform="matrix(0.06172839506172839,0,0,0.06172839506172839,14.814814814814813,0)" xlink:href="#bM"/><use transform="matrix(0.06172839506172839,0,0,0.06172839506172839,27.160493827160494,0)" xlink:href="#bN"/><use transform="matrix(0.06172839506172839,0,0,0.06172839506172839,39.50617283950617,0)" xlink:href="#bO"/><use transform="matrix(0.06172839506172839,0,0,0.06172839506172839,44.382716049382715,0)" xlink:href="#bP"/><use transform="matrix(0.06172839506172839,0,0,0.06172839506172839,49.25925925925926,0)" xlink:href="#bQ"/></g><path fill="#333" d="M33 0v-248h34V0H33" id="bR"/><path fill="#333" d="M117-194c89-4 53 116 60 194h-32v-121c0-31-8-49-39-48C34-167 62-67 57 0H25l-1-190h30c1 10-1 24 2 32 11-22 29-35 61-36" id="bS"/><path fill="#333" d="M59-47c-2 24 18 29 38 22v24C64 9 27 4 27-40v-127H5v-23h24l9-43h21v43h35v23H59v120" id="bT"/><path fill="#333" d="M100-194c63 0 86 42 84 106H49c0 40 14 67 53 68 26 1 43-12 49-29l28 8c-11 28-37 45-77 45C44 4 14-33 15-96c1-61 26-98 85-98zm52 81c6-60-76-77-97-28-3 7-6 17-6 28h103" id="bU"/><path fill="#333" d="M114-163C36-179 61-72 57 0H25l-1-190h30c1 12-1 29 2 39 6-27 23-49 58-41v29" id="bV"/><g id="z"><use transform="matrix(0.06172839506172839,0,0,0.06172839506172839,0,0)" xlink:href="#bR"/><use transform="matrix(0.06172839506172839,0,0,0.06172839506172839,6.172839506172839,0)" xlink:href="#bS"/><use transform="matrix(0.06172839506172839,0,0,0.06172839506172839,18.51851851851852,0)" xlink:href="#bT"/><use transform="matrix(0.06172839506172839,0,0,0.06172839506172839,24.691358024691358,0)" xlink:href="#bU"/><use transform="matrix(0.06172839506172839,0,0,0.06172839506172839,37.03703703703704,0)" xlink:href="#bV"/><use transform="matrix(0.06172839506172839,0,0,0.06172839506172839,44.382716049382715,0)" xlink:href="#bS"/><use transform="matrix(0.06172839506172839,0,0,0.06172839506172839,56.72839506172839,0)" xlink:href="#bU"/><use transform="matrix(0.06172839506172839,0,0,0.06172839506172839,69.07407407407408,0)" xlink:href="#bT"/></g><path d="M80-196l47-18 7 23-49 13 32 44-20 13-27-46-27 45-21-12 33-44-49-13 8-23 47 19-2-53h23" id="bW"/><path d="M212-179c-10-28-35-45-73-45-59 0-87 40-87 99 0 60 29 101 89 101 43 0 62-24 78-52l27 14C228-24 195 4 139 4 59 4 22-46 18-125c-6-104 99-153 187-111 19 9 31 26 39 46" id="bX"/><g id="A"><use transform="matrix(0.055555555555555546,0,0,0.055555555555555546,0,0)" xlink:href="#bW"/><use transform="matrix(0.055555555555555546,0,0,0.055555555555555546,7.777777777777777,0)" xlink:href="#bX"/><use transform="matrix(0.055555555555555546,0,0,0.055555555555555546,22.166666666666664,0)" xlink:href="#bz"/><use transform="matrix(0.055555555555555546,0,0,0.055555555555555546,26.555555555555554,0)" xlink:href="#bn"/><use transform="matrix(0.055555555555555546,0,0,0.055555555555555546,37.666666666666664,0)" xlink:href="#bt"/><use transform="matrix(0.055555555555555546,0,0,0.055555555555555546,47.666666666666664,0)" xlink:href="#bs"/><use transform="matrix(0.055555555555555546,0,0,0.055555555555555546,53.22222222222222,0)" xlink:href="#bp"/><use transform="matrix(0.055555555555555546,0,0,0.055555555555555546,64.33333333333333,0)" xlink:href="#bq"/></g><path d="M30-248c87 1 191-15 191 75 0 78-77 80-158 76V0H30v-248zm33 125c57 0 124 11 124-50 0-59-68-47-124-48v98" id="bY"/><path d="M179-190L93 31C79 59 56 82 12 73V49c39 6 53-20 64-50L1-190h34L92-34l54-156h33" id="bZ"/><g id="B"><use transform="matrix(0.055555555555555546,0,0,0.055555555555555546,0,0)" xlink:href="#bY"/><use transform="matrix(0.055555555555555546,0,0,0.055555555555555546,13.33333333333333,0)" xlink:href="#bq"/><use transform="matrix(0.055555555555555546,0,0,0.055555555555555546,19.94444444444444,0)" xlink:href="#bv"/><use transform="matrix(0.055555555555555546,0,0,0.055555555555555546,24.33333333333333,0)" xlink:href="#bD"/><use transform="matrix(0.055555555555555546,0,0,0.055555555555555546,40.944444444444436,0)" xlink:href="#bC"/><use transform="matrix(0.055555555555555546,0,0,0.055555555555555546,52.05555555555554,0)" xlink:href="#bq"/><use transform="matrix(0.055555555555555546,0,0,0.055555555555555546,58.66666666666666,0)" xlink:href="#bZ"/></g><g id="C"><use transform="matrix(0.055555555555555546,0,0,0.055555555555555546,0,0)" xlink:href="#ao"/><use transform="matrix(0.055555555555555546,0,0,0.055555555555555546,13.33333333333333,0)" xlink:href="#bp"/><use transform="matrix(0.055555555555555546,0,0,0.055555555555555546,24.44444444444444,0)" xlink:href="#by"/><use transform="matrix(0.055555555555555546,0,0,0.055555555555555546,34.444444444444436,0)" xlink:href="#bn"/><use transform="matrix(0.055555555555555546,0,0,0.055555555555555546,45.55555555555554,0)" xlink:href="#bq"/><use transform="matrix(0.055555555555555546,0,0,0.055555555555555546,52.16666666666665,0)" xlink:href="#bv"/><use transform="matrix(0.055555555555555546,0,0,0.055555555555555546,56.555555555555536,0)" xlink:href="#bs"/><use transform="matrix(0.055555555555555546,0,0,0.055555555555555546,62.111111111111086,0)" xlink:href="#bZ"/></g><path d="M143 4C61 4 22-44 18-125c-5-107 100-154 193-111 17 8 29 25 37 43l-32 9c-13-25-37-40-76-40-61 0-88 39-88 99 0 61 29 100 91 101 35 0 62-11 79-27v-45h-74v-28h105v86C228-13 192 4 143 4" id="ca"/><path d="M115-194c55 1 70 41 70 98S169 2 115 4C84 4 66-9 55-30l1 105H24l-1-265h31l2 30c10-21 28-34 59-34zm-8 174c40 0 45-34 45-75s-6-73-45-74c-42 0-51 32-51 76 0 43 10 73 51 73" id="cb"/><g id="D"><use transform="matrix(0.055555555555555546,0,0,0.055555555555555546,0,0)" xlink:href="#ca"/><use transform="matrix(0.055555555555555546,0,0,0.055555555555555546,15.555555555555554,0)" xlink:href="#bq"/><use transform="matrix(0.055555555555555546,0,0,0.055555555555555546,22.166666666666664,0)" xlink:href="#bw"/><use transform="matrix(0.055555555555555546,0,0,0.055555555555555546,33.27777777777777,0)" xlink:href="#bn"/><use transform="matrix(0.055555555555555546,0,0,0.055555555555555546,44.38888888888888,0)" xlink:href="#cb"/></g><g id="E"><use transform="matrix(0.055555555555555546,0,0,0.055555555555555546,0,0)" xlink:href="#bv"/><use transform="matrix(0.055555555555555546,0,0,0.055555555555555546,4.388888888888888,0)" xlink:href="#bt"/></g><use transform="matrix(0.055555555555555546,0,0,0.055555555555555546,0,0)" xlink:href="#bC" id="F"/><g id="G"><use transform="matrix(0.055555555555555546,0,0,0.055555555555555546,0,0)" xlink:href="#bt"/><use transform="matrix(0.055555555555555546,0,0,0.055555555555555546,9.999999999999998,0)" xlink:href="#bp"/><use transform="matrix(0.055555555555555546,0,0,0.055555555555555546,21.111111111111107,0)" xlink:href="#by"/><use transform="matrix(0.055555555555555546,0,0,0.055555555555555546,31.111111111111107,0)" xlink:href="#bn"/><use transform="matrix(0.055555555555555546,0,0,0.055555555555555546,42.222222222222214,0)" xlink:href="#bq"/><use transform="matrix(0.055555555555555546,0,0,0.055555555555555546,48.83333333333332,0)" xlink:href="#bv"/><use transform="matrix(0.055555555555555546,0,0,0.055555555555555546,53.22222222222221,0)" xlink:href="#bs"/><use transform="matrix(0.055555555555555546,0,0,0.055555555555555546,58.777777777777764,0)" xlink:href="#bZ"/></g><path d="M177-190C167-65 218 103 67 71c-23-6-38-20-44-43l32-5c15 47 100 32 89-28v-30C133-14 115 1 83 1 29 1 15-40 15-95c0-56 16-97 71-98 29-1 48 16 59 35 1-10 0-23 2-32h30zM94-22c36 0 50-32 50-73 0-42-14-75-50-75-39 0-46 34-46 75s6 73 46 73" id="cc"/><g id="H"><use transform="matrix(0.055555555555555546,0,0,0.055555555555555546,0,0)" xlink:href="#cc"/><use transform="matrix(0.055555555555555546,0,0,0.055555555555555546,11.111111111111109,0)" xlink:href="#bq"/><use transform="matrix(0.055555555555555546,0,0,0.055555555555555546,17.722222222222218,0)" xlink:href="#bw"/><use transform="matrix(0.055555555555555546,0,0,0.055555555555555546,28.83333333333333,0)" xlink:href="#bn"/><use transform="matrix(0.055555555555555546,0,0,0.055555555555555546,39.944444444444436,0)" xlink:href="#cb"/></g><g id="I"><use transform="matrix(0.055555555555555546,0,0,0.055555555555555546,0,0)" xlink:href="#bC"/><use transform="matrix(0.055555555555555546,0,0,0.055555555555555546,11.111111111111109,0)" xlink:href="#bn"/><use transform="matrix(0.055555555555555546,0,0,0.055555555555555546,22.222222222222218,0)" xlink:href="#bs"/><use transform="matrix(0.055555555555555546,0,0,0.055555555555555546,27.77777777777777,0)" xlink:href="#bw"/><use transform="matrix(0.055555555555555546,0,0,0.055555555555555546,38.88888888888888,0)" xlink:href="#bD"/><use transform="matrix(0.055555555555555546,0,0,0.055555555555555546,55.499999999999986,0)" xlink:href="#bC"/><use transform="matrix(0.055555555555555546,0,0,0.055555555555555546,66.6111111111111,0)" xlink:href="#bs"/><use transform="matrix(0.055555555555555546,0,0,0.055555555555555546,72.16666666666666,0)" xlink:href="#bv"/><use transform="matrix(0.055555555555555546,0,0,0.055555555555555546,76.55555555555554,0)" xlink:href="#by"/><use transform="matrix(0.055555555555555546,0,0,0.055555555555555546,86.55555555555554,0)" xlink:href="#bC"/><use transform="matrix(0.055555555555555546,0,0,0.055555555555555546,97.66666666666666,0)" xlink:href="#bz"/><use transform="matrix(0.055555555555555546,0,0,0.055555555555555546,102.05555555555554,0)" xlink:href="#bz"/><use transform="matrix(0.055555555555555546,0,0,0.055555555555555546,106.44444444444443,0)" xlink:href="#bZ"/></g><g id="J"><use transform="matrix(0.055555555555555546,0,0,0.055555555555555546,0,0)" xlink:href="#by"/><use transform="matrix(0.055555555555555546,0,0,0.055555555555555546,9.999999999999998,0)" xlink:href="#bq"/><use transform="matrix(0.055555555555555546,0,0,0.055555555555555546,16.611111111111107,0)" xlink:href="#bp"/><use transform="matrix(0.055555555555555546,0,0,0.055555555555555546,27.722222222222214,0)" xlink:href="#bC"/><use transform="matrix(0.055555555555555546,0,0,0.055555555555555546,38.83333333333332,0)" xlink:href="#bs"/><use transform="matrix(0.055555555555555546,0,0,0.055555555555555546,44.38888888888888,0)" xlink:href="#bp"/><use transform="matrix(0.055555555555555546,0,0,0.055555555555555546,55.499999999999986,0)" xlink:href="#bH"/></g><path d="M101-234c-31-9-42 10-38 44h38v23H63V0H32v-167H5v-23h27c-7-52 17-82 69-68v24" id="cd"/><g id="K"><use transform="matrix(0.055555555555555546,0,0,0.055555555555555546,0,0)" xlink:href="#cd"/><use transform="matrix(0.055555555555555546,0,0,0.055555555555555546,5.5555555555555545,0)" xlink:href="#bw"/><use transform="matrix(0.055555555555555546,0,0,0.055555555555555546,16.666666666666664,0)" xlink:href="#bq"/></g><path d="M106-169C34-169 62-67 57 0H25v-261h32l-1 103c12-21 28-36 61-36 89 0 53 116 60 194h-32v-121c2-32-8-49-39-48" id="ce"/><g id="L"><use transform="matrix(0.055555555555555546,0,0,0.055555555555555546,0,0)" xlink:href="#bs"/><use transform="matrix(0.055555555555555546,0,0,0.055555555555555546,5.5555555555555545,0)" xlink:href="#ce"/><use transform="matrix(0.055555555555555546,0,0,0.055555555555555546,16.666666666666664,0)" xlink:href="#bp"/></g><g id="M"><use transform="matrix(0.055555555555555546,0,0,0.055555555555555546,0,0)" xlink:href="#by"/><use transform="matrix(0.055555555555555546,0,0,0.055555555555555546,9.999999999999998,0)" xlink:href="#bz"/><use transform="matrix(0.055555555555555546,0,0,0.055555555555555546,14.388888888888886,0)" xlink:href="#bn"/><use transform="matrix(0.055555555555555546,0,0,0.055555555555555546,25.499999999999993,0)" xlink:href="#bt"/><use transform="matrix(0.055555555555555546,0,0,0.055555555555555546,35.49999999999999,0)" xlink:href="#bs"/><use transform="matrix(0.055555555555555546,0,0,0.055555555555555546,41.05555555555555,0)" xlink:href="#bp"/><use transform="matrix(0.055555555555555546,0,0,0.055555555555555546,52.16666666666666,0)" xlink:href="#bq"/></g><g id="N"><use transform="matrix(0.055555555555555546,0,0,0.055555555555555546,0,0)" xlink:href="#bo"/><use transform="matrix(0.055555555555555546,0,0,0.055555555555555546,11.111111111111109,0)" xlink:href="#bZ"/></g><g id="O"><use transform="matrix(0.055555555555555546,0,0,0.055555555555555546,0,0)" xlink:href="#am"/><use transform="matrix(0.055555555555555546,0,0,0.055555555555555546,13.33333333333333,0)" xlink:href="#an"/><use transform="matrix(0.055555555555555546,0,0,0.055555555555555546,26.66666666666666,0)" xlink:href="#ao"/><use transform="matrix(0.055555555555555546,0,0,0.055555555555555546,39.99999999999999,0)" xlink:href="#bu"/></g><path d="M127-220V0H93v-220H8v-28h204v28h-85" id="cf"/><g id="P"><use transform="matrix(0.055555555555555546,0,0,0.055555555555555546,0,0)" xlink:href="#cf"/><use transform="matrix(0.055555555555555546,0,0,0.055555555555555546,12.166666666666664,0)" xlink:href="#ce"/><use transform="matrix(0.055555555555555546,0,0,0.055555555555555546,23.27777777777777,0)" xlink:href="#bv"/><use transform="matrix(0.055555555555555546,0,0,0.055555555555555546,27.66666666666666,0)" xlink:href="#bt"/></g><g id="Q"><use transform="matrix(0.055555555555555546,0,0,0.055555555555555546,0,0)" xlink:href="#bt"/><use transform="matrix(0.055555555555555546,0,0,0.055555555555555546,9.999999999999998,0)" xlink:href="#bp"/><use transform="matrix(0.055555555555555546,0,0,0.055555555555555546,21.111111111111107,0)" xlink:href="#by"/><use transform="matrix(0.055555555555555546,0,0,0.055555555555555546,31.111111111111107,0)" xlink:href="#bn"/><use transform="matrix(0.055555555555555546,0,0,0.055555555555555546,42.222222222222214,0)" xlink:href="#bq"/><use transform="matrix(0.055555555555555546,0,0,0.055555555555555546,48.83333333333332,0)" xlink:href="#bv"/><use transform="matrix(0.055555555555555546,0,0,0.055555555555555546,53.22222222222221,0)" xlink:href="#bs"/><use transform="matrix(0.055555555555555546,0,0,0.055555555555555546,58.777777777777764,0)" xlink:href="#bZ"/></g><path d="M33 0v-248h34V0H33" id="cg"/><path d="M30-248c118-7 216 8 213 122C240-48 200 0 122 0H30v-248zM63-27c89 8 146-16 146-99s-60-101-146-95v194" id="ch"/><g id="R"><use transform="matrix(0.055555555555555546,0,0,0.055555555555555546,0,0)" xlink:href="#cg"/><use transform="matrix(0.055555555555555546,0,0,0.055555555555555546,5.5555555555555545,0)" xlink:href="#ch"/></g><g id="S"><use transform="matrix(0.055555555555555546,0,0,0.055555555555555546,0,0)" xlink:href="#bt"/><use transform="matrix(0.055555555555555546,0,0,0.055555555555555546,9.999999999999998,0)" xlink:href="#ce"/><use transform="matrix(0.055555555555555546,0,0,0.055555555555555546,21.111111111111107,0)" xlink:href="#bw"/><use transform="matrix(0.055555555555555546,0,0,0.055555555555555546,32.222222222222214,0)" xlink:href="#bG"/><use transform="matrix(0.055555555555555546,0,0,0.055555555555555546,46.6111111111111,0)" xlink:href="#br"/></g><g id="T"><use transform="matrix(0.055555555555555546,0,0,0.055555555555555546,0,0)" xlink:href="#bv"/><use transform="matrix(0.055555555555555546,0,0,0.055555555555555546,4.388888888888888,0)" xlink:href="#br"/></g><g id="U"><use transform="matrix(0.055555555555555546,0,0,0.055555555555555546,0,0)" xlink:href="#bD"/><use transform="matrix(0.055555555555555546,0,0,0.055555555555555546,16.611111111111107,0)" xlink:href="#bw"/><use transform="matrix(0.055555555555555546,0,0,0.055555555555555546,27.722222222222214,0)" xlink:href="#bH"/><use transform="matrix(0.055555555555555546,0,0,0.055555555555555546,38.83333333333332,0)" xlink:href="#bn"/><use transform="matrix(0.055555555555555546,0,0,0.055555555555555546,49.94444444444443,0)" xlink:href="#bz"/><use transform="matrix(0.055555555555555546,0,0,0.055555555555555546,54.333333333333314,0)" xlink:href="#bp"/></g><g id="V"><use transform="matrix(0.055555555555555546,0,0,0.055555555555555546,0,0)" xlink:href="#bw"/><use transform="matrix(0.055555555555555546,0,0,0.055555555555555546,11.111111111111109,0)" xlink:href="#bn"/><use transform="matrix(0.055555555555555546,0,0,0.055555555555555546,22.222222222222218,0)" xlink:href="#bs"/><use transform="matrix(0.055555555555555546,0,0,0.055555555555555546,27.77777777777777,0)" xlink:href="#cb"/><use transform="matrix(0.055555555555555546,0,0,0.055555555555555546,38.88888888888888,0)" xlink:href="#bn"/><use transform="matrix(0.055555555555555546,0,0,0.055555555555555546,49.999999999999986,0)" xlink:href="#bs"/><use transform="matrix(0.055555555555555546,0,0,0.055555555555555546,55.55555555555554,0)" xlink:href="#bF"/></g><path d="M172-543c0-365 197-575 553-575 119 0 231 20 336 59l-62 158c-100-38-189-57-268-57-247 0-371 138-371 413 0 271 120 406 361 406 105 0 212-21 321-62v160C953 0 843 20 713 20c-347 1-541-210-541-563" id="ci"/><path d="M532-1413l-268-21v-122h451v1413l352 20V0H188v-123l344-20v-1270" id="cj"/><path d="M578-131c239 0 309-137 309-397v-570h182V0H922l-27-147h-10C815-36 704 20 551 20c-261 0-391-134-391-401v-717h182v707c0 173 79 260 236 260" id="ck"/><path d="M1026-301c0 225-197 321-448 321-165 0-290-23-375-69v-166c129 57 252 86 370 86 183 0 275-54 275-162 0-38-16-71-49-99s-108-63-226-106c-156-57-253-112-293-160s-61-105-61-171c2-338 524-340 789-217l-60 149c-121-48-228-72-319-72-157 0-236 44-236 133 0 41 17 74 51 98s111 57 232 101c141 51 234 101 280 151s70 111 70 183" id="cl"/><path d="M1020-150v138C933 9 849 20 768 20 527 20 406-95 406-324v-637H139v-94l267-49 77-287h105v293h438v137H588v637c0 130 64 195 192 195 62 0 142-7 240-21" id="cm"/><path d="M631-1118c283 0 470 204 465 491v113H322c5 250 120 375 344 375 130 0 253-25 370-76v160C925-5 804 20 672 20c-329 0-539-224-539-561 0-331 182-577 498-577zM326-662h573c0-203-91-305-272-305-183 0-284 102-301 305" id="cn"/><path d="M442-897c93-139 173-221 377-221 79 0 159 15 240 45l-49 166c-82-30-157-45-224-45-221 0-340 134-340 360V0H264v-1098h148l22 201h8" id="co"/><path d="M1243 324H-16V184h1259v140" id="cp"/><path d="M1092-551c0 322-136 571-430 571-138 0-245-53-322-159h-12c24 220 7 402 12 631H158v-1590h147l27 148h8c73-112 181-168 322-168 294 0 430 246 430 567zM629-967c-241 0-288 156-289 416 0 151 24 259 70 323s120 97 221 97c181 0 272-141 272-422 0-276-91-414-274-414" id="cq"/><path d="M739-1436c0 71-43 115-106 115-71 0-107-38-107-115 0-76 36-114 107-114s106 38 106 114zM541-954l-269-21v-123h451v955l352 20V0H197v-123l344-20v-811" id="cr"/><path d="M977 0v-707c0-97-9-165-27-203s-47-57-88-57c-58 0-100 28-126 83s-40 148-40 278V0H535v-707c0-173-42-260-125-260-56 0-96 26-120 79s-36 160-36 319V0H92v-1098h127l27 148h10c45-112 112-168 201-168 109 0 180 61 213 182h6c51-121 124-182 219-182 85 0 147 30 186 92s58 165 58 309V0H977" id="cs"/><path d="M596-1118c288 2 430 92 430 366V0H895l-37-152h-8C752-34 680 17 483 20 272 23 135-98 135-307c0-221 170-337 510-348l203-7c15-197-55-305-244-305-98 0-207 27-328 82l-63-137c131-64 258-96 383-96zm-72 991c194 0 325-116 322-311v-99c-251 15-522-6-522 232 0 119 67 178 200 178" id="ct"/><path d="M82-1098h188l262 654c55 137 84 233 89 290h6c15-75 45-172 90-292l239-652h189L670 143c-45 116-99 201-156 261-87 92-259 104-414 71V330c92 17 226 18 286-29 67-53 115-195 153-291" id="cu"/><path d="M188-739c-1-248 156-381 410-379 57 0 107 7 150 20h378v113l-196 27c43 57 65 128 65 213 2 253-212 385-489 346-67 37-100 82-100 133 0 56 54 84 161 84h187c216-2 358 93 358 297 0 251-188 377-565 377-145 0-255-26-331-80S102 283 102 186c0-141 80-231 240-270-64-31-96-83-96-154 0-75 44-139 133-192-109-41-191-166-191-309zm406 221c149 0 223-77 223-230 0-159-75-239-225-239s-225 81-225 242c0 151 76 227 227 227zm346 649c0-146-78-149-248-149H504c-153 0-230 66-230 198 0 116 90 174 271 174 263 0 395-74 395-223" id="cv"/><path d="M1112-551c0 331-186 571-502 571-301 0-495-251-495-571 0-330 184-567 501-567 302 0 496 249 496 567zM614-131c207 0 310-140 310-420 0-277-104-416-312-416-206 0-309 139-309 416 0 280 104 420 311 420" id="cw"/><path d="M137-547c0-322 136-571 430-571 137 0 245 53 322 160h12c-24-215-7-376-12-598h182V0H924l-27-147h-8C814-36 706 20 567 20c-294 0-430-246-430-567zm463 416c241 0 288-157 289-416 0-151-23-259-69-323s-121-97-222-97c-181 0-272 141-272 422 0 276 91 414 274 414" id="cx"/><g id="W"><use transform="matrix(0.0078125,0,0,0.0078125,0,0)" xlink:href="#ci"/><use transform="matrix(0.0078125,0,0,0.0078125,9.6015625,0)" xlink:href="#cj"/><use transform="matrix(0.0078125,0,0,0.0078125,19.203125,0)" xlink:href="#ck"/><use transform="matrix(0.0078125,0,0,0.0078125,28.8046875,0)" xlink:href="#cl"/><use transform="matrix(0.0078125,0,0,0.0078125,38.40625,0)" xlink:href="#cm"/><use transform="matrix(0.0078125,0,0,0.0078125,48.0078125,0)" xlink:href="#cn"/><use transform="matrix(0.0078125,0,0,0.0078125,57.609375,0)" xlink:href="#co"/><use transform="matrix(0.0078125,0,0,0.0078125,67.2109375,0)" xlink:href="#cp"/><use transform="matrix(0.0078125,0,0,0.0078125,76.8125,0)" xlink:href="#cq"/><use transform="matrix(0.0078125,0,0,0.0078125,86.4140625,0)" xlink:href="#co"/><use transform="matrix(0.0078125,0,0,0.0078125,96.015625,0)" xlink:href="#cr"/><use transform="matrix(0.0078125,0,0,0.0078125,105.6171875,0)" xlink:href="#cs"/><use transform="matrix(0.0078125,0,0,0.0078125,115.21875,0)" xlink:href="#ct"/><use transform="matrix(0.0078125,0,0,0.0078125,124.8203125,0)" xlink:href="#co"/><use transform="matrix(0.0078125,0,0,0.0078125,134.421875,0)" xlink:href="#cu"/><use transform="matrix(0.0078125,0,0,0.0078125,144.0234375,0)" xlink:href="#cp"/><use transform="matrix(0.0078125,0,0,0.0078125,153.625,0)" xlink:href="#cl"/><use transform="matrix(0.0078125,0,0,0.0078125,163.2265625,0)" xlink:href="#cn"/><use transform="matrix(0.0078125,0,0,0.0078125,172.828125,0)" xlink:href="#ci"/><use transform="matrix(0.0078125,0,0,0.0078125,182.4296875,0)" xlink:href="#ck"/><use transform="matrix(0.0078125,0,0,0.0078125,192.03125,0)" xlink:href="#co"/><use transform="matrix(0.0078125,0,0,0.0078125,201.6328125,0)" xlink:href="#cr"/><use transform="matrix(0.0078125,0,0,0.0078125,211.234375,0)" xlink:href="#cm"/><use transform="matrix(0.0078125,0,0,0.0078125,220.8359375,0)" xlink:href="#cu"/><use transform="matrix(0.0078125,0,0,0.0078125,230.4375,0)" xlink:href="#cp"/><use transform="matrix(0.0078125,0,0,0.0078125,240.0390625,0)" xlink:href="#cv"/><use transform="matrix(0.0078125,0,0,0.0078125,249.640625,0)" xlink:href="#co"/><use transform="matrix(0.0078125,0,0,0.0078125,259.2421875,0)" xlink:href="#cw"/><use transform="matrix(0.0078125,0,0,0.0078125,268.84375,0)" xlink:href="#ck"/><use transform="matrix(0.0078125,0,0,0.0078125,278.4453125,0)" xlink:href="#cq"/><use transform="matrix(0.0078125,0,0,0.0078125,288.046875,0)" xlink:href="#cp"/><use transform="matrix(0.0078125,0,0,0.0078125,297.6484375,0)" xlink:href="#cr"/><use transform="matrix(0.0078125,0,0,0.0078125,307.25,0)" xlink:href="#cx"/></g><path fill="#008a0e" d="M30-248c118-7 216 8 213 122C240-48 200 0 122 0H30v-248zM63-27c89 8 146-16 146-99s-60-101-146-95v194" id="cy"/><path fill="#008a0e" d="M141-36C126-15 110 5 73 4 37 3 15-17 15-53c-1-64 63-63 125-63 3-35-9-54-41-54-24 1-41 7-42 31l-33-3c5-37 33-52 76-52 45 0 72 20 72 64v82c-1 20 7 32 28 27v20c-31 9-61-2-59-35zM48-53c0 20 12 33 32 33 41-3 63-29 60-74-43 2-92-5-92 41" id="cz"/><path fill="#008a0e" d="M59-47c-2 24 18 29 38 22v24C64 9 27 4 27-40v-127H5v-23h24l9-43h21v43h35v23H59v120" id="cA"/><g id="X"><use transform="matrix(0.06172839506172839,0,0,0.06172839506172839,0,0)" xlink:href="#cy"/><use transform="matrix(0.06172839506172839,0,0,0.06172839506172839,15.987654320987653,0)" xlink:href="#cz"/><use transform="matrix(0.06172839506172839,0,0,0.06172839506172839,28.333333333333332,0)" xlink:href="#cA"/><use transform="matrix(0.06172839506172839,0,0,0.06172839506172839,34.50617283950617,0)" xlink:href="#cz"/></g><path fill="#008a0e" d="M30-248c87 1 191-15 191 75 0 78-77 80-158 76V0H30v-248zm33 125c57 0 124 11 124-50 0-59-68-47-124-48v98" id="cB"/><path fill="#008a0e" d="M24 0v-261h32V0H24" id="cC"/><path fill="#008a0e" d="M117-194c89-4 53 116 60 194h-32v-121c0-31-8-49-39-48C34-167 62-67 57 0H25l-1-190h30c1 10-1 24 2 32 11-22 29-35 61-36" id="cD"/><path fill="#008a0e" d="M100-194c63 0 86 42 84 106H49c0 40 14 67 53 68 26 1 43-12 49-29l28 8c-11 28-37 45-77 45C44 4 14-33 15-96c1-61 26-98 85-98zm52 81c6-60-76-77-97-28-3 7-6 17-6 28h103" id="cE"/><g id="Y"><use transform="matrix(0.06172839506172839,0,0,0.06172839506172839,0,0)" xlink:href="#cB"/><use transform="matrix(0.06172839506172839,0,0,0.06172839506172839,14.814814814814813,0)" xlink:href="#cC"/><use transform="matrix(0.06172839506172839,0,0,0.06172839506172839,19.691358024691354,0)" xlink:href="#cz"/><use transform="matrix(0.06172839506172839,0,0,0.06172839506172839,32.03703703703703,0)" xlink:href="#cD"/><use transform="matrix(0.06172839506172839,0,0,0.06172839506172839,44.38271604938271,0)" xlink:href="#cE"/></g><path fill="#1071e5" d="M212-179c-10-28-35-45-73-45-59 0-87 40-87 99 0 60 29 101 89 101 43 0 62-24 78-52l27 14C228-24 195 4 139 4 59 4 22-46 18-125c-6-104 99-153 187-111 19 9 31 26 39 46" id="cF"/><path fill="#1071e5" d="M100-194c62-1 85 37 85 99 1 63-27 99-86 99S16-35 15-95c0-66 28-99 85-99zM99-20c44 1 53-31 53-75 0-43-8-75-51-75s-53 32-53 75 10 74 51 75" id="cG"/><path fill="#1071e5" d="M117-194c89-4 53 116 60 194h-32v-121c0-31-8-49-39-48C34-167 62-67 57 0H25l-1-190h30c1 10-1 24 2 32 11-22 29-35 61-36" id="cH"/><path fill="#1071e5" d="M59-47c-2 24 18 29 38 22v24C64 9 27 4 27-40v-127H5v-23h24l9-43h21v43h35v23H59v120" id="cI"/><path fill="#1071e5" d="M114-163C36-179 61-72 57 0H25l-1-190h30c1 12-1 29 2 39 6-27 23-49 58-41v29" id="cJ"/><path fill="#1071e5" d="M24 0v-261h32V0H24" id="cK"/><g id="Z"><use transform="matrix(0.06172839506172839,0,0,0.06172839506172839,0,0)" xlink:href="#cF"/><use transform="matrix(0.06172839506172839,0,0,0.06172839506172839,15.987654320987653,0)" xlink:href="#cG"/><use transform="matrix(0.06172839506172839,0,0,0.06172839506172839,28.333333333333332,0)" xlink:href="#cH"/><use transform="matrix(0.06172839506172839,0,0,0.06172839506172839,40.67901234567901,0)" xlink:href="#cI"/><use transform="matrix(0.06172839506172839,0,0,0.06172839506172839,46.851851851851855,0)" xlink:href="#cJ"/><use transform="matrix(0.06172839506172839,0,0,0.06172839506172839,54.19753086419753,0)" xlink:href="#cG"/><use transform="matrix(0.06172839506172839,0,0,0.06172839506172839,66.54320987654322,0)" xlink:href="#cK"/></g><path fill="#1071e5" d="M30-248c87 1 191-15 191 75 0 78-77 80-158 76V0H30v-248zm33 125c57 0 124 11 124-50 0-59-68-47-124-48v98" id="cL"/><path fill="#1071e5" d="M141-36C126-15 110 5 73 4 37 3 15-17 15-53c-1-64 63-63 125-63 3-35-9-54-41-54-24 1-41 7-42 31l-33-3c5-37 33-52 76-52 45 0 72 20 72 64v82c-1 20 7 32 28 27v20c-31 9-61-2-59-35zM48-53c0 20 12 33 32 33 41-3 63-29 60-74-43 2-92-5-92 41" id="cM"/><path fill="#1071e5" d="M100-194c63 0 86 42 84 106H49c0 40 14 67 53 68 26 1 43-12 49-29l28 8c-11 28-37 45-77 45C44 4 14-33 15-96c1-61 26-98 85-98zm52 81c6-60-76-77-97-28-3 7-6 17-6 28h103" id="cN"/><g id="aa"><use transform="matrix(0.06172839506172839,0,0,0.06172839506172839,0,0)" xlink:href="#cL"/><use transform="matrix(0.06172839506172839,0,0,0.06172839506172839,14.814814814814813,0)" xlink:href="#cK"/><use transform="matrix(0.06172839506172839,0,0,0.06172839506172839,19.691358024691354,0)" xlink:href="#cM"/><use transform="matrix(0.06172839506172839,0,0,0.06172839506172839,32.03703703703703,0)" xlink:href="#cH"/><use transform="matrix(0.06172839506172839,0,0,0.06172839506172839,44.38271604938271,0)" xlink:href="#cN"/></g><g id="ab"><use transform="matrix(0.04938271604938272,0,0,0.04938271604938272,0,0)" xlink:href="#aO"/><use transform="matrix(0.04938271604938272,0,0,0.04938271604938272,10.814814814814815,0)" xlink:href="#aP"/><use transform="matrix(0.04938271604938272,0,0,0.04938271604938272,23.60493827160494,0)" xlink:href="#aQ"/><use transform="matrix(0.04938271604938272,0,0,0.04938271604938272,35.45679012345679,0)" xlink:href="#aU"/><use transform="matrix(0.04938271604938272,0,0,0.04938271604938272,40.39506172839506,0)" xlink:href="#aX"/><use transform="matrix(0.04938271604938272,0,0,0.04938271604938272,50.27160493827161,0)" xlink:href="#aY"/><use transform="matrix(0.04938271604938272,0,0,0.04938271604938272,60.14814814814815,0)" xlink:href="#aZ"/><use transform="matrix(0.04938271604938272,0,0,0.04938271604938272,70.0246913580247,0)" xlink:href="#aV"/><use transform="matrix(0.04938271604938272,0,0,0.04938271604938272,79.90123456790124,0)" xlink:href="#aY"/></g><path fill="#333" d="M67-93c0 74 22 123 53 168H70C40 30 18-18 18-93s22-123 52-168h50c-32 44-53 94-53 168" id="cO"/><path fill="#333" d="M195 0l-88-114-31 24V0H24v-248h52v113l112-113h60L142-143 257 0h-62" id="cP"/><path fill="#333" d="M85 4C-2 5 27-109 22-190h50c7 57-23 150 33 157 60-5 35-97 40-157h50l1 190h-47c-2-12 1-28-3-38-12 25-28 42-61 42" id="cQ"/><path fill="#333" d="M135-194c52 0 70 43 70 98 0 56-19 99-73 100-30 1-46-15-58-35L72 0H24l1-261h50v104c11-23 29-37 60-37zM114-30c31 0 40-27 40-66 0-37-7-63-39-63s-41 28-41 65c0 36 8 64 40 64" id="cR"/><path fill="#333" d="M102-93c0 74-22 123-52 168H0C30 29 54-18 53-93c0-74-22-123-53-168h50c30 45 52 94 52 168" id="cS"/><g id="ac"><use transform="matrix(0.04938271604938272,0,0,0.04938271604938272,0,0)" xlink:href="#cO"/><use transform="matrix(0.04938271604938272,0,0,0.04938271604938272,5.8765432098765435,0)" xlink:href="#cP"/><use transform="matrix(0.04938271604938272,0,0,0.04938271604938272,18.666666666666668,0)" xlink:href="#cQ"/><use transform="matrix(0.04938271604938272,0,0,0.04938271604938272,29.481481481481477,0)" xlink:href="#cR"/><use transform="matrix(0.04938271604938272,0,0,0.04938271604938272,40.2962962962963,0)" xlink:href="#aK"/><use transform="matrix(0.04938271604938272,0,0,0.04938271604938272,50.17283950617284,0)" xlink:href="#aL"/><use transform="matrix(0.04938271604938272,0,0,0.04938271604938272,55.111111111111114,0)" xlink:href="#aK"/><use transform="matrix(0.04938271604938272,0,0,0.04938271604938272,64.98765432098766,0)" xlink:href="#bf"/><use transform="matrix(0.04938271604938272,0,0,0.04938271604938272,70.8641975308642,0)" xlink:href="#cS"/></g><path fill="#333" d="M165-50V0h-47v-50H5v-38l105-160h55v161h33v37h-33zm-47-37l2-116L46-87h72" id="cT"/><g id="ad"><use transform="matrix(0.04938271604938272,0,0,0.04938271604938272,0,0)" xlink:href="#aO"/><use transform="matrix(0.04938271604938272,0,0,0.04938271604938272,10.814814814814815,0)" xlink:href="#aP"/><use transform="matrix(0.04938271604938272,0,0,0.04938271604938272,23.60493827160494,0)" xlink:href="#aQ"/><use transform="matrix(0.04938271604938272,0,0,0.04938271604938272,35.45679012345679,0)" xlink:href="#aU"/><use transform="matrix(0.04938271604938272,0,0,0.04938271604938272,40.39506172839506,0)" xlink:href="#cT"/><use transform="matrix(0.04938271604938272,0,0,0.04938271604938272,50.27160493827161,0)" xlink:href="#cT"/><use transform="matrix(0.04938271604938272,0,0,0.04938271604938272,60.14814814814815,0)" xlink:href="#aW"/></g><g id="ae"><use transform="matrix(0.04938271604938272,0,0,0.04938271604938272,0,0)" xlink:href="#aY"/><use transform="matrix(0.04938271604938272,0,0,0.04938271604938272,9.876543209876544,0)" xlink:href="#bK"/><use transform="matrix(0.04938271604938272,0,0,0.04938271604938272,14.814814814814817,0)" xlink:href="#aY"/><use transform="matrix(0.04938271604938272,0,0,0.04938271604938272,24.69135802469136,0)" xlink:href="#bK"/><use transform="matrix(0.04938271604938272,0,0,0.04938271604938272,29.629629629629633,0)" xlink:href="#aY"/><use transform="matrix(0.04938271604938272,0,0,0.04938271604938272,39.50617283950618,0)" xlink:href="#bK"/><use transform="matrix(0.04938271604938272,0,0,0.04938271604938272,44.44444444444445,0)" xlink:href="#aY"/><use transform="matrix(0.04938271604938272,0,0,0.04938271604938272,54.320987654320994,0)" xlink:href="#aU"/><use transform="matrix(0.04938271604938272,0,0,0.04938271604938272,59.25925925925927,0)" xlink:href="#aY"/></g><g id="af"><use transform="matrix(0.06172839506172839,0,0,0.06172839506172839,0,0)" xlink:href="#bL"/><use transform="matrix(0.06172839506172839,0,0,0.06172839506172839,14.814814814814813,0)" xlink:href="#bM"/><use transform="matrix(0.06172839506172839,0,0,0.06172839506172839,27.160493827160494,0)" xlink:href="#bN"/><use transform="matrix(0.06172839506172839,0,0,0.06172839506172839,39.50617283950617,0)" xlink:href="#bO"/><use transform="matrix(0.06172839506172839,0,0,0.06172839506172839,44.382716049382715,0)" xlink:href="#bP"/><use transform="matrix(0.06172839506172839,0,0,0.06172839506172839,49.25925925925926,0)" xlink:href="#bQ"/></g><g id="ag"><use transform="matrix(0.06172839506172839,0,0,0.06172839506172839,0,0)" xlink:href="#bR"/><use transform="matrix(0.06172839506172839,0,0,0.06172839506172839,6.172839506172839,0)" xlink:href="#bS"/><use transform="matrix(0.06172839506172839,0,0,0.06172839506172839,18.51851851851852,0)" xlink:href="#bT"/><use transform="matrix(0.06172839506172839,0,0,0.06172839506172839,24.691358024691358,0)" xlink:href="#bU"/><use transform="matrix(0.06172839506172839,0,0,0.06172839506172839,37.03703703703704,0)" xlink:href="#bV"/><use transform="matrix(0.06172839506172839,0,0,0.06172839506172839,44.382716049382715,0)" xlink:href="#bS"/><use transform="matrix(0.06172839506172839,0,0,0.06172839506172839,56.72839506172839,0)" xlink:href="#bU"/><use transform="matrix(0.06172839506172839,0,0,0.06172839506172839,69.07407407407408,0)" xlink:href="#bT"/></g><path fill="#333" d="M138-131c27 9 52 24 51 61 0 53-36 74-89 74S11-19 11-69c0-35 22-54 51-61-78-25-46-121 38-121 51 0 83 19 83 66 0 30-18 49-45 54zm-38-16c24 0 32-13 32-36 1-23-11-34-32-34-22 0-33 12-32 34 0 22 9 36 32 36zm1 116c27 0 37-17 37-43 0-25-13-39-39-39-24 0-37 15-37 40 0 27 11 42 39 42" id="cU"/><g id="ah"><use transform="matrix(0.04938271604938272,0,0,0.04938271604938272,0,0)" xlink:href="#aO"/><use transform="matrix(0.04938271604938272,0,0,0.04938271604938272,10.814814814814815,0)" xlink:href="#aP"/><use transform="matrix(0.04938271604938272,0,0,0.04938271604938272,23.60493827160494,0)" xlink:href="#aQ"/><use transform="matrix(0.04938271604938272,0,0,0.04938271604938272,35.45679012345679,0)" xlink:href="#aU"/><use transform="matrix(0.04938271604938272,0,0,0.04938271604938272,40.39506172839506,0)" xlink:href="#cU"/><use transform="matrix(0.04938271604938272,0,0,0.04938271604938272,50.27160493827161,0)" xlink:href="#cT"/><use transform="matrix(0.04938271604938272,0,0,0.04938271604938272,60.14814814814815,0)" xlink:href="#cT"/><use transform="matrix(0.04938271604938272,0,0,0.04938271604938272,70.0246913580247,0)" xlink:href="#aW"/></g><path fill="#333" d="M99-251c69 0 84 53 88 123 5 99-61 162-144 118-15-8-21-25-26-45l46-6c4 31 50 33 63 7 7-15 12-36 12-60-9 18-29 28-54 28-48 0-72-32-72-82 0-55 31-83 87-83zm-1 128c24 0 37-16 37-39 0-27-10-51-37-51-25 0-35 19-35 45 0 25 10 45 35 45" id="cV"/><g id="ai"><use transform="matrix(0.04938271604938272,0,0,0.04938271604938272,0,0)" xlink:href="#aO"/><use transform="matrix(0.04938271604938272,0,0,0.04938271604938272,10.814814814814815,0)" xlink:href="#aP"/><use transform="matrix(0.04938271604938272,0,0,0.04938271604938272,23.60493827160494,0)" xlink:href="#aQ"/><use transform="matrix(0.04938271604938272,0,0,0.04938271604938272,35.45679012345679,0)" xlink:href="#aU"/><use transform="matrix(0.04938271604938272,0,0,0.04938271604938272,40.39506172839506,0)" xlink:href="#cV"/><use transform="matrix(0.04938271604938272,0,0,0.04938271604938272,50.27160493827161,0)" xlink:href="#cT"/><use transform="matrix(0.04938271604938272,0,0,0.04938271604938272,60.14814814814815,0)" xlink:href="#cT"/><use transform="matrix(0.04938271604938272,0,0,0.04938271604938272,70.0246913580247,0)" xlink:href="#aW"/></g><g id="aj"><use transform="matrix(0.04938271604938272,0,0,0.04938271604938272,0,0)" xlink:href="#bc"/><use transform="matrix(0.04938271604938272,0,0,0.04938271604938272,5.8765432098765435,0)" xlink:href="#bd"/><use transform="matrix(0.04938271604938272,0,0,0.04938271604938272,19.703703703703706,0)" xlink:href="#be"/><use transform="matrix(0.04938271604938272,0,0,0.04938271604938272,30.518518518518523,0)" xlink:href="#bf"/><use transform="matrix(0.04938271604938272,0,0,0.04938271604938272,36.39506172839506,0)" xlink:href="#bg"/></g><path d="M190 0L58-211 59 0H30v-248h39L202-35l-2-213h31V0h-41" id="cW"/><g id="ak"><use transform="matrix(0.05,0,0,0.05,0,0)" xlink:href="#cW"/><use transform="matrix(0.05,0,0,0.05,12.950000000000001,0)" xlink:href="#bw"/><use transform="matrix(0.05,0,0,0.05,22.950000000000003,0)" xlink:href="#bH"/><use transform="matrix(0.05,0,0,0.05,32.95,0)" xlink:href="#bp"/></g><g id="al"><use transform="matrix(0.05,0,0,0.05,0,0)" xlink:href="#ca"/><use transform="matrix(0.05,0,0,0.05,14,0)" xlink:href="#bq"/><use transform="matrix(0.05,0,0,0.05,19.95,0)" xlink:href="#bw"/><use transform="matrix(0.05,0,0,0.05,29.950000000000003,0)" xlink:href="#bn"/><use transform="matrix(0.05,0,0,0.05,39.95,0)" xlink:href="#cb"/></g></defs></g></svg>
