<svg xmlns="http://www.w3.org/2000/svg" xmlns:xlink="http://www.w3.org/1999/xlink" xmlns:lucid="lucid" width="1300" height="1109.37"><g transform="translate(-240 -60)" lucid:page-tab-id="0_0"><path d="M0 0h1760v1360H0z" fill="#fff"/><path d="M620 86c0-3.3 2.7-6 6-6h528c3.3 0 6 2.7 6 6v408c0 3.3-2.7 6-6 6H626c-3.3 0-6-2.7-6-6z" fill="#fff" fill-opacity="0"/><path d="M644 80h12m12 0h12m12 0h12m12 0h12m12 0h12m12 0h12m12 0h12m12 0h12m12 0h12m12 0h12m12 0h12m12 0h12m12 0h12m12 0h12m12 0h12m12 0h12m12 0h12m12 0h12m12 0h12m12 0h12m12 0h12m12 0h6l3.03.82 2.15 2.15.82 3.03v6m0 12v12m0 12v12m0 12v12m0 12v12m0 12v12m0 12v12m0 12v12m0 12v12m0 12v12m0 12v12m0 12v12m0 12v12m0 12v12m0 12v12m0 12v12m0 12v12m0 12v6l-.82 3.03-2.15 2.15-3.03.82h-6m-12 0h-12m-12 0h-12m-12 0h-12m-12 0h-12m-12 0h-12m-12 0h-12m-12 0h-12m-12 0h-12m-12 0h-12m-12 0h-12m-12 0h-12m-12 0h-12m-12 0h-12m-12 0h-12m-12 0h-12m-12 0h-12m-12 0h-12m-12 0h-12m-12 0h-12m-12 0h-12m-12 0h-12m-12 0h-6l-3.03-.82-2.15-2.15L620 494v-6m0-12v-12m0-12v-12m0-12v-12m0-12v-12m0-12v-12m0-12v-12m0-12v-12m0-12v-12m0-12v-12m0-12v-12m0-12v-12m0-12v-12m0-12v-12m0-12v-12m0-12v-12m0-12v-12m0-12v-6l.82-3.03 2.15-2.15L626 80h6" stroke="#5a6c86" stroke-width="3" fill="none"/><use xlink:href="#a" transform="matrix(1,0,0,1,620,100) translate(217.575 14.4)"/><use xlink:href="#b" transform="matrix(1,0,0,1,620,100) translate(280.425 14.4)"/><path d="M700 146c0-3.3 2.7-6 6-6h368c3.3 0 6 2.7 6 6v308c0 3.3-2.7 6-6 6H706c-3.3 0-6-2.7-6-6z" stroke="#dd3522" stroke-width="3" fill="#fff" fill-opacity="0"/><use xlink:href="#c" transform="matrix(1,0,0,1,700,160) translate(99.15 14.4)"/><use xlink:href="#d" transform="matrix(1,0,0,1,700,160) translate(161 14.4)"/><use xlink:href="#e" transform="matrix(1,0,0,1,700,160) translate(230.9 14.4)"/><path d="M260 549c0-3.3 2.7-6 6-6h1228c3.3 0 6 2.7 6 6v448c0 3.3-2.7 6-6 6H266c-3.3 0-6-2.7-6-6z" fill="#fff" fill-opacity="0"/><path d="M284.06 543h12.04m12.04 0h12.04m12.04 0h12.03m12.04 0h12.03m12.04 0h12.04m12.05 0h12.04m12.03 0h12.04m12.04 0h12.05m12.04 0h12.03m12.03 0h12.04m12.04 0h12.04m12.04 0h12.04m12.04 0h12.04m12.04 0h12.04m12.04 0h12.04m12.04 0h12.03m12.04 0h12.05m12.04 0h12.03m12.04 0h12.04m12.05 0h12.04m12.03 0h12.04m12.04 0h12.05m12.03 0h12.04m12.04 0h12.04m12.04 0h12.04m12.04 0h12.04m12.04 0h12.04m12.04 0h12.04m12.03 0h12.04m12.03 0h12.04m12.04 0h12.05m12.04 0h12.03m12.04 0h12.04m12.05 0h12.04m12.03 0h12.03m12.04 0h12.04m12.04 0h12.04m12.04 0H1187m12.04 0h12.04m12.04 0h12.04m12.04 0h12.04m12.03 0h12.04m12.05 0h12.04m12.03 0h12.04m12.04 0h12.05m12.04 0h12.03m12.04 0h12.04m12.05 0h12.03m12.04 0h12.04m12.04 0h12.04m12.04 0h6.02l3.03.82 2.15 2.15.82 3.03v5.9m0 11.78v11.8m0 11.78v11.8m0 11.78v11.8m0 11.78v11.8m0 11.78v11.8m0 11.78v11.8m0 11.78v11.8m0 11.78v11.8m0 11.78v11.8m0 11.77v11.78m0 11.8v11.78m0 11.8v11.78m0 11.8v11.78m0 11.8V885m0 11.8v11.78m0 11.8v11.78m0 11.8v11.78m0 11.8v11.78m0 11.8V997l-.82 3.03-2.15 2.15-3.03.82h-6.02m-12.04 0h-12.04m-12.04 0h-12.04m-12.04 0h-12.03m-12.04 0h-12.03m-12.04 0h-12.04m-12.05 0h-12.04m-12.03 0h-12.04m-12.04 0h-12.05m-12.04 0h-12.03m-12.03 0h-12.04m-12.04 0h-12.04m-12.04 0h-12.04m-12.04 0h-12.04m-12.04 0h-12.04m-12.04 0h-12.04m-12.04 0h-12.03m-12.04 0h-12.05m-12.04 0h-12.03m-12.04 0h-12.04m-12.05 0h-12.04m-12.03 0h-12.04m-12.04 0h-12.05m-12.03 0h-12.04m-12.04 0H910.1m-12.04 0h-12.04m-12.04 0h-12.04m-12.04 0h-12.04m-12.04 0h-12.04m-12.03 0H789.7m-12.03 0h-12.04m-12.04 0h-12.05m-12.04 0h-12.03m-12.04 0H693.4m-12.05 0H669.3m-12.03 0h-12.03m-12.04 0h-12.04m-12.04 0h-12.04m-12.04 0H573m-12.04 0h-12.04m-12.04 0h-12.04m-12.04 0h-12.04m-12.03 0H476.7m-12.05 0H452.6m-12.03 0h-12.04m-12.04 0h-12.05m-12.04 0h-12.03m-12.04 0H356.3m-12.05 0h-12.03m-12.04 0h-12.04m-12.04 0h-12.04m-12.04 0H266l-3.03-.82-2.15-2.15L260 997v-5.9m0-11.78v-11.8m0-11.78v-11.8m0-11.78v-11.8m0-11.78v-11.8m0-11.78v-11.8m0-11.78v-11.8m0-11.78v-11.8m0-11.78v-11.8m0-11.78v-11.8m0-11.77v-11.78m0-11.8v-11.78m0-11.8v-11.78m0-11.8V684.6m0-11.8V661m0-11.8v-11.78m0-11.8v-11.78m0-11.8v-11.78m0-11.8V566.7m0-11.8V549l.82-3.03 2.15-2.15L266 543h6.02" stroke="#5a6c86" stroke-width="3" fill="none"/><use xlink:href="#f" transform="matrix(1,0,0,1,260,563) translate(575.55 14.4)"/><use xlink:href="#g" transform="matrix(1,0,0,1,260,563) translate(618.5 14.4)"/><path d="M320 729c0-3.3 2.7-6 6-6h228c3.3 0 6 2.7 6 6v208c0 3.3-2.7 6-6 6H326c-3.3 0-6-2.7-6-6z" stroke="#dd3522" stroke-width="3" fill="#fff" fill-opacity="0"/><use xlink:href="#h" transform="matrix(1,0,0,1,320,743) translate(8.625 14.4)"/><use xlink:href="#i" transform="matrix(1,0,0,1,320,743) translate(56.575 14.4)"/><use xlink:href="#d" transform="matrix(1,0,0,1,320,743) translate(111.525 14.4)"/><use xlink:href="#e" transform="matrix(1,0,0,1,320,743) translate(181.425 14.4)"/><path d="M1200 729c0-3.3 2.7-6 6-6h228c3.3 0 6 2.7 6 6v208c0 3.3-2.7 6-6 6h-228c-3.3 0-6-2.7-6-6z" stroke="#dd3522" stroke-width="3" fill="#fff" fill-opacity="0"/><use xlink:href="#h" transform="matrix(1,0,0,1,1200,743) translate(8.625 14.4)"/><use xlink:href="#i" transform="matrix(1,0,0,1,1200,743) translate(56.575 14.4)"/><use xlink:href="#d" transform="matrix(1,0,0,1,1200,743) translate(111.525 14.4)"/><use xlink:href="#e" transform="matrix(1,0,0,1,1200,743) translate(181.425 14.4)"/><path d="M300 709c0-3.3 2.7-6 6-6h1148c3.3 0 6 2.7 6 6v248c0 3.3-2.7 6-6 6H306c-3.3 0-6-2.7-6-6z" stroke="#dd3522" stroke-width="3" fill="#fff" fill-opacity="0"/><use xlink:href="#c" transform="matrix(1,0,0,1,300,723) translate(465.17499999999995 14.4)"/><use xlink:href="#j" transform="matrix(1,0,0,1,300,723) translate(527.025 14.4)"/><use xlink:href="#d" transform="matrix(1,0,0,1,300,723) translate(574.9749999999999 14.4)"/><use xlink:href="#e" transform="matrix(1,0,0,1,300,723) translate(644.875 14.4)"/><path d="M740 206c0-3.3 2.7-6 6-6h288c3.3 0 6 2.7 6 6v208c0 3.3-2.7 6-6 6H746c-3.3 0-6-2.7-6-6z" stroke="#dd3522" stroke-width="3" fill="#fff" fill-opacity="0"/><use xlink:href="#k" transform="matrix(1,0,0,1,740,220) translate(12.5 14.4)"/><use xlink:href="#l" transform="matrix(1,0,0,1,740,220) translate(64.8 14.4)"/><use xlink:href="#m" transform="matrix(1,0,0,1,740,220) translate(105.8 14.4)"/><use xlink:href="#d" transform="matrix(1,0,0,1,740,220) translate(167.65 14.4)"/><use xlink:href="#e" transform="matrix(1,0,0,1,740,220) translate(237.55 14.4)"/><path d="M820 260h120v120H820V260z" stroke="#fff" stroke-opacity="0" stroke-width="2" fill="#d86613"/><path d="M880 363.22c-.3 0-.5-.1-.8-.18l-36.8-21.26c-.5-.35-.8-.78-.8-1.4v-42.52c0-.6.3-1.12.8-1.38l33.63-19.45c.5-.35 1.03-.35 1.54 0 .52.26.8.78.8 1.38v18.43c0 .6-.28 1.03-.8 1.38L860.8 308v22.2l19.2 11.08 16.77-9.6c.52-.26 1.1-.26 1.55 0l16.03 9.25c.74.45 1.03 1.4.6 2.17-.15.26-.3.44-.6.6l-33.54 19.37c-.28.1-.5.18-.8.18zm-35.16-23.78L880 359.76l30.38-17.55-12.8-7.42-16.77 9.76c-.5.26-1.1.26-1.6 0l-20.83-12c-.5-.36-.8-.8-.8-1.4V307.1c0-.6.3-1.1.8-1.37l16.85-9.77v-14.78l-30.38 17.55z" stroke="#fff" stroke-opacity="0" stroke-width="2" fill="#fff"/><path d="M916.82 338.3c-.3 0-.55-.07-.8-.2L900 328.9c-.52-.3-.77-.85-.74-1.4V308l-16.85-9.57c-.5-.3-.8-.8-.8-1.42v-18.44c0-.62.3-1.1.8-1.42.52-.24 1.08-.24 1.6 0l33.6 19.32c.5.3.8.8.8 1.4v38.83c0 .85-.7 1.6-1.58 1.6zm-14.43-11.73l12.8 7.36V298.8l-30.4-17.5v14.8l16.78 9.62c.52.25.8.74.8 1.35z" stroke="#fff" stroke-opacity="0" stroke-width="2" fill="#fff"/><path d="M872 331.18v-24h3.2v10.92l10.4-10.92h4.23l-10.85 11.7 11.8 12.3h-4.38l-11.2-11.2v11.2z" stroke="#fff" stroke-opacity="0" stroke-width="2" fill="#fff"/><use xlink:href="#n" transform="matrix(1,0,0,1,790,389) translate(67.77777777777777 17.77777777777778)"/><path d="M476.33 873h-34.36c-2.05 0-3.67-1.63-3.67-3.67v-34.28c0-2.08 1.67-3.75 3.75-3.75h34.2c2.08 0 3.75 1.67 3.75 3.75v34.28c0 2.04-1.63 3.67-3.67 3.67zm-34.28-38.28c-.17 0-.33.16-.33.33v34.28c0 .17.08.25.25.25h34.36c.17 0 .25-.08.25-.25v-34.28c0-.17-.17-.33-.33-.33z" stroke="#fff" stroke-opacity="0" fill="#d86613"/><path d="M435.1 853.85h-13.84c-2.08-.04-3.75-1.75-3.7-3.84v-34c-.05-2.1 1.62-3.8 3.7-3.85h34.24c2.08 0 3.75 1.67 3.75 3.75v12.4h-3.42V816c0-.22-.12-.4-.33-.4h-34.24c-.17 0-.33.18-.38.4v34c.05.22.2.4.38.4h13.8z" stroke="#fff" stroke-opacity="0" fill="#d86613"/><path d="M414.47 834.7h-10.72c-2.08 0-3.75-1.67-3.75-3.75v-34.2c0-2.08 1.67-3.75 3.75-3.75h34.2c2.08 0 3.75 1.67 3.75 3.75v12.3h-3.42v-12.3c0-.16-.16-.33-.33-.33h-34.2c-.16 0-.33.17-.33.33v34.2c0 .17.17.33.33.33h10.72z" stroke="#fff" stroke-opacity="0" fill="#d86613"/><path d="M455.58 853.85h-34.36c-2.05 0-3.67-1.63-3.67-3.67V815.9c0-2.08 1.67-3.75 3.75-3.75h34.2c2.08 0 3.75 1.67 3.75 3.75v34.28c0 2.04-1.63 3.67-3.67 3.67zm-34.28-38.28c-.17 0-.33.17-.33.33v34.28c0 .17.08.25.25.25h34.36c.17 0 .25-.08.25-.25V815.9c0-.16-.17-.33-.33-.33z" stroke="#fff" stroke-opacity="0" fill="#fff" fill-opacity="0"/><path d="M438.03 834.7h-34.36c-2.04 0-3.67-1.62-3.67-3.67v-34.28c0-2.08 1.67-3.75 3.75-3.75h34.2c2.08 0 3.75 1.67 3.75 3.75v34.28c0 2.05-1.62 3.67-3.67 3.67zm-34.28-38.28c-.16 0-.33.17-.33.33v34.28c0 .17.08.25.25.25h34.36c.17 0 .25-.08.25-.25v-34.28c0-.16-.16-.33-.33-.33z" stroke="#fff" stroke-opacity="0" fill="#fff" fill-opacity="0"/><use xlink:href="#o" transform="matrix(1,0,0,1,370,882) translate(9.567901234567906 17.77777777777778)"/><use xlink:href="#p" transform="matrix(1,0,0,1,370,882) translate(68.76543209876544 17.77777777777778)"/><path d="M1356.33 873h-34.36c-2.05 0-3.67-1.63-3.67-3.67v-34.28c0-2.08 1.67-3.75 3.75-3.75h34.2c2.08 0 3.75 1.67 3.75 3.75v34.28c0 2.04-1.63 3.67-3.67 3.67zm-34.28-38.28c-.17 0-.33.16-.33.33v34.28c0 .17.08.25.25.25h34.36c.17 0 .25-.08.25-.25v-34.28c0-.17-.17-.33-.33-.33z" stroke="#fff" stroke-opacity="0" fill="#d86613"/><path d="M1315.1 853.85h-13.84c-2.08-.04-3.75-1.75-3.7-3.84v-34c-.05-2.1 1.62-3.8 3.7-3.85h34.24c2.08 0 3.75 1.67 3.75 3.75v12.4h-3.42V816c0-.22-.12-.4-.33-.4h-34.24c-.17 0-.33.18-.38.4v34c.05.22.2.4.38.4h13.8z" stroke="#fff" stroke-opacity="0" fill="#d86613"/><path d="M1294.47 834.7h-10.72c-2.08 0-3.75-1.67-3.75-3.75v-34.2c0-2.08 1.67-3.75 3.75-3.75h34.2c2.08 0 3.75 1.67 3.75 3.75v12.3h-3.42v-12.3c0-.16-.16-.33-.33-.33h-34.2c-.16 0-.33.17-.33.33v34.2c0 .17.17.33.33.33h10.72z" stroke="#fff" stroke-opacity="0" fill="#d86613"/><path d="M1335.58 853.85h-34.36c-2.05 0-3.67-1.63-3.67-3.67V815.9c0-2.08 1.67-3.75 3.75-3.75h34.2c2.08 0 3.75 1.67 3.75 3.75v34.28c0 2.04-1.63 3.67-3.67 3.67zm-34.28-38.28c-.17 0-.33.17-.33.33v34.28c0 .17.08.25.25.25h34.36c.17 0 .25-.08.25-.25V815.9c0-.16-.17-.33-.33-.33z" stroke="#fff" stroke-opacity="0" fill="#fff" fill-opacity="0"/><path d="M1318.03 834.7h-34.36c-2.04 0-3.67-1.62-3.67-3.67v-34.28c0-2.08 1.67-3.75 3.75-3.75h34.2c2.08 0 3.75 1.67 3.75 3.75v34.28c0 2.05-1.62 3.67-3.67 3.67zm-34.28-38.28c-.16 0-.33.17-.33.33v34.28c0 .17.08.25.25.25h34.36c.17 0 .25-.08.25-.25v-34.28c0-.16-.16-.33-.33-.33z" stroke="#fff" stroke-opacity="0" fill="#fff" fill-opacity="0"/><use xlink:href="#o" transform="matrix(1,0,0,1,1250,882) translate(9.567901234567906 17.77777777777778)"/><use xlink:href="#p" transform="matrix(1,0,0,1,1250,882) translate(68.76543209876544 17.77777777777778)"/><path d="M828.25 804H598.5v-2h229.75m333.25 2H931.76v-2h229.74M597.5 807.64L583.26 803l14.26-4.64z" fill="#5e5e5e"/><path d="M598.5 809l-18.5-6 18.5-6m-12.02 6l10.03 3.26v-6.52M1176.76 803l-14.26 4.64v-9.28z" fill="#5e5e5e"/><path d="M1180 803l-18.5 6v-12m2 9.26l10.03-3.26-10.03-3.26" fill="#5e5e5e"/><use xlink:href="#q" transform="matrix(1,0,0,1,828.2514135352471,792.3333333333335) translate(0 14.222222222222223)"/><use xlink:href="#r" transform="matrix(1,0,0,1,828.2514135352471,792.3333333333335) translate(43.35802469135803 14.222222222222223)"/><path d="M827.26 824H598.5v-2h228.76m334.24 2H932.75v-2h228.75M597.5 827.64L583.26 823l14.26-4.64z" fill="#5e5e5e"/><path d="M598.5 829l-18.5-6 18.5-6m-12.02 6l10.03 3.26v-6.52M1176.76 823l-14.26 4.64v-9.28z" fill="#5e5e5e"/><path d="M1180 823l-18.5 6v-12m2 9.26l10.03-3.26-10.03-3.26" fill="#5e5e5e"/><use xlink:href="#q" transform="matrix(1,0,0,1,827.2637592142595,812.3333333333334) translate(0 14.222222222222223)"/><use xlink:href="#s" transform="matrix(1,0,0,1,827.2637592142595,812.3333333333334) translate(43.35802469135803 14.222222222222223)"/><path d="M823.3 844H598.5v-2h224.8m338.2 2H936.7v-2h224.8M597.5 847.64L583.26 843l14.26-4.64z" fill="#5e5e5e"/><path d="M598.5 849l-18.5-6 18.5-6m-12.02 6l10.03 3.26v-6.52M1176.76 843l-14.26 4.64v-9.28z" fill="#5e5e5e"/><path d="M1180 843l-18.5 6v-12m2 9.26l10.03-3.26-10.03-3.26" fill="#5e5e5e"/><use xlink:href="#q" transform="matrix(1,0,0,1,823.3131419303089,832.3333333333334) translate(0 14.222222222222223)"/><use xlink:href="#t" transform="matrix(1,0,0,1,823.3131419303089,832.3333333333334) translate(43.35802469135803 14.222222222222223)"/><path d="M600 729c0-3.3 2.7-6 6-6h528c3.3 0 6 2.7 6 6v66.27c0 3.3-2.7 6-6 6H606c-3.3 0-6-2.7-6-6z" stroke="#000" stroke-opacity="0" stroke-width="3" fill="#fff" fill-opacity="0"/><use xlink:href="#u" transform="matrix(1,0,0,1,605,728.0000000000001) translate(50.15493827160495 39.34027777777778)"/><use xlink:href="#v" transform="matrix(1,0,0,1,605,728.0000000000001) translate(92.06851851851853 39.34027777777778)"/><use xlink:href="#w" transform="matrix(1,0,0,1,605,728.0000000000001) translate(105.58703703703705 39.34027777777778)"/><use xlink:href="#x" transform="matrix(1,0,0,1,605,728.0000000000001) translate(119.1672839506173 39.34027777777778)"/><use xlink:href="#y" transform="matrix(1,0,0,1,605,728.0000000000001) translate(408.633950617284 39.34027777777778)"/><use xlink:href="#z" transform="matrix(1,0,0,1,605,728.0000000000001) translate(418.26358024691353 39.34027777777778)"/><use xlink:href="#A" transform="matrix(1,0,0,1,605,728.0000000000001) translate(474.06728395061725 39.34027777777778)"/><a xlink:href="http://kubernetes.io/cluster/&lt;cluster-name&gt;" target="_blank" transform="matrix(1,0,0,1,605,728.0000000000001)"><path class="lucid-link lucid-hotspot lucid-overlay-hotspot" fill-opacity="0" d="M119.17 21.56h284.65v26.67H119.17z"/></a><path d="M1043.3 642.07l2.5 6.2 2.22 6.18 1.94 6.27 1.7 6.42 1.45 6.63 1.23 6.93.3 2.25-1.98.27-.3-2.2-1.2-6.86-1.44-6.55-1.67-6.33-1.9-6.2-2.2-6.1-2.46-6.1-1.4-3.07h2.2m-97.53-169.54l1.85 8.4 2.1 8.02 2.4 7.7 2.66 7.5 2.98 7.4 3.35 7.38 3.8 7.5 4.37 7.84 5.22 8.47 6.62 9.83 10.27 13.86 32.15 41.64 6.1 9 2.24 3.66h-2.36l-1.58-2.56-6.03-8.93-32.14-41.6-10.3-13.92-6.7-9.9-5.26-8.54-4.42-7.9-3.83-7.58-3.4-7.46-3-7.46-2.7-7.58-2.42-7.8-2.14-8.08-1.86-8.5-1.4-7.98 1.96-.35" fill="#5e5e5e"/><path d="M943.34 462.34l-1.97.35-.2-1.2h2.03M1055.03 698.28l-5.92-13.8 9.25-.83z" fill="#5e5e5e"/><path d="M1055.32 701.5l-7.67-17.88 11.97-1.1m-9.04 2.84l4.15 9.7 2.34-10.3" fill="#5e5e5e"/><use xlink:href="#B" transform="matrix(1,0,0,1,1000.9251342618437,618.4622175948646) translate(0 14.222222222222223)"/><path d="M632.12 638.44l-3 3.95-2.67 3.83-2.38 3.75-2.13 3.7-1.9 3.65-1.73 3.65-1.53 3.66-1.37 3.7-1.22 3.73-1.06 3.8-.92 3.9-.76 4.03-.6 4.14-.47 4.32-.28 4.5-.1 3.76-2-.04.1-3.8.28-4.6.46-4.4.63-4.22.78-4.1.93-3.97 1.1-3.9 1.23-3.83 1.4-3.77 1.58-3.73 1.76-3.73 1.95-3.74 2.16-3.76 2.43-3.82 2.7-3.9 3.05-4.02 1.82-2.2h2.6m158-154.9l-.68 3.53-.94 3.98-1.1 3.9-1.23 3.83-1.4 3.77-1.58 3.73-1.75 3.73-1.95 3.74-2.18 3.76-2.42 3.82-2.72 3.9-3.05 4.02-3.46 4.18-3.95 4.4-4.6 4.67-5.43 5.1-6.64 5.73-8.57 6.78-62.46 42.26-12.46 9.03-7.24 5.73H654l.63-.56 8.57-6.77 12.53-9.07 62.4-42.24 8.5-6.7 6.57-5.68 5.38-5.04 4.53-4.62 3.9-4.33 3.4-4.1 3.02-3.96 2.66-3.83 2.38-3.75 2.13-3.7 1.9-3.65 1.73-3.65 1.54-3.66 1.37-3.7 1.2-3.73 1.08-3.8.9-3.9.68-3.5" fill="#5e5e5e"/><path d="M610 700.5v1h-2v-1.05M796.68 479.33l-9.24-.78 5.83-13.83z" fill="#5e5e5e"/><path d="M797.97 480.44l-11.98-1 7.54-17.94m-4.64 16.17l6.5.55-2.4-10.27" fill="#5e5e5e"/><g><use xlink:href="#B" transform="matrix(1,0,0,1,608.5873422184674,613.6752950607034) translate(0 14.222222222222223)"/></g><path d="M741 976.87l.7 2.64 1.8 1.8 2.63.7h127.55l3.4.92 2.54 2.53.93 3.42v37.34h-2v-37.07l-.72-2.64-1.77-1.8-2.64-.7H745.87l-3.42-.92-2.53-2.53-.92-3.42v-48.98h2m0-42.67h-2V863h2" fill="#5e5e5e"/><path d="M755 865h-30v-2h30M879.55 1041.48l-4.64-14.27h9.28z" fill="#5e5e5e"/><path d="M879.55 1044.7l-6-18.5h12m-9.26 2l3.25 10.04 3.26-10.03" fill="#5e5e5e"/><g><use xlink:href="#C" transform="matrix(1,0,0,1,673.3580245383607,885.4825085393153) translate(0 14.222222222222223)"/><use xlink:href="#D" transform="matrix(1,0,0,1,673.3580245383607,885.4825085393153) translate(64.14814814814815 14.222222222222223)"/><use xlink:href="#E" transform="matrix(1,0,0,1,673.3580245383607,885.4825085393153) translate(0 35.55555555555556)"/><use xlink:href="#F" transform="matrix(1,0,0,1,673.3580245383607,885.4825085393153) translate(10.814814814814817 35.55555555555556)"/></g><path d="M1021 977.13l-.92 3.42-2.53 2.53-3.42.92h-128l-2.64.7-1.8 1.8-.7 2.63v37.24h-2v-37.5l.92-3.42 2.53-2.53 3.42-.92h128l2.64-.7 1.8-1.8.7-2.63v-29.13h2m0-64h-2V863h2" fill="#5e5e5e"/><path d="M1035 865h-30v-2h30M880 1041.63l-4.64-14.26h9.28z" fill="#5e5e5e"/><path d="M880 1044.87l-6-18.5h12m-9.26 2l3.26 10.03 3.26-10.03" fill="#5e5e5e"/><g><use xlink:href="#C" transform="matrix(1,0,0,1,952.518518365521,883.7422677186909) translate(0 14.222222222222223)"/><use xlink:href="#D" transform="matrix(1,0,0,1,952.518518365521,883.7422677186909) translate(64.14814814814815 14.222222222222223)"/><use xlink:href="#E" transform="matrix(1,0,0,1,952.518518365521,883.7422677186909) translate(0 35.55555555555556)"/><use xlink:href="#G" transform="matrix(1,0,0,1,952.518518365521,883.7422677186909) translate(10.814814814814817 35.55555555555556)"/><use xlink:href="#H" transform="matrix(1,0,0,1,952.518518365521,883.7422677186909) translate(85.77777777777777 35.55555555555556)"/><use xlink:href="#E" transform="matrix(1,0,0,1,952.518518365521,883.7422677186909) translate(0 56.88888888888889)"/><use xlink:href="#I" transform="matrix(1,0,0,1,952.518518365521,883.7422677186909) translate(10.814814814814817 56.88888888888889)"/><use xlink:href="#J" transform="matrix(1,0,0,1,952.518518365521,883.7422677186909) translate(87.75308641975309 56.88888888888889)"/></g><path d="M904.4 1093.7h-8.48v-3.4h8.48c8.16 0 12.08-3.6 12.08-11 0-6.34-3.68-10.34-11.04-11.8-.8-.16-1.36-.82-1.36-1.58-.4-6.14-3.92-8.37-6.8-8.37-2.08.05-3.84.96-5.12 2.64-.56.7-1.6.85-2.4.3-.24-.2-.4-.46-.56-.77-1.04-3.14-2.56-5.53-4.96-7.86-5.36-5.42-12.96-6.9-20-3.85-6.32 2.9-10.24 8.72-10.48 15.72 0 .7.08 1.3.16 2.08.08.86-.48 1.62-1.28 1.82-3.44.86-9.28 3.45-9.28 11.46v.8c.4 6.04 5.44 10.35 12.08 10.35h8.48v3.4h-8.48c-8.48 0-14.96-5.68-15.44-13.5v-1.05c-.24-6.7 3.92-12.52 10.4-14.35v-1.06c.24-11.68 9.92-20.95 21.6-20.7 5.68.15 10.56 2.23 14.64 6.4 2.08 2.02 3.52 4.1 4.72 6.78 1.76-1.37 3.68-1.98 5.92-2.03 4.48 0 9.2 3.2 10.16 10.25 8.08 2.07 12.56 7.3 12.56 14.85-.08 9.33-5.6 14.45-15.6 14.45zm-18.08 0H873.6v-3.4h12.72z" stroke="#fff" stroke-opacity="0" fill="#232f3e"/><path d="M891.1 1092.1c-.47 0-.86-.16-1.18-.5l-9.58-9.57 2.4-2.42 8.36 8.33 8.37-8.38 2.4 2.42-9.57 9.56c-.32.37-.73.56-1.2.57z" stroke="#fff" stroke-opacity="0" fill="#232f3e"/><path d="M889.4 1064.85h3.4v23.95h-3.4v-23.95zM877.17 1075.65l-8.38-8.38-8.38 8.38-2.4-2.42 9.57-9.56c.66-.67 1.7-.67 2.38 0l9.58 9.56z" stroke="#fff" stroke-opacity="0" fill="#232f3e"/><path d="M867.1 1064.85h3.4v28.75h-3.4v-28.75z" stroke="#fff" stroke-opacity="0" fill="#232f3e"/><path d="M904.4 1093.7h-48.95c-8.48 0-14.95-5.68-15.43-13.48v-1.07c-.24-6.74 3.92-12.5 10.4-14.4v-1.05-.8c.55-8.12 5.2-14.7 12.55-18.06 8.23-3.54 17.27-1.82 23.6 4.57 2.15 2.08 3.6 4.16 4.8 6.8 1.74-1.32 3.66-1.98 5.9-1.98 4.48 0 9.2 3.2 10.16 10.24 8.15 2.02 12.55 7.3 12.55 14.85-.08 9.28-5.6 14.4-15.6 14.4zm-32.96-47.18c-2.63 0-4.87.45-7.27 1.47-6.32 2.93-10.16 8.75-10.4 15.7 0 .76 0 1.42.16 2.13.08.86-.48 1.67-1.28 1.87-3.44.86-9.27 3.4-9.27 11.45v.92c.32 5.93 5.43 10.18 12.07 10.18h48.94c8.15 0 12.06-3.6 12.06-11 0-6.33-3.67-10.33-11.03-11.8-.8-.15-1.28-.8-1.36-1.57-.32-6.2-3.92-8.37-6.8-8.37-2.08.07-3.84.98-5.12 2.65-.55.7-1.6.86-2.4.3-.23-.2-.4-.45-.55-.76-1.04-3.1-2.56-5.53-4.96-7.86-3.52-3.55-7.76-5.32-12.8-5.32z" stroke="#fff" stroke-opacity="0" fill="#fff" fill-opacity="0"/><g><use xlink:href="#K" transform="matrix(1,0,0,1,810,1102.7) translate(39.81481481481482 17.77777777777778)"/><use xlink:href="#L" transform="matrix(1,0,0,1,810,1102.7) translate(32.376543209876544 44.44444444444444)"/></g><path d="M1180 86c0-3.3 2.7-6 6-6h328c3.3 0 6 2.7 6 6v211.33c0 3.32-2.7 6-6 6h-328c-3.3 0-6-2.68-6-6z" stroke="#000" stroke-opacity="0" stroke-width="3" fill="#fff" fill-opacity="0"/><g><use xlink:href="#M" transform="matrix(1,0,0,1,1185,85) translate(0 48.33333333333334)"/><use xlink:href="#N" transform="matrix(1,0,0,1,1185,85) translate(58.1111111111111 48.33333333333334)"/><use xlink:href="#O" transform="matrix(1,0,0,1,1185,85) translate(103.66666666666666 48.33333333333334)"/><use xlink:href="#P" transform="matrix(1,0,0,1,1185,85) translate(172.38888888888886 48.33333333333334)"/><use xlink:href="#Q" transform="matrix(1,0,0,1,1185,85) translate(250.0555555555555 48.33333333333334)"/><use xlink:href="#R" transform="matrix(1,0,0,1,1185,85) translate(311.11111111111103 48.33333333333334)"/><use xlink:href="#S" transform="matrix(1,0,0,1,1185,85) translate(0 72.33333333333334)"/><use xlink:href="#T" transform="matrix(1,0,0,1,1185,85) translate(16.666666666666664 72.33333333333334)"/><use xlink:href="#U" transform="matrix(1,0,0,1,1185,85) translate(82.16666666666666 72.33333333333334)"/><use xlink:href="#V" transform="matrix(1,0,0,1,1185,85) translate(156.49999999999997 72.33333333333334)"/><use xlink:href="#W" transform="matrix(1,0,0,1,1185,85) translate(213.1111111111111 72.33333333333334)"/><use xlink:href="#X" transform="matrix(1,0,0,1,1185,85) translate(285.2777777777777 72.33333333333334)"/><use xlink:href="#Y" transform="matrix(1,0,0,1,1185,85) translate(0 96.33333333333334)"/><use xlink:href="#Z" transform="matrix(1,0,0,1,1185,85) translate(33.33333333333333 96.33333333333334)"/><use xlink:href="#aa" transform="matrix(1,0,0,1,1185,85) translate(97.66666666666664 96.33333333333334)"/><use xlink:href="#ab" transform="matrix(1,0,0,1,1185,85) translate(124.3333333333333 96.33333333333334)"/><use xlink:href="#ac" transform="matrix(1,0,0,1,1185,85) translate(180.22222222222217 96.33333333333334)"/><use xlink:href="#ad" transform="matrix(1,0,0,1,1185,85) translate(223.4444444444444 96.33333333333334)"/><use xlink:href="#V" transform="matrix(1,0,0,1,1185,85) translate(0 120.33333333333333)"/><use xlink:href="#ae" transform="matrix(1,0,0,1,1185,85) translate(56.6111111111111 120.33333333333333)"/><use xlink:href="#af" transform="matrix(1,0,0,1,1185,85) translate(82.11111111111109 120.33333333333333)"/><use xlink:href="#ag" transform="matrix(1,0,0,1,1185,85) translate(102.05555555555553 120.33333333333333)"/><use xlink:href="#ah" transform="matrix(1,0,0,1,1185,85) translate(165.3333333333333 120.33333333333333)"/><use xlink:href="#Y" transform="matrix(1,0,0,1,1185,85) translate(186.38888888888883 120.33333333333333)"/><use xlink:href="#ai" transform="matrix(1,0,0,1,1185,85) translate(219.72222222222217 120.33333333333333)"/><use xlink:href="#aj" transform="matrix(1,0,0,1,1185,85) translate(0 146.1111111111111)"/><use xlink:href="#ak" transform="matrix(1,0,0,1,1185,85) translate(0 172.77777777777777)"/></g><path d="M1136.3 609.3l8.5 9.2 6.26 7.36 4.96 6.35 4.08 5.72 3.44 5.26 2.93 4.94 2.53 4.7 2.2 4.5 1.9 4.4 1.67 4.28 1.43 4.23 1.23 4.2 1.04 4.2.57 2.8-1.96.4-.56-2.77-1.02-4.1-1.2-4.13-1.42-4.15-1.62-4.2-1.88-4.32-2.16-4.44-2.5-4.62-2.88-4.86-3.4-5.2-4.02-5.63-4.9-6.28-6.2-7.3-8.45-9.12-21.28-20.3h2.9m-93.1-123.15l1.73 5.9 1.98 5.84 2.27 5.83 2.56 5.9 2.9 5.96 3.3 6.1 3.76 6.3 4.3 6.62 5.03 7.04 5.97 7.66 7.35 8.65 9.68 10.46 15.72 15.57 4.17 3.98h-2.9l-2.67-2.54-15.76-15.62-9.75-10.53-7.4-8.72-6.03-7.73-5.07-7.1-4.36-6.68-3.8-6.38-3.34-6.2-2.94-6.04-2.6-5.97-2.3-5.93-2-5.93-1.75-5.97-1.25-5.06 1.94-.47" fill="#5e5e5e"/><path d="M1022.16 462.26l-1.94.48-.3-1.24h2.06M1179.66 696.78l-6.1-13.7 9.2-.97z" fill="#5e5e5e"/><path d="M1180 700l-7.92-17.77 11.96-1.26m-9 2.96l4.28 9.63 2.2-10.3" fill="#5e5e5e"/><g><use xlink:href="#al" transform="matrix(1,0,0,1,1018.1270074968909,569.0813399373359) translate(0 14.222222222222223)"/><use xlink:href="#am" transform="matrix(1,0,0,1,1018.1270074968909,569.0813399373359) translate(94.71604938271605 14.222222222222223)"/></g><defs><path fill="#5a6c86" d="M212-179c-10-28-35-45-73-45-59 0-87 40-87 99 0 60 29 101 89 101 43 0 62-24 78-52l27 14C228-24 195 4 139 4 59 4 22-46 18-125c-6-104 99-153 187-111 19 9 31 26 39 46" id="an"/><path fill="#5a6c86" d="M100-194c62-1 85 37 85 99 1 63-27 99-86 99S16-35 15-95c0-66 28-99 85-99zM99-20c44 1 53-31 53-75 0-43-8-75-51-75s-53 32-53 75 10 74 51 75" id="ao"/><path fill="#5a6c86" d="M117-194c89-4 53 116 60 194h-32v-121c0-31-8-49-39-48C34-167 62-67 57 0H25l-1-190h30c1 10-1 24 2 32 11-22 29-35 61-36" id="ap"/><path fill="#5a6c86" d="M59-47c-2 24 18 29 38 22v24C64 9 27 4 27-40v-127H5v-23h24l9-43h21v43h35v23H59v120" id="aq"/><path fill="#5a6c86" d="M114-163C36-179 61-72 57 0H25l-1-190h30c1 12-1 29 2 39 6-27 23-49 58-41v29" id="ar"/><path fill="#5a6c86" d="M24 0v-261h32V0H24" id="as"/><g id="a"><use transform="matrix(0.05,0,0,0.05,0,0)" xlink:href="#an"/><use transform="matrix(0.05,0,0,0.05,12.950000000000001,0)" xlink:href="#ao"/><use transform="matrix(0.05,0,0,0.05,22.950000000000003,0)" xlink:href="#ap"/><use transform="matrix(0.05,0,0,0.05,32.95,0)" xlink:href="#aq"/><use transform="matrix(0.05,0,0,0.05,37.95,0)" xlink:href="#ar"/><use transform="matrix(0.05,0,0,0.05,43.900000000000006,0)" xlink:href="#ao"/><use transform="matrix(0.05,0,0,0.05,53.900000000000006,0)" xlink:href="#as"/></g><path fill="#5a6c86" d="M30-248c87 1 191-15 191 75 0 78-77 80-158 76V0H30v-248zm33 125c57 0 124 11 124-50 0-59-68-47-124-48v98" id="at"/><path fill="#5a6c86" d="M141-36C126-15 110 5 73 4 37 3 15-17 15-53c-1-64 63-63 125-63 3-35-9-54-41-54-24 1-41 7-42 31l-33-3c5-37 33-52 76-52 45 0 72 20 72 64v82c-1 20 7 32 28 27v20c-31 9-61-2-59-35zM48-53c0 20 12 33 32 33 41-3 63-29 60-74-43 2-92-5-92 41" id="au"/><path fill="#5a6c86" d="M100-194c63 0 86 42 84 106H49c0 40 14 67 53 68 26 1 43-12 49-29l28 8c-11 28-37 45-77 45C44 4 14-33 15-96c1-61 26-98 85-98zm52 81c6-60-76-77-97-28-3 7-6 17-6 28h103" id="av"/><g id="b"><use transform="matrix(0.05,0,0,0.05,0,0)" xlink:href="#at"/><use transform="matrix(0.05,0,0,0.05,12,0)" xlink:href="#au"/><use transform="matrix(0.05,0,0,0.05,22,0)" xlink:href="#ap"/><use transform="matrix(0.05,0,0,0.05,32,0)" xlink:href="#av"/></g><path fill="#dd3522" d="M212-179c-10-28-35-45-73-45-59 0-87 40-87 99 0 60 29 101 89 101 43 0 62-24 78-52l27 14C228-24 195 4 139 4 59 4 22-46 18-125c-6-104 99-153 187-111 19 9 31 26 39 46" id="aw"/><path fill="#dd3522" d="M24 0v-261h32V0H24" id="ax"/><path fill="#dd3522" d="M84 4C-5 8 30-112 23-190h32v120c0 31 7 50 39 49 72-2 45-101 50-169h31l1 190h-30c-1-10 1-25-2-33-11 22-28 36-60 37" id="ay"/><path fill="#dd3522" d="M135-143c-3-34-86-38-87 0 15 53 115 12 119 90S17 21 10-45l28-5c4 36 97 45 98 0-10-56-113-15-118-90-4-57 82-63 122-42 12 7 21 19 24 35" id="az"/><path fill="#dd3522" d="M59-47c-2 24 18 29 38 22v24C64 9 27 4 27-40v-127H5v-23h24l9-43h21v43h35v23H59v120" id="aA"/><path fill="#dd3522" d="M100-194c63 0 86 42 84 106H49c0 40 14 67 53 68 26 1 43-12 49-29l28 8c-11 28-37 45-77 45C44 4 14-33 15-96c1-61 26-98 85-98zm52 81c6-60-76-77-97-28-3 7-6 17-6 28h103" id="aB"/><path fill="#dd3522" d="M114-163C36-179 61-72 57 0H25l-1-190h30c1 12-1 29 2 39 6-27 23-49 58-41v29" id="aC"/><g id="c"><use transform="matrix(0.05,0,0,0.05,0,0)" xlink:href="#aw"/><use transform="matrix(0.05,0,0,0.05,12.950000000000001,0)" xlink:href="#ax"/><use transform="matrix(0.05,0,0,0.05,16.900000000000002,0)" xlink:href="#ay"/><use transform="matrix(0.05,0,0,0.05,26.900000000000002,0)" xlink:href="#az"/><use transform="matrix(0.05,0,0,0.05,35.900000000000006,0)" xlink:href="#aA"/><use transform="matrix(0.05,0,0,0.05,40.900000000000006,0)" xlink:href="#aB"/><use transform="matrix(0.05,0,0,0.05,50.900000000000006,0)" xlink:href="#aC"/></g><path fill="#dd3522" d="M185-189c-5-48-123-54-124 2 14 75 158 14 163 119 3 78-121 87-175 55-17-10-28-26-33-46l33-7c5 56 141 63 141-1 0-78-155-14-162-118-5-82 145-84 179-34 5 7 8 16 11 25" id="aD"/><path fill="#dd3522" d="M96-169c-40 0-48 33-48 73s9 75 48 75c24 0 41-14 43-38l32 2c-6 37-31 61-74 61-59 0-76-41-82-99-10-93 101-131 147-64 4 7 5 14 7 22l-32 3c-4-21-16-35-41-35" id="aE"/><path fill="#dd3522" d="M24-231v-30h32v30H24zM24 0v-190h32V0H24" id="aF"/><path fill="#dd3522" d="M179-190L93 31C79 59 56 82 12 73V49c39 6 53-20 64-50L1-190h34L92-34l54-156h33" id="aG"/><g id="d"><use transform="matrix(0.05,0,0,0.05,0,0)" xlink:href="#aD"/><use transform="matrix(0.05,0,0,0.05,12,0)" xlink:href="#aB"/><use transform="matrix(0.05,0,0,0.05,22,0)" xlink:href="#aE"/><use transform="matrix(0.05,0,0,0.05,31,0)" xlink:href="#ay"/><use transform="matrix(0.05,0,0,0.05,41,0)" xlink:href="#aC"/><use transform="matrix(0.05,0,0,0.05,46.95,0)" xlink:href="#aF"/><use transform="matrix(0.05,0,0,0.05,50.900000000000006,0)" xlink:href="#aA"/><use transform="matrix(0.05,0,0,0.05,55.900000000000006,0)" xlink:href="#aG"/></g><path fill="#dd3522" d="M143 4C61 4 22-44 18-125c-5-107 100-154 193-111 17 8 29 25 37 43l-32 9c-13-25-37-40-76-40-61 0-88 39-88 99 0 61 29 100 91 101 35 0 62-11 79-27v-45h-74v-28h105v86C228-13 192 4 143 4" id="aH"/><path fill="#dd3522" d="M100-194c62-1 85 37 85 99 1 63-27 99-86 99S16-35 15-95c0-66 28-99 85-99zM99-20c44 1 53-31 53-75 0-43-8-75-51-75s-53 32-53 75 10 74 51 75" id="aI"/><path fill="#dd3522" d="M115-194c55 1 70 41 70 98S169 2 115 4C84 4 66-9 55-30l1 105H24l-1-265h31l2 30c10-21 28-34 59-34zm-8 174c40 0 45-34 45-75s-6-73-45-74c-42 0-51 32-51 76 0 43 10 73 51 73" id="aJ"/><g id="e"><use transform="matrix(0.05,0,0,0.05,0,0)" xlink:href="#aH"/><use transform="matrix(0.05,0,0,0.05,14,0)" xlink:href="#aC"/><use transform="matrix(0.05,0,0,0.05,19.95,0)" xlink:href="#aI"/><use transform="matrix(0.05,0,0,0.05,29.950000000000003,0)" xlink:href="#ay"/><use transform="matrix(0.05,0,0,0.05,39.95,0)" xlink:href="#aJ"/></g><path fill="#5a6c86" d="M30-248c118-7 216 8 213 122C240-48 200 0 122 0H30v-248zM63-27c89 8 146-16 146-99s-60-101-146-95v194" id="aK"/><g id="f"><use transform="matrix(0.05,0,0,0.05,0,0)" xlink:href="#aK"/><use transform="matrix(0.05,0,0,0.05,12.950000000000001,0)" xlink:href="#au"/><use transform="matrix(0.05,0,0,0.05,22.950000000000003,0)" xlink:href="#aq"/><use transform="matrix(0.05,0,0,0.05,27.950000000000003,0)" xlink:href="#au"/></g><g id="g"><use transform="matrix(0.05,0,0,0.05,0,0)" xlink:href="#at"/><use transform="matrix(0.05,0,0,0.05,12,0)" xlink:href="#as"/><use transform="matrix(0.05,0,0,0.05,15.949999999999998,0)" xlink:href="#au"/><use transform="matrix(0.05,0,0,0.05,25.950000000000003,0)" xlink:href="#ap"/><use transform="matrix(0.05,0,0,0.05,35.95,0)" xlink:href="#av"/></g><path fill="#dd3522" d="M190 0L58-211 59 0H30v-248h39L202-35l-2-213h31V0h-41" id="aL"/><path fill="#dd3522" d="M85-194c31 0 48 13 60 33l-1-100h32l1 261h-30c-2-10 0-23-3-31C134-8 116 4 85 4 32 4 16-35 15-94c0-66 23-100 70-100zm9 24c-40 0-46 34-46 75 0 40 6 74 45 74 42 0 51-32 51-76 0-42-9-74-50-73" id="aM"/><g id="h"><use transform="matrix(0.05,0,0,0.05,0,0)" xlink:href="#aL"/><use transform="matrix(0.05,0,0,0.05,12.950000000000001,0)" xlink:href="#aI"/><use transform="matrix(0.05,0,0,0.05,22.950000000000003,0)" xlink:href="#aM"/><use transform="matrix(0.05,0,0,0.05,32.95,0)" xlink:href="#aB"/></g><g id="i"><use transform="matrix(0.05,0,0,0.05,0,0)" xlink:href="#aH"/><use transform="matrix(0.05,0,0,0.05,14,0)" xlink:href="#aC"/><use transform="matrix(0.05,0,0,0.05,19.95,0)" xlink:href="#aI"/><use transform="matrix(0.05,0,0,0.05,29.950000000000003,0)" xlink:href="#ay"/><use transform="matrix(0.05,0,0,0.05,39.95,0)" xlink:href="#aJ"/></g><g id="j"><use transform="matrix(0.05,0,0,0.05,0,0)" xlink:href="#aL"/><use transform="matrix(0.05,0,0,0.05,12.950000000000001,0)" xlink:href="#aI"/><use transform="matrix(0.05,0,0,0.05,22.950000000000003,0)" xlink:href="#aM"/><use transform="matrix(0.05,0,0,0.05,32.95,0)" xlink:href="#aB"/></g><path fill="#dd3522" d="M80-196l47-18 7 23-49 13 32 44-20 13-27-46-27 45-21-12 33-44-49-13 8-23 47 19-2-53h23" id="aN"/><path fill="#dd3522" d="M205 0l-28-72H64L36 0H1l101-248h38L239 0h-34zm-38-99l-47-123c-12 45-31 82-46 123h93" id="aO"/><path fill="#dd3522" d="M266 0h-40l-56-210L115 0H75L2-248h35L96-30l15-64 43-154h32l59 218 59-218h35" id="aP"/><g id="k"><use transform="matrix(0.05,0,0,0.05,0,0)" xlink:href="#aN"/><use transform="matrix(0.05,0,0,0.05,7,0)" xlink:href="#aO"/><use transform="matrix(0.05,0,0,0.05,18.35,0)" xlink:href="#aP"/><use transform="matrix(0.05,0,0,0.05,35.3,0)" xlink:href="#aD"/></g><path fill="#dd3522" d="M30 0v-248h187v28H63v79h144v27H63v87h162V0H30" id="aQ"/><path fill="#dd3522" d="M194 0L95-120 63-95V0H30v-248h33v124l119-124h40L117-140 236 0h-42" id="aR"/><g id="l"><use transform="matrix(0.05,0,0,0.05,0,0)" xlink:href="#aQ"/><use transform="matrix(0.05,0,0,0.05,12,0)" xlink:href="#aR"/><use transform="matrix(0.05,0,0,0.05,24,0)" xlink:href="#aD"/></g><g id="m"><use transform="matrix(0.05,0,0,0.05,0,0)" xlink:href="#aw"/><use transform="matrix(0.05,0,0,0.05,12.950000000000001,0)" xlink:href="#ax"/><use transform="matrix(0.05,0,0,0.05,16.900000000000002,0)" xlink:href="#ay"/><use transform="matrix(0.05,0,0,0.05,26.900000000000002,0)" xlink:href="#az"/><use transform="matrix(0.05,0,0,0.05,35.900000000000006,0)" xlink:href="#aA"/><use transform="matrix(0.05,0,0,0.05,40.900000000000006,0)" xlink:href="#aB"/><use transform="matrix(0.05,0,0,0.05,50.900000000000006,0)" xlink:href="#aC"/></g><path fill="#333" d="M30 0v-248h187v28H63v79h144v27H63v87h162V0H30" id="aS"/><path fill="#333" d="M194 0L95-120 63-95V0H30v-248h33v124l119-124h40L117-140 236 0h-42" id="aT"/><path fill="#333" d="M185-189c-5-48-123-54-124 2 14 75 158 14 163 119 3 78-121 87-175 55-17-10-28-26-33-46l33-7c5 56 141 63 141-1 0-78-155-14-162-118-5-82 145-84 179-34 5 7 8 16 11 25" id="aU"/><g id="n"><use transform="matrix(0.06172839506172839,0,0,0.06172839506172839,0,0)" xlink:href="#aS"/><use transform="matrix(0.06172839506172839,0,0,0.06172839506172839,14.814814814814813,0)" xlink:href="#aT"/><use transform="matrix(0.06172839506172839,0,0,0.06172839506172839,29.629629629629626,0)" xlink:href="#aU"/></g><path fill="#333" d="M190 0L58-211 59 0H30v-248h39L202-35l-2-213h31V0h-41" id="aV"/><path fill="#333" d="M100-194c62-1 85 37 85 99 1 63-27 99-86 99S16-35 15-95c0-66 28-99 85-99zM99-20c44 1 53-31 53-75 0-43-8-75-51-75s-53 32-53 75 10 74 51 75" id="aW"/><path fill="#333" d="M85-194c31 0 48 13 60 33l-1-100h32l1 261h-30c-2-10 0-23-3-31C134-8 116 4 85 4 32 4 16-35 15-94c0-66 23-100 70-100zm9 24c-40 0-46 34-46 75 0 40 6 74 45 74 42 0 51-32 51-76 0-42-9-74-50-73" id="aX"/><path fill="#333" d="M100-194c63 0 86 42 84 106H49c0 40 14 67 53 68 26 1 43-12 49-29l28 8c-11 28-37 45-77 45C44 4 14-33 15-96c1-61 26-98 85-98zm52 81c6-60-76-77-97-28-3 7-6 17-6 28h103" id="aY"/><g id="o"><use transform="matrix(0.06172839506172839,0,0,0.06172839506172839,0,0)" xlink:href="#aV"/><use transform="matrix(0.06172839506172839,0,0,0.06172839506172839,15.987654320987653,0)" xlink:href="#aW"/><use transform="matrix(0.06172839506172839,0,0,0.06172839506172839,28.333333333333332,0)" xlink:href="#aX"/><use transform="matrix(0.06172839506172839,0,0,0.06172839506172839,40.67901234567901,0)" xlink:href="#aY"/></g><path fill="#333" d="M143 4C61 4 22-44 18-125c-5-107 100-154 193-111 17 8 29 25 37 43l-32 9c-13-25-37-40-76-40-61 0-88 39-88 99 0 61 29 100 91 101 35 0 62-11 79-27v-45h-74v-28h105v86C228-13 192 4 143 4" id="aZ"/><path fill="#333" d="M114-163C36-179 61-72 57 0H25l-1-190h30c1 12-1 29 2 39 6-27 23-49 58-41v29" id="ba"/><path fill="#333" d="M84 4C-5 8 30-112 23-190h32v120c0 31 7 50 39 49 72-2 45-101 50-169h31l1 190h-30c-1-10 1-25-2-33-11 22-28 36-60 37" id="bb"/><path fill="#333" d="M115-194c55 1 70 41 70 98S169 2 115 4C84 4 66-9 55-30l1 105H24l-1-265h31l2 30c10-21 28-34 59-34zm-8 174c40 0 45-34 45-75s-6-73-45-74c-42 0-51 32-51 76 0 43 10 73 51 73" id="bc"/><g id="p"><use transform="matrix(0.06172839506172839,0,0,0.06172839506172839,0,0)" xlink:href="#aZ"/><use transform="matrix(0.06172839506172839,0,0,0.06172839506172839,17.28395061728395,0)" xlink:href="#ba"/><use transform="matrix(0.06172839506172839,0,0,0.06172839506172839,24.629629629629626,0)" xlink:href="#aW"/><use transform="matrix(0.06172839506172839,0,0,0.06172839506172839,36.9753086419753,0)" xlink:href="#bb"/><use transform="matrix(0.06172839506172839,0,0,0.06172839506172839,49.32098765432098,0)" xlink:href="#bc"/></g><path fill="#333" d="M169-182c-1-43-94-46-97-3 18 66 151 10 154 114 3 95-165 93-204 36-6-8-10-19-12-30l50-8c3 46 112 56 116 5-17-69-150-10-154-114-4-87 153-88 188-35 5 8 8 18 10 28" id="bd"/><path fill="#333" d="M185-48c-13 30-37 53-82 52C43 2 14-33 14-96s30-98 90-98c62 0 83 45 84 108H66c0 31 8 55 39 56 18 0 30-7 34-22zm-45-69c5-46-57-63-70-21-2 6-4 13-4 21h74" id="be"/><path fill="#333" d="M25 0v-261h50V0H25" id="bf"/><path fill="#333" d="M121-226c-27-7-43 5-38 36h38v33H83V0H34v-157H6v-33h28c-9-59 32-81 87-68v32" id="bg"/><path fill="#333" d="M35-132v-50h50v50H35zM35 0v-49h50V0H35" id="bh"/><g id="q"><use transform="matrix(0.04938271604938272,0,0,0.04938271604938272,0,0)" xlink:href="#bd"/><use transform="matrix(0.04938271604938272,0,0,0.04938271604938272,11.851851851851853,0)" xlink:href="#be"/><use transform="matrix(0.04938271604938272,0,0,0.04938271604938272,21.7283950617284,0)" xlink:href="#bf"/><use transform="matrix(0.04938271604938272,0,0,0.04938271604938272,26.666666666666668,0)" xlink:href="#bg"/><use transform="matrix(0.04938271604938272,0,0,0.04938271604938272,32.543209876543216,0)" xlink:href="#bh"/></g><path fill="#333" d="M136-208V0H84v-208H4v-40h212v40h-80" id="bi"/><path fill="#333" d="M67-125c0 53 21 87 73 88 37 1 54-22 65-47l45 17C233-25 199 4 140 4 58 4 20-42 15-125 8-235 124-281 211-232c18 10 29 29 36 50l-46 12c-8-25-30-41-62-41-52 0-71 34-72 86" id="bj"/><path fill="#333" d="M24-248c93 1 206-16 204 79-1 75-69 88-152 82V0H24v-248zm52 121c47 0 100 7 100-41 0-47-54-39-100-39v80" id="bk"/><path fill="#333" d="M4 7l51-268h42L46 7H4" id="bl"/><path fill="#333" d="M139-81c0-46-55-55-73-27H18l9-140h149v37H72l-4 63c44-38 133-4 122 66C201 21 21 35 11-62l49-4c5 18 15 30 39 30 26 0 40-18 40-45" id="bm"/><path fill="#333" d="M128-127c34 4 56 21 59 58 7 91-148 94-172 28-4-9-6-17-7-26l51-5c1 24 16 35 40 36 23 0 39-12 38-36-1-31-31-36-65-34v-40c32 2 59-3 59-33 0-20-13-33-34-33s-33 13-35 32l-50-3c6-44 37-68 86-68 50 0 83 20 83 66 0 35-22 52-53 58" id="bn"/><g id="r"><use transform="matrix(0.04938271604938272,0,0,0.04938271604938272,0,0)" xlink:href="#bi"/><use transform="matrix(0.04938271604938272,0,0,0.04938271604938272,10.814814814814815,0)" xlink:href="#bj"/><use transform="matrix(0.04938271604938272,0,0,0.04938271604938272,23.60493827160494,0)" xlink:href="#bk"/><use transform="matrix(0.04938271604938272,0,0,0.04938271604938272,35.45679012345679,0)" xlink:href="#bl"/><use transform="matrix(0.04938271604938272,0,0,0.04938271604938272,40.39506172839506,0)" xlink:href="#bm"/><use transform="matrix(0.04938271604938272,0,0,0.04938271604938272,50.27160493827161,0)" xlink:href="#bn"/></g><path fill="#333" d="M238-95c0 69-44 99-111 99C63 4 22-25 22-93v-155h51v151c-1 38 19 59 55 60 90 1 49-130 58-211h52v153" id="bo"/><path fill="#333" d="M24-248c120-7 223 5 221 122C244-46 201 0 124 0H24v-248zM76-40c74 7 117-18 117-86 0-67-45-88-117-82v168" id="bp"/><g id="s"><use transform="matrix(0.04938271604938272,0,0,0.04938271604938272,0,0)" xlink:href="#bo"/><use transform="matrix(0.04938271604938272,0,0,0.04938271604938272,12.790123456790125,0)" xlink:href="#bp"/><use transform="matrix(0.04938271604938272,0,0,0.04938271604938272,25.58024691358025,0)" xlink:href="#bk"/><use transform="matrix(0.04938271604938272,0,0,0.04938271604938272,37.4320987654321,0)" xlink:href="#bl"/><use transform="matrix(0.04938271604938272,0,0,0.04938271604938272,42.370370370370374,0)" xlink:href="#bm"/><use transform="matrix(0.04938271604938272,0,0,0.04938271604938272,52.24691358024692,0)" xlink:href="#bn"/></g><path fill="#333" d="M165-50V0h-47v-50H5v-38l105-160h55v161h33v37h-33zm-47-37l2-116L46-87h72" id="bq"/><g id="t"><use transform="matrix(0.04938271604938272,0,0,0.04938271604938272,0,0)" xlink:href="#bi"/><use transform="matrix(0.04938271604938272,0,0,0.04938271604938272,10.814814814814815,0)" xlink:href="#bj"/><use transform="matrix(0.04938271604938272,0,0,0.04938271604938272,23.60493827160494,0)" xlink:href="#bk"/><use transform="matrix(0.04938271604938272,0,0,0.04938271604938272,35.45679012345679,0)" xlink:href="#bl"/><use transform="matrix(0.04938271604938272,0,0,0.04938271604938272,40.39506172839506,0)" xlink:href="#bq"/><use transform="matrix(0.04938271604938272,0,0,0.04938271604938272,50.27160493827161,0)" xlink:href="#bq"/><use transform="matrix(0.04938271604938272,0,0,0.04938271604938272,60.14814814814815,0)" xlink:href="#bn"/></g><path fill="#333" d="M127-220V0H93v-220H8v-28h204v28h-85" id="br"/><path fill="#333" d="M141-36C126-15 110 5 73 4 37 3 15-17 15-53c-1-64 63-63 125-63 3-35-9-54-41-54-24 1-41 7-42 31l-33-3c5-37 33-52 76-52 45 0 72 20 72 64v82c-1 20 7 32 28 27v20c-31 9-61-2-59-35zM48-53c0 20 12 33 32 33 41-3 63-29 60-74-43 2-92-5-92 41" id="bs"/><path fill="#333" d="M177-190C167-65 218 103 67 71c-23-6-38-20-44-43l32-5c15 47 100 32 89-28v-30C133-14 115 1 83 1 29 1 15-40 15-95c0-56 16-97 71-98 29-1 48 16 59 35 1-10 0-23 2-32h30zM94-22c36 0 50-32 50-73 0-42-14-75-50-75-39 0-46 34-46 75s6 73 46 73" id="bt"/><g id="u"><use transform="matrix(0.06172839506172839,0,0,0.06172839506172839,0,0)" xlink:href="#br"/><use transform="matrix(0.06172839506172839,0,0,0.06172839506172839,11.049382716049381,0)" xlink:href="#bs"/><use transform="matrix(0.06172839506172839,0,0,0.06172839506172839,23.39506172839506,0)" xlink:href="#bt"/></g><path fill="#333" d="M16-82v-28h88v28H16" id="bu"/><use transform="matrix(0.06172839506172839,0,0,0.06172839506172839,0,0)" xlink:href="#bu" id="v"/><path fill="#333" d="M39-94c74 12-11 154 75 146v23c-44 4-70-10-70-52C44-23 55-84 6-82v-22c81 4-7-162 84-157h24v23c-82-15-2 131-75 144" id="bv"/><use transform="matrix(0.06172839506172839,0,0,0.06172839506172839,0,0)" xlink:href="#bv" id="w"/><path d="M143 0L79-87 56-68V0H24v-261h32v163l83-92h37l-77 82L181 0h-38" id="bw"/><path d="M84 4C-5 8 30-112 23-190h32v120c0 31 7 50 39 49 72-2 45-101 50-169h31l1 190h-30c-1-10 1-25-2-33-11 22-28 36-60 37" id="bx"/><path d="M115-194c53 0 69 39 70 98 0 66-23 100-70 100C84 3 66-7 56-30L54 0H23l1-261h32v101c10-23 28-34 59-34zm-8 174c40 0 45-34 45-75 0-40-5-75-45-74-42 0-51 32-51 76 0 43 10 73 51 73" id="by"/><path d="M100-194c63 0 86 42 84 106H49c0 40 14 67 53 68 26 1 43-12 49-29l28 8c-11 28-37 45-77 45C44 4 14-33 15-96c1-61 26-98 85-98zm52 81c6-60-76-77-97-28-3 7-6 17-6 28h103" id="bz"/><path d="M114-163C36-179 61-72 57 0H25l-1-190h30c1 12-1 29 2 39 6-27 23-49 58-41v29" id="bA"/><path d="M117-194c89-4 53 116 60 194h-32v-121c0-31-8-49-39-48C34-167 62-67 57 0H25l-1-190h30c1 10-1 24 2 32 11-22 29-35 61-36" id="bB"/><path d="M59-47c-2 24 18 29 38 22v24C64 9 27 4 27-40v-127H5v-23h24l9-43h21v43h35v23H59v120" id="bC"/><path d="M135-143c-3-34-86-38-87 0 15 53 115 12 119 90S17 21 10-45l28-5c4 36 97 45 98 0-10-56-113-15-118-90-4-57 82-63 122-42 12 7 21 19 24 35" id="bD"/><path d="M33 0v-38h34V0H33" id="bE"/><path d="M24-231v-30h32v30H24zM24 0v-190h32V0H24" id="bF"/><path d="M100-194c62-1 85 37 85 99 1 63-27 99-86 99S16-35 15-95c0-66 28-99 85-99zM99-20c44 1 53-31 53-75 0-43-8-75-51-75s-53 32-53 75 10 74 51 75" id="bG"/><path d="M0 4l72-265h28L28 4H0" id="bH"/><path d="M96-169c-40 0-48 33-48 73s9 75 48 75c24 0 41-14 43-38l32 2c-6 37-31 61-74 61-59 0-76-41-82-99-10-93 101-131 147-64 4 7 5 14 7 22l-32 3c-4-21-16-35-41-35" id="bI"/><path d="M24 0v-261h32V0H24" id="bJ"/><path d="M18-100v-36l175-74v27L42-118l151 64v27" id="bK"/><path d="M16-82v-28h88v28H16" id="bL"/><path d="M141-36C126-15 110 5 73 4 37 3 15-17 15-53c-1-64 63-63 125-63 3-35-9-54-41-54-24 1-41 7-42 31l-33-3c5-37 33-52 76-52 45 0 72 20 72 64v82c-1 20 7 32 28 27v20c-31 9-61-2-59-35zM48-53c0 20 12 33 32 33 41-3 63-29 60-74-43 2-92-5-92 41" id="bM"/><path d="M210-169c-67 3-38 105-44 169h-31v-121c0-29-5-50-35-48C34-165 62-65 56 0H25l-1-190h30c1 10-1 24 2 32 10-44 99-50 107 0 11-21 27-35 58-36 85-2 47 119 55 194h-31v-121c0-29-5-49-35-48" id="bN"/><path d="M18-27v-27l151-64-151-65v-27l175 74v36" id="bO"/><g id="x"><use transform="matrix(0.048148148148148155,0,0,0.048148148148148155,0,0)" xlink:href="#bw"/><use transform="matrix(0.048148148148148155,0,0,0.048148148148148155,8.666666666666668,0)" xlink:href="#bx"/><use transform="matrix(0.048148148148148155,0,0,0.048148148148148155,18.296296296296298,0)" xlink:href="#by"/><use transform="matrix(0.048148148148148155,0,0,0.048148148148148155,27.92592592592593,0)" xlink:href="#bz"/><use transform="matrix(0.048148148148148155,0,0,0.048148148148148155,37.555555555555564,0)" xlink:href="#bA"/><use transform="matrix(0.048148148148148155,0,0,0.048148148148148155,43.28518518518519,0)" xlink:href="#bB"/><use transform="matrix(0.048148148148148155,0,0,0.048148148148148155,52.914814814814825,0)" xlink:href="#bz"/><use transform="matrix(0.048148148148148155,0,0,0.048148148148148155,62.54444444444445,0)" xlink:href="#bC"/><use transform="matrix(0.048148148148148155,0,0,0.048148148148148155,67.35925925925928,0)" xlink:href="#bz"/><use transform="matrix(0.048148148148148155,0,0,0.048148148148148155,76.98888888888891,0)" xlink:href="#bD"/><use transform="matrix(0.048148148148148155,0,0,0.048148148148148155,85.65555555555558,0)" xlink:href="#bE"/><use transform="matrix(0.048148148148148155,0,0,0.048148148148148155,90.47037037037039,0)" xlink:href="#bF"/><use transform="matrix(0.048148148148148155,0,0,0.048148148148148155,94.2740740740741,0)" xlink:href="#bG"/><use transform="matrix(0.048148148148148155,0,0,0.048148148148148155,103.90370370370371,0)" xlink:href="#bH"/><use transform="matrix(0.048148148148148155,0,0,0.048148148148148155,108.71851851851854,0)" xlink:href="#bI"/><use transform="matrix(0.048148148148148155,0,0,0.048148148148148155,117.38518518518521,0)" xlink:href="#bJ"/><use transform="matrix(0.048148148148148155,0,0,0.048148148148148155,121.18888888888891,0)" xlink:href="#bx"/><use transform="matrix(0.048148148148148155,0,0,0.048148148148148155,130.81851851851854,0)" xlink:href="#bD"/><use transform="matrix(0.048148148148148155,0,0,0.048148148148148155,139.4851851851852,0)" xlink:href="#bC"/><use transform="matrix(0.048148148148148155,0,0,0.048148148148148155,144.3,0)" xlink:href="#bz"/><use transform="matrix(0.048148148148148155,0,0,0.048148148148148155,153.92962962962963,0)" xlink:href="#bA"/><use transform="matrix(0.048148148148148155,0,0,0.048148148148148155,159.65925925925927,0)" xlink:href="#bH"/><use transform="matrix(0.048148148148148155,0,0,0.048148148148148155,164.47407407407408,0)" xlink:href="#bK"/><use transform="matrix(0.048148148148148155,0,0,0.048148148148148155,174.5851851851852,0)" xlink:href="#bI"/><use transform="matrix(0.048148148148148155,0,0,0.048148148148148155,183.25185185185185,0)" xlink:href="#bJ"/><use transform="matrix(0.048148148148148155,0,0,0.048148148148148155,187.05555555555557,0)" xlink:href="#bx"/><use transform="matrix(0.048148148148148155,0,0,0.048148148148148155,196.6851851851852,0)" xlink:href="#bD"/><use transform="matrix(0.048148148148148155,0,0,0.048148148148148155,205.35185185185185,0)" xlink:href="#bC"/><use transform="matrix(0.048148148148148155,0,0,0.048148148148148155,210.16666666666666,0)" xlink:href="#bz"/><use transform="matrix(0.048148148148148155,0,0,0.048148148148148155,219.79629629629628,0)" xlink:href="#bA"/><use transform="matrix(0.048148148148148155,0,0,0.048148148148148155,225.52592592592592,0)" xlink:href="#bL"/><use transform="matrix(0.048148148148148155,0,0,0.048148148148148155,231.25555555555553,0)" xlink:href="#bB"/><use transform="matrix(0.048148148148148155,0,0,0.048148148148148155,240.88518518518518,0)" xlink:href="#bM"/><use transform="matrix(0.048148148148148155,0,0,0.048148148148148155,250.5148148148148,0)" xlink:href="#bN"/><use transform="matrix(0.048148148148148155,0,0,0.048148148148148155,264.9111111111111,0)" xlink:href="#bz"/><use transform="matrix(0.048148148148148155,0,0,0.048148148148148155,274.5407407407407,0)" xlink:href="#bO"/><path fill="#8080ff" d="M-.87 1.2h286.4v1.27H-.88z"/></g><path d="M33-154v-36h34v36H33zM33 0v-36h34V0H33" id="bP"/><use transform="matrix(0.048148148148148155,0,0,0.048148148148148155,0,0)" xlink:href="#bP" id="y"/><path d="M206 0h-36l-40-164L89 0H53L-1-190h32L70-26l43-164h34l41 164 42-164h31" id="bQ"/><path d="M85-194c31 0 48 13 60 33l-1-100h32l1 261h-30c-2-10 0-23-3-31C134-8 116 4 85 4 32 4 16-35 15-94c0-66 23-100 70-100zm9 24c-40 0-46 34-46 75 0 40 6 74 45 74 42 0 51-32 51-76 0-42-9-74-50-73" id="bR"/><g id="z"><use transform="matrix(0.048148148148148155,0,0,0.048148148148148155,0,0)" xlink:href="#bG"/><use transform="matrix(0.048148148148148155,0,0,0.048148148148148155,9.629629629629632,0)" xlink:href="#bQ"/><use transform="matrix(0.048148148148148155,0,0,0.048148148148148155,22.1,0)" xlink:href="#bB"/><use transform="matrix(0.048148148148148155,0,0,0.048148148148148155,31.729629629629635,0)" xlink:href="#bz"/><use transform="matrix(0.048148148148148155,0,0,0.048148148148148155,41.35925925925927,0)" xlink:href="#bR"/></g><path d="M76-40C78 24 84 88 6 75V52C86 64 9-79 80-94c-40-6-34-59-34-106 1-29-11-41-40-38v-23c44-4 70 10 70 52 0 47-12 108 38 105v22c-26 1-39 14-38 42" id="bS"/><use transform="matrix(0.048148148148148155,0,0,0.048148148148148155,0,0)" xlink:href="#bS" id="A"/><g id="B"><use transform="matrix(0.04938271604938272,0,0,0.04938271604938272,0,0)" xlink:href="#bi"/><use transform="matrix(0.04938271604938272,0,0,0.04938271604938272,10.814814814814815,0)" xlink:href="#bj"/><use transform="matrix(0.04938271604938272,0,0,0.04938271604938272,23.60493827160494,0)" xlink:href="#bk"/><use transform="matrix(0.04938271604938272,0,0,0.04938271604938272,35.45679012345679,0)" xlink:href="#bl"/><use transform="matrix(0.04938271604938272,0,0,0.04938271604938272,40.39506172839506,0)" xlink:href="#bq"/><use transform="matrix(0.04938271604938272,0,0,0.04938271604938272,50.27160493827161,0)" xlink:href="#bq"/><use transform="matrix(0.04938271604938272,0,0,0.04938271604938272,60.14814814814815,0)" xlink:href="#bn"/></g><path fill="#333" d="M24 0v-248h195v40H76v63h132v40H76v65h150V0H24" id="bT"/><path fill="#333" d="M195-6C206 82 75 100 31 46c-4-6-6-13-8-21l49-6c3 16 16 24 34 25 40 0 42-37 40-79-11 22-30 35-61 35-53 0-70-43-70-97 0-56 18-96 73-97 30 0 46 14 59 34l2-30h47zm-90-29c32 0 41-27 41-63 0-35-9-62-40-62-32 0-39 29-40 63 0 36 9 62 39 62" id="bU"/><path fill="#333" d="M135-150c-39-12-60 13-60 57V0H25l-1-190h47c2 13-1 29 3 40 6-28 27-53 61-41v41" id="bV"/><path fill="#333" d="M137-138c1-29-70-34-71-4 15 46 118 7 119 86 1 83-164 76-172 9l43-7c4 19 20 25 44 25 33 8 57-30 24-41C81-84 22-81 20-136c-2-80 154-74 161-7" id="bW"/><g id="C"><use transform="matrix(0.04938271604938272,0,0,0.04938271604938272,0,0)" xlink:href="#bT"/><use transform="matrix(0.04938271604938272,0,0,0.04938271604938272,11.851851851851853,0)" xlink:href="#bU"/><use transform="matrix(0.04938271604938272,0,0,0.04938271604938272,22.666666666666668,0)" xlink:href="#bV"/><use transform="matrix(0.04938271604938272,0,0,0.04938271604938272,29.58024691358025,0)" xlink:href="#be"/><use transform="matrix(0.04938271604938272,0,0,0.04938271604938272,39.45679012345679,0)" xlink:href="#bW"/><use transform="matrix(0.04938271604938272,0,0,0.04938271604938272,49.333333333333336,0)" xlink:href="#bW"/></g><path fill="#333" d="M101-251c68 0 84 54 84 127C185-50 166 4 99 4S15-52 14-124c-1-75 17-127 87-127zm-1 216c37-5 36-46 36-89s4-89-36-89c-39 0-36 45-36 89 0 43-3 85 36 89" id="bX"/><path fill="#333" d="M24 0v-54h51V0H24" id="bY"/><g id="D"><use transform="matrix(0.04938271604938272,0,0,0.04938271604938272,0,0)" xlink:href="#bX"/><use transform="matrix(0.04938271604938272,0,0,0.04938271604938272,9.876543209876544,0)" xlink:href="#bY"/><use transform="matrix(0.04938271604938272,0,0,0.04938271604938272,14.814814814814817,0)" xlink:href="#bX"/><use transform="matrix(0.04938271604938272,0,0,0.04938271604938272,24.69135802469136,0)" xlink:href="#bY"/><use transform="matrix(0.04938271604938272,0,0,0.04938271604938272,29.629629629629633,0)" xlink:href="#bX"/><use transform="matrix(0.04938271604938272,0,0,0.04938271604938272,39.50617283950618,0)" xlink:href="#bY"/><use transform="matrix(0.04938271604938272,0,0,0.04938271604938272,44.44444444444445,0)" xlink:href="#bX"/><use transform="matrix(0.04938271604938272,0,0,0.04938271604938272,54.320987654320994,0)" xlink:href="#bl"/><use transform="matrix(0.04938271604938272,0,0,0.04938271604938272,59.25925925925927,0)" xlink:href="#bX"/></g><path fill="#333" d="M14-72v-43h91v43H14" id="bZ"/><use transform="matrix(0.04938271604938272,0,0,0.04938271604938272,0,0)" xlink:href="#bZ" id="E"/><g id="F"><use transform="matrix(0.04938271604938272,0,0,0.04938271604938272,0,0)" xlink:href="#bi"/><use transform="matrix(0.04938271604938272,0,0,0.04938271604938272,10.814814814814815,0)" xlink:href="#bj"/><use transform="matrix(0.04938271604938272,0,0,0.04938271604938272,23.60493827160494,0)" xlink:href="#bk"/><use transform="matrix(0.04938271604938272,0,0,0.04938271604938272,35.45679012345679,0)" xlink:href="#bl"/><use transform="matrix(0.04938271604938272,0,0,0.04938271604938272,40.39506172839506,0)" xlink:href="#bq"/><use transform="matrix(0.04938271604938272,0,0,0.04938271604938272,50.27160493827161,0)" xlink:href="#bq"/><use transform="matrix(0.04938271604938272,0,0,0.04938271604938272,60.14814814814815,0)" xlink:href="#bn"/></g><path fill="#333" d="M23 0v-37h61v-169l-59 37v-38l62-41h46v211h57V0H23" id="ca"/><path fill="#333" d="M182-182c0 78-84 86-111 141h115V0H12c-6-101 99-100 120-180 1-22-12-31-33-32-23 0-32 14-35 34l-49-3c5-45 32-70 84-70 51 0 83 22 83 69" id="cb"/><g id="G"><use transform="matrix(0.04938271604938272,0,0,0.04938271604938272,0,0)" xlink:href="#bi"/><use transform="matrix(0.04938271604938272,0,0,0.04938271604938272,10.814814814814815,0)" xlink:href="#bj"/><use transform="matrix(0.04938271604938272,0,0,0.04938271604938272,23.60493827160494,0)" xlink:href="#bk"/><use transform="matrix(0.04938271604938272,0,0,0.04938271604938272,35.45679012345679,0)" xlink:href="#bl"/><use transform="matrix(0.04938271604938272,0,0,0.04938271604938272,40.39506172839506,0)" xlink:href="#ca"/><use transform="matrix(0.04938271604938272,0,0,0.04938271604938272,50.27160493827161,0)" xlink:href="#cb"/><use transform="matrix(0.04938271604938272,0,0,0.04938271604938272,60.14814814814815,0)" xlink:href="#bn"/></g><path fill="#333" d="M67-93c0 74 22 123 53 168H70C40 30 18-18 18-93s22-123 52-168h50c-32 44-53 94-53 168" id="cc"/><path fill="#333" d="M175 0L67-191c6 58 2 128 3 191H24v-248h59L193-55c-6-58-2-129-3-193h46V0h-61" id="cd"/><path fill="#333" d="M102-93c0 74-22 123-52 168H0C30 29 54-18 53-93c0-74-22-123-53-168h50c30 45 52 94 52 168" id="ce"/><g id="H"><use transform="matrix(0.04938271604938272,0,0,0.04938271604938272,0,0)" xlink:href="#cc"/><use transform="matrix(0.04938271604938272,0,0,0.04938271604938272,5.8765432098765435,0)" xlink:href="#cd"/><use transform="matrix(0.04938271604938272,0,0,0.04938271604938272,18.666666666666668,0)" xlink:href="#bi"/><use transform="matrix(0.04938271604938272,0,0,0.04938271604938272,29.481481481481477,0)" xlink:href="#bk"/><use transform="matrix(0.04938271604938272,0,0,0.04938271604938272,41.333333333333336,0)" xlink:href="#ce"/></g><g id="I"><use transform="matrix(0.04938271604938272,0,0,0.04938271604938272,0,0)" xlink:href="#bo"/><use transform="matrix(0.04938271604938272,0,0,0.04938271604938272,12.790123456790125,0)" xlink:href="#bp"/><use transform="matrix(0.04938271604938272,0,0,0.04938271604938272,25.58024691358025,0)" xlink:href="#bk"/><use transform="matrix(0.04938271604938272,0,0,0.04938271604938272,37.4320987654321,0)" xlink:href="#bl"/><use transform="matrix(0.04938271604938272,0,0,0.04938271604938272,42.370370370370374,0)" xlink:href="#ca"/><use transform="matrix(0.04938271604938272,0,0,0.04938271604938272,52.24691358024692,0)" xlink:href="#cb"/><use transform="matrix(0.04938271604938272,0,0,0.04938271604938272,62.12345679012346,0)" xlink:href="#bn"/></g><g id="J"><use transform="matrix(0.04938271604938272,0,0,0.04938271604938272,0,0)" xlink:href="#cc"/><use transform="matrix(0.04938271604938272,0,0,0.04938271604938272,5.8765432098765435,0)" xlink:href="#cd"/><use transform="matrix(0.04938271604938272,0,0,0.04938271604938272,18.666666666666668,0)" xlink:href="#bi"/><use transform="matrix(0.04938271604938272,0,0,0.04938271604938272,29.481481481481477,0)" xlink:href="#bk"/><use transform="matrix(0.04938271604938272,0,0,0.04938271604938272,41.333333333333336,0)" xlink:href="#ce"/></g><path fill="#333" d="M30-248c87 1 191-15 191 75 0 78-77 80-158 76V0H30v-248zm33 125c57 0 124 11 124-50 0-59-68-47-124-48v98" id="cf"/><path fill="#333" d="M115-194c53 0 69 39 70 98 0 66-23 100-70 100C84 3 66-7 56-30L54 0H23l1-261h32v101c10-23 28-34 59-34zm-8 174c40 0 45-34 45-75 0-40-5-75-45-74-42 0-51 32-51 76 0 43 10 73 51 73" id="cg"/><path fill="#333" d="M24 0v-261h32V0H24" id="ch"/><path fill="#333" d="M24-231v-30h32v30H24zM24 0v-190h32V0H24" id="ci"/><path fill="#333" d="M96-169c-40 0-48 33-48 73s9 75 48 75c24 0 41-14 43-38l32 2c-6 37-31 61-74 61-59 0-76-41-82-99-10-93 101-131 147-64 4 7 5 14 7 22l-32 3c-4-21-16-35-41-35" id="cj"/><g id="K"><use transform="matrix(0.06172839506172839,0,0,0.06172839506172839,0,0)" xlink:href="#cf"/><use transform="matrix(0.06172839506172839,0,0,0.06172839506172839,14.814814814814813,0)" xlink:href="#bb"/><use transform="matrix(0.06172839506172839,0,0,0.06172839506172839,27.160493827160494,0)" xlink:href="#cg"/><use transform="matrix(0.06172839506172839,0,0,0.06172839506172839,39.50617283950617,0)" xlink:href="#ch"/><use transform="matrix(0.06172839506172839,0,0,0.06172839506172839,44.382716049382715,0)" xlink:href="#ci"/><use transform="matrix(0.06172839506172839,0,0,0.06172839506172839,49.25925925925926,0)" xlink:href="#cj"/></g><path fill="#333" d="M33 0v-248h34V0H33" id="ck"/><path fill="#333" d="M117-194c89-4 53 116 60 194h-32v-121c0-31-8-49-39-48C34-167 62-67 57 0H25l-1-190h30c1 10-1 24 2 32 11-22 29-35 61-36" id="cl"/><path fill="#333" d="M59-47c-2 24 18 29 38 22v24C64 9 27 4 27-40v-127H5v-23h24l9-43h21v43h35v23H59v120" id="cm"/><g id="L"><use transform="matrix(0.06172839506172839,0,0,0.06172839506172839,0,0)" xlink:href="#ck"/><use transform="matrix(0.06172839506172839,0,0,0.06172839506172839,6.172839506172839,0)" xlink:href="#cl"/><use transform="matrix(0.06172839506172839,0,0,0.06172839506172839,18.51851851851852,0)" xlink:href="#cm"/><use transform="matrix(0.06172839506172839,0,0,0.06172839506172839,24.691358024691358,0)" xlink:href="#aY"/><use transform="matrix(0.06172839506172839,0,0,0.06172839506172839,37.03703703703704,0)" xlink:href="#ba"/><use transform="matrix(0.06172839506172839,0,0,0.06172839506172839,44.382716049382715,0)" xlink:href="#cl"/><use transform="matrix(0.06172839506172839,0,0,0.06172839506172839,56.72839506172839,0)" xlink:href="#aY"/><use transform="matrix(0.06172839506172839,0,0,0.06172839506172839,69.07407407407408,0)" xlink:href="#cm"/></g><path d="M80-196l47-18 7 23-49 13 32 44-20 13-27-46-27 45-21-12 33-44-49-13 8-23 47 19-2-53h23" id="cn"/><path d="M205 0l-28-72H64L36 0H1l101-248h38L239 0h-34zm-38-99l-47-123c-12 45-31 82-46 123h93" id="co"/><path d="M266 0h-40l-56-210L115 0H75L2-248h35L96-30l15-64 43-154h32l59 218 59-218h35" id="cp"/><path d="M185-189c-5-48-123-54-124 2 14 75 158 14 163 119 3 78-121 87-175 55-17-10-28-26-33-46l33-7c5 56 141 63 141-1 0-78-155-14-162-118-5-82 145-84 179-34 5 7 8 16 11 25" id="cq"/><g id="M"><use transform="matrix(0.055555555555555546,0,0,0.055555555555555546,0,0)" xlink:href="#cn"/><use transform="matrix(0.055555555555555546,0,0,0.055555555555555546,7.777777777777777,0)" xlink:href="#co"/><use transform="matrix(0.055555555555555546,0,0,0.055555555555555546,20.388888888888886,0)" xlink:href="#cp"/><use transform="matrix(0.055555555555555546,0,0,0.055555555555555546,39.222222222222214,0)" xlink:href="#cq"/></g><path d="M30 0v-248h187v28H63v79h144v27H63v87h162V0H30" id="cr"/><path d="M194 0L95-120 63-95V0H30v-248h33v124l119-124h40L117-140 236 0h-42" id="cs"/><g id="N"><use transform="matrix(0.055555555555555546,0,0,0.055555555555555546,0,0)" xlink:href="#cr"/><use transform="matrix(0.055555555555555546,0,0,0.055555555555555546,13.33333333333333,0)" xlink:href="#cs"/><use transform="matrix(0.055555555555555546,0,0,0.055555555555555546,26.66666666666666,0)" xlink:href="#cq"/></g><path d="M212-179c-10-28-35-45-73-45-59 0-87 40-87 99 0 60 29 101 89 101 43 0 62-24 78-52l27 14C228-24 195 4 139 4 59 4 22-46 18-125c-6-104 99-153 187-111 19 9 31 26 39 46" id="ct"/><g id="O"><use transform="matrix(0.055555555555555546,0,0,0.055555555555555546,0,0)" xlink:href="#ct"/><use transform="matrix(0.055555555555555546,0,0,0.055555555555555546,14.388888888888886,0)" xlink:href="#bJ"/><use transform="matrix(0.055555555555555546,0,0,0.055555555555555546,18.777777777777775,0)" xlink:href="#bx"/><use transform="matrix(0.055555555555555546,0,0,0.055555555555555546,29.888888888888882,0)" xlink:href="#bD"/><use transform="matrix(0.055555555555555546,0,0,0.055555555555555546,39.888888888888886,0)" xlink:href="#bC"/><use transform="matrix(0.055555555555555546,0,0,0.055555555555555546,45.44444444444444,0)" xlink:href="#bz"/><use transform="matrix(0.055555555555555546,0,0,0.055555555555555546,56.55555555555555,0)" xlink:href="#bA"/></g><path d="M179-190L93 31C79 59 56 82 12 73V49c39 6 53-20 64-50L1-190h34L92-34l54-156h33" id="cu"/><g id="P"><use transform="matrix(0.055555555555555546,0,0,0.055555555555555546,0,0)" xlink:href="#cq"/><use transform="matrix(0.055555555555555546,0,0,0.055555555555555546,13.33333333333333,0)" xlink:href="#bz"/><use transform="matrix(0.055555555555555546,0,0,0.055555555555555546,24.44444444444444,0)" xlink:href="#bI"/><use transform="matrix(0.055555555555555546,0,0,0.055555555555555546,34.444444444444436,0)" xlink:href="#bx"/><use transform="matrix(0.055555555555555546,0,0,0.055555555555555546,45.55555555555554,0)" xlink:href="#bA"/><use transform="matrix(0.055555555555555546,0,0,0.055555555555555546,52.16666666666665,0)" xlink:href="#bF"/><use transform="matrix(0.055555555555555546,0,0,0.055555555555555546,56.555555555555536,0)" xlink:href="#bC"/><use transform="matrix(0.055555555555555546,0,0,0.055555555555555546,62.111111111111086,0)" xlink:href="#cu"/></g><path d="M143 4C61 4 22-44 18-125c-5-107 100-154 193-111 17 8 29 25 37 43l-32 9c-13-25-37-40-76-40-61 0-88 39-88 99 0 61 29 100 91 101 35 0 62-11 79-27v-45h-74v-28h105v86C228-13 192 4 143 4" id="cv"/><path d="M115-194c55 1 70 41 70 98S169 2 115 4C84 4 66-9 55-30l1 105H24l-1-265h31l2 30c10-21 28-34 59-34zm-8 174c40 0 45-34 45-75s-6-73-45-74c-42 0-51 32-51 76 0 43 10 73 51 73" id="cw"/><g id="Q"><use transform="matrix(0.055555555555555546,0,0,0.055555555555555546,0,0)" xlink:href="#cv"/><use transform="matrix(0.055555555555555546,0,0,0.055555555555555546,15.555555555555554,0)" xlink:href="#bA"/><use transform="matrix(0.055555555555555546,0,0,0.055555555555555546,22.166666666666664,0)" xlink:href="#bG"/><use transform="matrix(0.055555555555555546,0,0,0.055555555555555546,33.27777777777777,0)" xlink:href="#bx"/><use transform="matrix(0.055555555555555546,0,0,0.055555555555555546,44.38888888888888,0)" xlink:href="#cw"/></g><g id="R"><use transform="matrix(0.055555555555555546,0,0,0.055555555555555546,0,0)" xlink:href="#bF"/><use transform="matrix(0.055555555555555546,0,0,0.055555555555555546,4.388888888888888,0)" xlink:href="#bD"/></g><use transform="matrix(0.055555555555555546,0,0,0.055555555555555546,0,0)" xlink:href="#bM" id="S"/><path d="M101-234c-31-9-42 10-38 44h38v23H63V0H32v-167H5v-23h27c-7-52 17-82 69-68v24" id="cx"/><g id="T"><use transform="matrix(0.055555555555555546,0,0,0.055555555555555546,0,0)" xlink:href="#bR"/><use transform="matrix(0.055555555555555546,0,0,0.055555555555555546,11.111111111111109,0)" xlink:href="#bz"/><use transform="matrix(0.055555555555555546,0,0,0.055555555555555546,22.222222222222218,0)" xlink:href="#cx"/><use transform="matrix(0.055555555555555546,0,0,0.055555555555555546,27.77777777777777,0)" xlink:href="#bM"/><use transform="matrix(0.055555555555555546,0,0,0.055555555555555546,38.88888888888888,0)" xlink:href="#bx"/><use transform="matrix(0.055555555555555546,0,0,0.055555555555555546,49.999999999999986,0)" xlink:href="#bJ"/><use transform="matrix(0.055555555555555546,0,0,0.055555555555555546,54.38888888888887,0)" xlink:href="#bC"/></g><g id="U"><use transform="matrix(0.055555555555555546,0,0,0.055555555555555546,0,0)" xlink:href="#bD"/><use transform="matrix(0.055555555555555546,0,0,0.055555555555555546,9.999999999999998,0)" xlink:href="#bz"/><use transform="matrix(0.055555555555555546,0,0,0.055555555555555546,21.111111111111107,0)" xlink:href="#bI"/><use transform="matrix(0.055555555555555546,0,0,0.055555555555555546,31.111111111111107,0)" xlink:href="#bx"/><use transform="matrix(0.055555555555555546,0,0,0.055555555555555546,42.222222222222214,0)" xlink:href="#bA"/><use transform="matrix(0.055555555555555546,0,0,0.055555555555555546,48.83333333333332,0)" xlink:href="#bF"/><use transform="matrix(0.055555555555555546,0,0,0.055555555555555546,53.22222222222221,0)" xlink:href="#bC"/><use transform="matrix(0.055555555555555546,0,0,0.055555555555555546,58.777777777777764,0)" xlink:href="#cu"/></g><path d="M177-190C167-65 218 103 67 71c-23-6-38-20-44-43l32-5c15 47 100 32 89-28v-30C133-14 115 1 83 1 29 1 15-40 15-95c0-56 16-97 71-98 29-1 48 16 59 35 1-10 0-23 2-32h30zM94-22c36 0 50-32 50-73 0-42-14-75-50-75-39 0-46 34-46 75s6 73 46 73" id="cy"/><g id="V"><use transform="matrix(0.055555555555555546,0,0,0.055555555555555546,0,0)" xlink:href="#cy"/><use transform="matrix(0.055555555555555546,0,0,0.055555555555555546,11.111111111111109,0)" xlink:href="#bA"/><use transform="matrix(0.055555555555555546,0,0,0.055555555555555546,17.722222222222218,0)" xlink:href="#bG"/><use transform="matrix(0.055555555555555546,0,0,0.055555555555555546,28.83333333333333,0)" xlink:href="#bx"/><use transform="matrix(0.055555555555555546,0,0,0.055555555555555546,39.944444444444436,0)" xlink:href="#cw"/></g><g id="W"><use transform="matrix(0.055555555555555546,0,0,0.055555555555555546,0,0)" xlink:href="#bI"/><use transform="matrix(0.055555555555555546,0,0,0.055555555555555546,9.999999999999998,0)" xlink:href="#bA"/><use transform="matrix(0.055555555555555546,0,0,0.055555555555555546,16.611111111111107,0)" xlink:href="#bz"/><use transform="matrix(0.055555555555555546,0,0,0.055555555555555546,27.722222222222214,0)" xlink:href="#bM"/><use transform="matrix(0.055555555555555546,0,0,0.055555555555555546,38.83333333333332,0)" xlink:href="#bC"/><use transform="matrix(0.055555555555555546,0,0,0.055555555555555546,44.38888888888888,0)" xlink:href="#bz"/><use transform="matrix(0.055555555555555546,0,0,0.055555555555555546,55.499999999999986,0)" xlink:href="#bR"/></g><g id="X"><use transform="matrix(0.055555555555555546,0,0,0.055555555555555546,0,0)" xlink:href="#cx"/><use transform="matrix(0.055555555555555546,0,0,0.055555555555555546,5.5555555555555545,0)" xlink:href="#bG"/><use transform="matrix(0.055555555555555546,0,0,0.055555555555555546,16.666666666666664,0)" xlink:href="#bA"/></g><path d="M106-169C34-169 62-67 57 0H25v-261h32l-1 103c12-21 28-36 61-36 89 0 53 116 60 194h-32v-121c2-32-8-49-39-48" id="cz"/><g id="Y"><use transform="matrix(0.055555555555555546,0,0,0.055555555555555546,0,0)" xlink:href="#bC"/><use transform="matrix(0.055555555555555546,0,0,0.055555555555555546,5.5555555555555545,0)" xlink:href="#cz"/><use transform="matrix(0.055555555555555546,0,0,0.055555555555555546,16.666666666666664,0)" xlink:href="#bz"/></g><g id="Z"><use transform="matrix(0.055555555555555546,0,0,0.055555555555555546,0,0)" xlink:href="#bI"/><use transform="matrix(0.055555555555555546,0,0,0.055555555555555546,9.999999999999998,0)" xlink:href="#bJ"/><use transform="matrix(0.055555555555555546,0,0,0.055555555555555546,14.388888888888886,0)" xlink:href="#bx"/><use transform="matrix(0.055555555555555546,0,0,0.055555555555555546,25.499999999999993,0)" xlink:href="#bD"/><use transform="matrix(0.055555555555555546,0,0,0.055555555555555546,35.49999999999999,0)" xlink:href="#bC"/><use transform="matrix(0.055555555555555546,0,0,0.055555555555555546,41.05555555555555,0)" xlink:href="#bz"/><use transform="matrix(0.055555555555555546,0,0,0.055555555555555546,52.16666666666666,0)" xlink:href="#bA"/></g><g id="aa"><use transform="matrix(0.055555555555555546,0,0,0.055555555555555546,0,0)" xlink:href="#by"/><use transform="matrix(0.055555555555555546,0,0,0.055555555555555546,11.111111111111109,0)" xlink:href="#cu"/></g><g id="ab"><use transform="matrix(0.055555555555555546,0,0,0.055555555555555546,0,0)" xlink:href="#co"/><use transform="matrix(0.055555555555555546,0,0,0.055555555555555546,12.611111111111109,0)" xlink:href="#cp"/><use transform="matrix(0.055555555555555546,0,0,0.055555555555555546,31.44444444444444,0)" xlink:href="#cq"/><use transform="matrix(0.055555555555555546,0,0,0.055555555555555546,44.777777777777764,0)" xlink:href="#bE"/></g><path d="M127-220V0H93v-220H8v-28h204v28h-85" id="cA"/><g id="ac"><use transform="matrix(0.055555555555555546,0,0,0.055555555555555546,0,0)" xlink:href="#cA"/><use transform="matrix(0.055555555555555546,0,0,0.055555555555555546,12.166666666666664,0)" xlink:href="#cz"/><use transform="matrix(0.055555555555555546,0,0,0.055555555555555546,23.27777777777777,0)" xlink:href="#bF"/><use transform="matrix(0.055555555555555546,0,0,0.055555555555555546,27.66666666666666,0)" xlink:href="#bD"/></g><g id="ad"><use transform="matrix(0.055555555555555546,0,0,0.055555555555555546,0,0)" xlink:href="#bD"/><use transform="matrix(0.055555555555555546,0,0,0.055555555555555546,9.999999999999998,0)" xlink:href="#bz"/><use transform="matrix(0.055555555555555546,0,0,0.055555555555555546,21.111111111111107,0)" xlink:href="#bI"/><use transform="matrix(0.055555555555555546,0,0,0.055555555555555546,31.111111111111107,0)" xlink:href="#bx"/><use transform="matrix(0.055555555555555546,0,0,0.055555555555555546,42.222222222222214,0)" xlink:href="#bA"/><use transform="matrix(0.055555555555555546,0,0,0.055555555555555546,48.83333333333332,0)" xlink:href="#bF"/><use transform="matrix(0.055555555555555546,0,0,0.055555555555555546,53.22222222222221,0)" xlink:href="#bC"/><use transform="matrix(0.055555555555555546,0,0,0.055555555555555546,58.777777777777764,0)" xlink:href="#cu"/></g><path d="M33 0v-248h34V0H33" id="cB"/><path d="M30-248c118-7 216 8 213 122C240-48 200 0 122 0H30v-248zM63-27c89 8 146-16 146-99s-60-101-146-95v194" id="cC"/><g id="ae"><use transform="matrix(0.055555555555555546,0,0,0.055555555555555546,0,0)" xlink:href="#cB"/><use transform="matrix(0.055555555555555546,0,0,0.055555555555555546,5.5555555555555545,0)" xlink:href="#cC"/></g><g id="af"><use transform="matrix(0.055555555555555546,0,0,0.055555555555555546,0,0)" xlink:href="#bF"/><use transform="matrix(0.055555555555555546,0,0,0.055555555555555546,4.388888888888888,0)" xlink:href="#bD"/></g><g id="ag"><use transform="matrix(0.055555555555555546,0,0,0.055555555555555546,0,0)" xlink:href="#bD"/><use transform="matrix(0.055555555555555546,0,0,0.055555555555555546,9.999999999999998,0)" xlink:href="#cz"/><use transform="matrix(0.055555555555555546,0,0,0.055555555555555546,21.111111111111107,0)" xlink:href="#bG"/><use transform="matrix(0.055555555555555546,0,0,0.055555555555555546,32.222222222222214,0)" xlink:href="#bQ"/><use transform="matrix(0.055555555555555546,0,0,0.055555555555555546,46.6111111111111,0)" xlink:href="#bB"/></g><g id="ah"><use transform="matrix(0.055555555555555546,0,0,0.055555555555555546,0,0)" xlink:href="#bF"/><use transform="matrix(0.055555555555555546,0,0,0.055555555555555546,4.388888888888888,0)" xlink:href="#bB"/></g><g id="ai"><use transform="matrix(0.055555555555555546,0,0,0.055555555555555546,0,0)" xlink:href="#bN"/><use transform="matrix(0.055555555555555546,0,0,0.055555555555555546,16.611111111111107,0)" xlink:href="#bG"/><use transform="matrix(0.055555555555555546,0,0,0.055555555555555546,27.722222222222214,0)" xlink:href="#bR"/><use transform="matrix(0.055555555555555546,0,0,0.055555555555555546,38.83333333333332,0)" xlink:href="#bx"/><use transform="matrix(0.055555555555555546,0,0,0.055555555555555546,49.94444444444443,0)" xlink:href="#bJ"/><use transform="matrix(0.055555555555555546,0,0,0.055555555555555546,54.333333333333314,0)" xlink:href="#bz"/></g><g id="aj"><use transform="matrix(0.055555555555555546,0,0,0.055555555555555546,0,0)" xlink:href="#bG"/><use transform="matrix(0.055555555555555546,0,0,0.055555555555555546,11.111111111111109,0)" xlink:href="#bx"/><use transform="matrix(0.055555555555555546,0,0,0.055555555555555546,22.222222222222218,0)" xlink:href="#bC"/><use transform="matrix(0.055555555555555546,0,0,0.055555555555555546,27.77777777777777,0)" xlink:href="#cw"/><use transform="matrix(0.055555555555555546,0,0,0.055555555555555546,38.88888888888888,0)" xlink:href="#bx"/><use transform="matrix(0.055555555555555546,0,0,0.055555555555555546,49.999999999999986,0)" xlink:href="#bC"/></g><path d="M77-211l-58-49v-5h36c12 19 30 32 38 54H77" id="cD"/><path d="M172-543c0-365 197-575 553-575 119 0 231 20 336 59l-62 158c-100-38-189-57-268-57-247 0-371 138-371 413 0 271 120 406 361 406 105 0 212-21 321-62v160C953 0 843 20 713 20c-347 1-541-210-541-563" id="cE"/><path d="M532-1413l-268-21v-122h451v1413l352 20V0H188v-123l344-20v-1270" id="cF"/><path d="M578-131c239 0 309-137 309-397v-570h182V0H922l-27-147h-10C815-36 704 20 551 20c-261 0-391-134-391-401v-717h182v707c0 173 79 260 236 260" id="cG"/><path d="M1026-301c0 225-197 321-448 321-165 0-290-23-375-69v-166c129 57 252 86 370 86 183 0 275-54 275-162 0-38-16-71-49-99s-108-63-226-106c-156-57-253-112-293-160s-61-105-61-171c2-338 524-340 789-217l-60 149c-121-48-228-72-319-72-157 0-236 44-236 133 0 41 17 74 51 98s111 57 232 101c141 51 234 101 280 151s70 111 70 183" id="cH"/><path d="M1020-150v138C933 9 849 20 768 20 527 20 406-95 406-324v-637H139v-94l267-49 77-287h105v293h438v137H588v637c0 130 64 195 192 195 62 0 142-7 240-21" id="cI"/><path d="M631-1118c283 0 470 204 465 491v113H322c5 250 120 375 344 375 130 0 253-25 370-76v160C925-5 804 20 672 20c-329 0-539-224-539-561 0-331 182-577 498-577zM326-662h573c0-203-91-305-272-305-183 0-284 102-301 305" id="cJ"/><path d="M442-897c93-139 173-221 377-221 79 0 159 15 240 45l-49 166c-82-30-157-45-224-45-221 0-340 134-340 360V0H264v-1098h148l22 201h8" id="cK"/><path d="M1243 324H-16V184h1259v140" id="cL"/><path d="M1092-551c0 322-136 571-430 571-138 0-245-53-322-159h-12c24 220 7 402 12 631H158v-1590h147l27 148h8c73-112 181-168 322-168 294 0 430 246 430 567zM629-967c-241 0-288 156-289 416 0 151 24 259 70 323s120 97 221 97c181 0 272-141 272-422 0-276-91-414-274-414" id="cM"/><path d="M739-1436c0 71-43 115-106 115-71 0-107-38-107-115 0-76 36-114 107-114s106 38 106 114zM541-954l-269-21v-123h451v955l352 20V0H197v-123l344-20v-811" id="cN"/><path d="M977 0v-707c0-97-9-165-27-203s-47-57-88-57c-58 0-100 28-126 83s-40 148-40 278V0H535v-707c0-173-42-260-125-260-56 0-96 26-120 79s-36 160-36 319V0H92v-1098h127l27 148h10c45-112 112-168 201-168 109 0 180 61 213 182h6c51-121 124-182 219-182 85 0 147 30 186 92s58 165 58 309V0H977" id="cO"/><path d="M596-1118c288 2 430 92 430 366V0H895l-37-152h-8C752-34 680 17 483 20 272 23 135-98 135-307c0-221 170-337 510-348l203-7c15-197-55-305-244-305-98 0-207 27-328 82l-63-137c131-64 258-96 383-96zm-72 991c194 0 325-116 322-311v-99c-251 15-522-6-522 232 0 119 67 178 200 178" id="cP"/><path d="M82-1098h188l262 654c55 137 84 233 89 290h6c15-75 45-172 90-292l239-652h189L670 143c-45 116-99 201-156 261-87 92-259 104-414 71V330c92 17 226 18 286-29 67-53 115-195 153-291" id="cQ"/><path d="M188-739c-1-248 156-381 410-379 57 0 107 7 150 20h378v113l-196 27c43 57 65 128 65 213 2 253-212 385-489 346-67 37-100 82-100 133 0 56 54 84 161 84h187c216-2 358 93 358 297 0 251-188 377-565 377-145 0-255-26-331-80S102 283 102 186c0-141 80-231 240-270-64-31-96-83-96-154 0-75 44-139 133-192-109-41-191-166-191-309zm406 221c149 0 223-77 223-230 0-159-75-239-225-239s-225 81-225 242c0 151 76 227 227 227zm346 649c0-146-78-149-248-149H504c-153 0-230 66-230 198 0 116 90 174 271 174 263 0 395-74 395-223" id="cR"/><path d="M1112-551c0 331-186 571-502 571-301 0-495-251-495-571 0-330 184-567 501-567 302 0 496 249 496 567zM614-131c207 0 310-140 310-420 0-277-104-416-312-416-206 0-309 139-309 416 0 280 104 420 311 420" id="cS"/><path d="M137-547c0-322 136-571 430-571 137 0 245 53 322 160h12c-24-215-7-376-12-598h182V0H924l-27-147h-8C814-36 706 20 567 20c-294 0-430-246-430-567zm463 416c241 0 288-157 289-416 0-151-23-259-69-323s-121-97-222-97c-181 0-272 141-272 422 0 276 91 414 274 414" id="cT"/><path d="M811-1241H690c-111-95-201-197-272-307v-21h219c57 119 115 219 174 301v27" id="cU"/><g id="ak"><use transform="matrix(0.06172839506172839,0,0,0.06172839506172839,0,0)" xlink:href="#cD"/><use transform="matrix(0.0078125,0,0,0.0078125,7.345679012345679,0)" xlink:href="#cE"/><use transform="matrix(0.0078125,0,0,0.0078125,16.947241512345677,0)" xlink:href="#cF"/><use transform="matrix(0.0078125,0,0,0.0078125,26.548804012345677,0)" xlink:href="#cG"/><use transform="matrix(0.0078125,0,0,0.0078125,36.15036651234568,0)" xlink:href="#cH"/><use transform="matrix(0.0078125,0,0,0.0078125,45.75192901234568,0)" xlink:href="#cI"/><use transform="matrix(0.0078125,0,0,0.0078125,55.35349151234568,0)" xlink:href="#cJ"/><use transform="matrix(0.0078125,0,0,0.0078125,64.95505401234567,0)" xlink:href="#cK"/><use transform="matrix(0.0078125,0,0,0.0078125,74.55661651234567,0)" xlink:href="#cL"/><use transform="matrix(0.0078125,0,0,0.0078125,84.15817901234567,0)" xlink:href="#cM"/><use transform="matrix(0.0078125,0,0,0.0078125,93.75974151234567,0)" xlink:href="#cK"/><use transform="matrix(0.0078125,0,0,0.0078125,103.36130401234567,0)" xlink:href="#cN"/><use transform="matrix(0.0078125,0,0,0.0078125,112.96286651234567,0)" xlink:href="#cO"/><use transform="matrix(0.0078125,0,0,0.0078125,122.56442901234567,0)" xlink:href="#cP"/><use transform="matrix(0.0078125,0,0,0.0078125,132.16599151234567,0)" xlink:href="#cK"/><use transform="matrix(0.0078125,0,0,0.0078125,141.76755401234567,0)" xlink:href="#cQ"/><use transform="matrix(0.0078125,0,0,0.0078125,151.36911651234567,0)" xlink:href="#cL"/><use transform="matrix(0.0078125,0,0,0.0078125,160.97067901234567,0)" xlink:href="#cH"/><use transform="matrix(0.0078125,0,0,0.0078125,170.57224151234567,0)" xlink:href="#cJ"/><use transform="matrix(0.0078125,0,0,0.0078125,180.17380401234567,0)" xlink:href="#cE"/><use transform="matrix(0.0078125,0,0,0.0078125,189.77536651234567,0)" xlink:href="#cG"/><use transform="matrix(0.0078125,0,0,0.0078125,199.37692901234567,0)" xlink:href="#cK"/><use transform="matrix(0.0078125,0,0,0.0078125,208.97849151234567,0)" xlink:href="#cN"/><use transform="matrix(0.0078125,0,0,0.0078125,218.58005401234567,0)" xlink:href="#cI"/><use transform="matrix(0.0078125,0,0,0.0078125,228.18161651234567,0)" xlink:href="#cQ"/><use transform="matrix(0.0078125,0,0,0.0078125,237.78317901234567,0)" xlink:href="#cL"/><use transform="matrix(0.0078125,0,0,0.0078125,247.38474151234567,0)" xlink:href="#cR"/><use transform="matrix(0.0078125,0,0,0.0078125,256.98630401234567,0)" xlink:href="#cK"/><use transform="matrix(0.0078125,0,0,0.0078125,266.58786651234567,0)" xlink:href="#cS"/><use transform="matrix(0.0078125,0,0,0.0078125,276.18942901234567,0)" xlink:href="#cG"/><use transform="matrix(0.0078125,0,0,0.0078125,285.79099151234567,0)" xlink:href="#cM"/><use transform="matrix(0.0078125,0,0,0.0078125,295.39255401234567,0)" xlink:href="#cL"/><use transform="matrix(0.0078125,0,0,0.0078125,304.99411651234567,0)" xlink:href="#cN"/><use transform="matrix(0.0078125,0,0,0.0078125,314.59567901234567,0)" xlink:href="#cT"/><use transform="matrix(0.0078125,0,0,0.0078125,324.19724151234567,0)" xlink:href="#cU"/></g><g id="al"><use transform="matrix(0.04938271604938272,0,0,0.04938271604938272,0,0)" xlink:href="#bi"/><use transform="matrix(0.04938271604938272,0,0,0.04938271604938272,10.814814814814815,0)" xlink:href="#bj"/><use transform="matrix(0.04938271604938272,0,0,0.04938271604938272,23.60493827160494,0)" xlink:href="#bk"/><use transform="matrix(0.04938271604938272,0,0,0.04938271604938272,35.45679012345679,0)" xlink:href="#bl"/><use transform="matrix(0.04938271604938272,0,0,0.04938271604938272,40.39506172839506,0)" xlink:href="#ca"/><use transform="matrix(0.04938271604938272,0,0,0.04938271604938272,50.27160493827161,0)" xlink:href="#bX"/><use transform="matrix(0.04938271604938272,0,0,0.04938271604938272,60.14814814814815,0)" xlink:href="#cb"/><use transform="matrix(0.04938271604938272,0,0,0.04938271604938272,70.0246913580247,0)" xlink:href="#bm"/><use transform="matrix(0.04938271604938272,0,0,0.04938271604938272,79.90123456790124,0)" xlink:href="#bX"/></g><path fill="#333" d="M195 0l-88-114-31 24V0H24v-248h52v113l112-113h60L142-143 257 0h-62" id="cV"/><path fill="#333" d="M85 4C-2 5 27-109 22-190h50c7 57-23 150 33 157 60-5 35-97 40-157h50l1 190h-47c-2-12 1-28-3-38-12 25-28 42-61 42" id="cW"/><path fill="#333" d="M135-194c52 0 70 43 70 98 0 56-19 99-73 100-30 1-46-15-58-35L72 0H24l1-261h50v104c11-23 29-37 60-37zM114-30c31 0 40-27 40-66 0-37-7-63-39-63s-41 28-41 65c0 36 8 64 40 64" id="cX"/><path fill="#333" d="M115-3C79 11 28 4 28-45v-112H4v-33h27l15-45h31v45h36v33H77v99c-1 23 16 31 38 25v30" id="cY"/><g id="am"><use transform="matrix(0.04938271604938272,0,0,0.04938271604938272,0,0)" xlink:href="#cc"/><use transform="matrix(0.04938271604938272,0,0,0.04938271604938272,5.8765432098765435,0)" xlink:href="#cV"/><use transform="matrix(0.04938271604938272,0,0,0.04938271604938272,18.666666666666668,0)" xlink:href="#cW"/><use transform="matrix(0.04938271604938272,0,0,0.04938271604938272,29.481481481481477,0)" xlink:href="#cX"/><use transform="matrix(0.04938271604938272,0,0,0.04938271604938272,40.2962962962963,0)" xlink:href="#be"/><use transform="matrix(0.04938271604938272,0,0,0.04938271604938272,50.17283950617284,0)" xlink:href="#bf"/><use transform="matrix(0.04938271604938272,0,0,0.04938271604938272,55.111111111111114,0)" xlink:href="#be"/><use transform="matrix(0.04938271604938272,0,0,0.04938271604938272,64.98765432098766,0)" xlink:href="#cY"/><use transform="matrix(0.04938271604938272,0,0,0.04938271604938272,70.8641975308642,0)" xlink:href="#ce"/></g></defs></g></svg>
